spectral-semibold.ufo
<glyph name="exclam" format="2">
  <advance width="261.07142857142856"/>
  <unicode hex="0021"/>
  <outline>
    <contour>
      <point x="116.78571428571429" y="210.71428571428572" type="line"/>
      <point x="143.92857142857142" y="210.71428571428572" type="line"/>
      <point x="199.28571428571428" y="660.0" type="line"/>
      <point x="61.785714285714285" y="660.0" type="line"/>
    </contour>
    <contour>
      <point x="130.35714285714286" y="-5.0" type="curve" smooth="yes"/>
      <point x="167.0" y="-5.0"/>
      <point x="199.21428571428572" y="27.214285714285715"/>
      <point x="199.21428571428572" y="63.85714285714286" type="curve" smooth="yes"/>
      <point x="199.21428571428572" y="101.14285714285714"/>
      <point x="167.0" y="132.71428571428572"/>
      <point x="130.35714285714286" y="132.71428571428572" type="curve" smooth="yes"/>
      <point x="93.07142857142857" y="132.71428571428572"/>
      <point x="61.5" y="101.14285714285714"/>
      <point x="61.5" y="63.85714285714286" type="curve" smooth="yes"/>
      <point x="61.5" y="27.214285714285715"/>
      <point x="93.07142857142857" y="-5.0"/>
    </contour>
  </outline>
</glyph>
<glyph name="numbersign" format="2">
  <advance width="535.7142857142857"/>
  <unicode hex="0023"/>
  <outline>
    <contour>
      <point x="57.14285714285714" y="0.0" type="line"/>
      <point x="108.57142857142857" y="0.0" type="line"/>
      <point x="300.57142857142856" y="660.0" type="line"/>
      <point x="249.14285714285714" y="660.0" type="line"/>
    </contour>
    <contour>
      <point x="237.14285714285714" y="0.0" type="line"/>
      <point x="288.57142857142856" y="0.0" type="line"/>
      <point x="480.57142857142856" y="660.0" type="line"/>
      <point x="429.14285714285717" y="660.0" type="line"/>
    </contour>
    <contour>
      <point x="76.85714285714286" y="402.2857142857143" type="line"/>
      <point x="516.8571428571429" y="402.2857142857143" type="line"/>
      <point x="516.8571428571429" y="450.7142857142857" type="line"/>
      <point x="76.85714285714286" y="450.7142857142857" type="line"/>
    </contour>
    <contour>
      <point x="18.857142857142858" y="202.28571428571428" type="line"/>
      <point x="458.8571428571429" y="202.28571428571428" type="line"/>
      <point x="458.8571428571429" y="250.71428571428572" type="line"/>
      <point x="18.857142857142858" y="250.71428571428572" type="line"/>
    </contour>
  </outline>
</glyph>
<glyph name="dollar" format="2">
  <advance width="535.7142857142857"/>
  <unicode hex="0024"/>
  <outline>
    <contour>
      <point x="260.7142857142857" y="-10.0" type="curve" smooth="yes"/>
      <point x="380.92857142857144" y="-10.0"/>
      <point x="488.7857142857143" y="69.68421052631578"/>
      <point x="488.7857142857143" y="185.35714285714286" type="curve" smooth="yes"/>
      <point x="488.7857142857143" y="288.3201058201058"/>
      <point x="433.52375506187207" y="333.80320600504797"/>
      <point x="297.14285714285717" y="392.5" type="curve" smooth="yes"/>
      <point x="184.57724824571636" y="440.77088169254165"/>
      <point x="162.85714285714286" y="470.8763505402161"/>
      <point x="162.85714285714286" y="525.1428571428571" type="curve" smooth="yes"/>
      <point x="162.85714285714286" y="580.0467372134038"/>
      <point x="210.85714285714286" y="619.5"/>
      <point x="277.5" y="619.5" type="curve" smooth="yes"/>
      <point x="344.6373626373626" y="619.5"/>
      <point x="387.85714285714283" y="592.5"/>
      <point x="387.85714285714283" y="538.5" type="curve" smooth="yes"/>
      <point x="387.85714285714283" y="511.5" type="line"/>
      <point x="392.85714285714283" y="507.5" type="line"/>
      <point x="431.57142857142856" y="507.5" type="line" smooth="yes"/>
      <point x="447.57142857142856" y="507.5"/>
      <point x="469.14285714285717" y="515.0"/>
      <point x="469.14285714285717" y="542.0" type="curve" smooth="yes"/>
      <point x="469.14285714285717" y="573.0"/>
      <point x="449.92857142857144" y="603.7142857142857"/>
      <point x="416.92857142857144" y="630.9285714285714" type="curve" smooth="yes"/>
      <point x="390.21363968598445" y="652.9682212468042"/>
      <point x="344.0" y="670.0"/>
      <point x="279.2857142857143" y="670.0" type="curve" smooth="yes"/>
      <point x="165.78571428571428" y="670.0"/>
      <point x="58.07142857142857" y="577.985987696514"/>
      <point x="58.07142857142857" y="479.14285714285717" type="curve" smooth="yes"/>
      <point x="58.07142857142857" y="393.02828854314004"/>
      <point x="99.45146046034804" y="342.34849368962216"/>
      <point x="215.07142857142858" y="292.42857142857144" type="curve" smooth="yes"/>
      <point x="357.94697269265197" y="229.99258654108985"/>
      <point x="388.0" y="204.5907626208378"/>
      <point x="388.0" y="141.28571428571428" type="curve" smooth="yes"/>
      <point x="388.0" y="76.6184668989547"/>
      <point x="336.07142857142856" y="39.5"/>
      <point x="261.42857142857144" y="39.5" type="curve" smooth="yes"/>
      <point x="182.35714285714286" y="39.5"/>
      <point x="136.07142857142858" y="85.57142857142857"/>
      <point x="136.07142857142858" y="141.0" type="curve" smooth="yes"/>
      <point x="136.07142857142858" y="168.0" type="line"/>
      <point x="131.07142857142858" y="172.0" type="line"/>
      <point x="93.78571428571429" y="172.0" type="line" smooth="yes"/>
      <point x="77.78571428571429" y="172.0"/>
      <point x="54.785714285714285" y="167.0"/>
      <point x="54.785714285714285" y="140.0" type="curve" smooth="yes"/>
      <point x="54.785714285714285" y="109.0"/>
      <point x="70.78571428571429" y="71.0"/>
      <point x="103.78571428571428" y="43.0" type="curve" smooth="yes"/>
      <point x="131.42857142857142" y="17.357142857142858"/>
      <point x="195.71428571428572" y="-10.0"/>
    </contour>
    <contour>
      <point x="206.57142857142858" y="-80.0" type="line"/>
      <point x="243.71428571428572" y="-80.0" type="line"/>
      <point x="243.71428571428572" y="740.0" type="line"/>
      <point x="206.57142857142858" y="740.0" type="line"/>
    </contour>
    <contour>
      <point x="303.57142857142856" y="-80.0" type="line"/>
      <point x="340.7142857142857" y="-80.0" type="line"/>
      <point x="340.7142857142857" y="740.0" type="line"/>
      <point x="303.57142857142856" y="740.0" type="line"/>
    </contour>
  </outline>
</glyph>
<glyph name="ampersand" format="2">
  <advance width="736.4285714285714"/>
  <unicode hex="0026"/>
  <outline>
    <contour>
      <point x="513.7857142857143" y="0.0" type="line"/>
      <point x="713.7142857142857" y="0.0" type="line"/>
      <point x="713.7142857142857" y="16.0" type="line"/>
      <point x="630.7142857142857" y="52.0" type="line"/>
      <point x="338.2142857142857" y="346.0" type="line" smooth="yes"/>
      <point x="246.78571428571428" y="437.5"/>
      <point x="202.21428571428572" y="479.2142857142857"/>
      <point x="202.21428571428572" y="539.7142857142857" type="curve" smooth="yes"/>
      <point x="202.21428571428572" y="589.9285714285714"/>
      <point x="231.37772397107142" y="625.0"/>
      <point x="276.7142857142857" y="625.0" type="curve" smooth="yes"/>
      <point x="324.34627329178574" y="625.0"/>
      <point x="352.35714285714283" y="588.5"/>
      <point x="352.35714285714283" y="540.5" type="curve" smooth="yes"/>
      <point x="352.35714285714283" y="482.5"/>
      <point x="319.2841841014286" y="439.05756337785715"/>
      <point x="262.7142857142857" y="397.5" type="curve"/>
      <point x="287.57142857142856" y="375.42857142857144" type="line"/>
      <point x="411.9737260125" y="430.22550424428573"/>
      <point x="467.0" y="476.5"/>
      <point x="467.0" y="537.3571428571429" type="curve" smooth="yes"/>
      <point x="467.0" y="615.2142857142857"/>
      <point x="397.782312925" y="670.0"/>
      <point x="285.85714285714283" y="670.0" type="curve" smooth="yes"/>
      <point x="172.04730983285714" y="670.0"/>
      <point x="87.35714285714286" y="594.3571428571429"/>
      <point x="87.35714285714286" y="506.85714285714283" type="curve" smooth="yes"/>
      <point x="87.35714285714286" y="425.7857142857143"/>
      <point x="126.14285714285714" y="389.07142857142856"/>
      <point x="254.92857142857142" y="259.92857142857144" type="curve" smooth="yes"/>
    </contour>
    <contour>
      <point x="233.42857142857142" y="-10.0" type="curve" smooth="yes"/>
      <point x="429.2142857142857" y="-10.0"/>
      <point x="536.0714285714286" y="158.07142857142858"/>
      <point x="650.2857142857143" y="406.57142857142856" type="curve"/>
      <point x="620.2857142857143" y="381.57142857142856" type="line"/>
      <point x="729.2857142857143" y="428.57142857142856" type="line"/>
      <point x="729.2857142857143" y="444.57142857142856" type="line"/>
      <point x="485.92857142857144" y="444.57142857142856" type="line"/>
      <point x="485.92857142857144" y="428.57142857142856" type="line"/>
      <point x="583.9285714285714" y="389.57142857142856" type="line"/>
      <point x="510.14285714285717" y="177.0"/>
      <point x="412.07142857142856" y="58.57142857142857"/>
      <point x="281.7142857142857" y="58.57142857142857" type="curve" smooth="yes"/>
      <point x="202.3769551615" y="58.57142857142857"/>
      <point x="147.35714285714286" y="108.1705545775"/>
      <point x="147.35714285714286" y="193.78571428571428" type="curve" smooth="yes"/>
      <point x="147.35714285714286" y="252.7369411652857"/>
      <point x="157.99140220571428" y="289.1177494589286"/>
      <point x="217.35714285714286" y="336.35714285714283" type="curve"/>
      <point x="191.92857142857142" y="359.42857142857144" type="line"/>
      <point x="80.14285714285714" y="303.64285714285717"/>
      <point x="30.0" y="235.14285714285714"/>
      <point x="30.0" y="159.78571428571428" type="curve" smooth="yes"/>
      <point x="30.0" y="55.07142857142857"/>
      <point x="111.64285714285714" y="-10.0"/>
    </contour>
  </outline>
</glyph>
<glyph name="quotesingle" format="2">
  <advance width="250.0"/>
  <unicode hex="0027"/>
  <outline>
    <contour>
      <point x="113.57142857142858" y="490.0" type="line"/>
      <point x="136.42857142857144" y="490.0" type="line"/>
      <point x="173.57142857142858" y="740.0" type="line"/>
      <point x="76.42857142857143" y="740.0" type="line"/>
    </contour>
  </outline>
</glyph>
<glyph name="parenleft" format="2">
  <advance width="257.14285714285717"/>
  <unicode hex="0028"/>
  <outline>
    <contour>
      <point x="224.0" y="-150.0" type="curve"/>
      <point x="246.78571428571428" y="-150.0" type="line"/>
      <point x="246.78571428571428" y="-147.0" type="line"/>
      <point x="166.42693071428573" y="-16.416976696535716"/>
      <point x="122.0" y="112.0"/>
      <point x="122.0" y="295.0" type="curve" smooth="yes"/>
      <point x="122.0" y="478.0"/>
      <point x="166.4191643617857" y="608.4135201217857"/>
      <point x="246.78571428571428" y="737.0" type="curve"/>
      <point x="246.78571428571428" y="740.0" type="line"/>
      <point x="224.0" y="740.0" type="line"/>
      <point x="111.14285714285714" y="607.9285714285714"/>
      <point x="51.42857142857143" y="460.0"/>
      <point x="51.42857142857143" y="295.0" type="curve" smooth="yes"/>
      <point x="51.42857142857143" y="130.0"/>
      <point x="111.14285714285714" y="-17.928571428571427"/>
    </contour>
  </outline>
</glyph>
<glyph name="parenright" format="2">
  <advance width="257.14285714285717"/>
  <unicode hex="0029"/>
  <outline>
    <contour>
      <point x="10.357142857142858" y="-150.0" type="line"/>
      <point x="33.14285714285714" y="-150.0" type="line"/>
      <point x="146.0" y="-17.928571428571427"/>
      <point x="205.71428571428572" y="130.0"/>
      <point x="205.71428571428572" y="295.0" type="curve" smooth="yes"/>
      <point x="205.71428571428572" y="460.0"/>
      <point x="146.0" y="607.9285714285714"/>
      <point x="33.14285714285714" y="740.0" type="curve"/>
      <point x="10.357142857142858" y="740.0" type="line"/>
      <point x="10.357142857142858" y="737.0" type="line"/>
      <point x="90.71428571428571" y="608.2857142857143"/>
      <point x="135.14285714285714" y="478.0"/>
      <point x="135.14285714285714" y="295.0" type="curve" smooth="yes"/>
      <point x="135.14285714285714" y="112.0"/>
      <point x="90.71428571428571" y="-16.285714285714285"/>
      <point x="10.357142857142858" y="-147.0" type="curve"/>
    </contour>
  </outline>
</glyph>
<glyph name="asterisk" format="2">
  <advance width="378.57142857142856"/>
  <unicode hex="002A"/>
  <outline>
    <contour>
      <point x="64.64285714285714" y="470.85714285714283" type="line"/>
      <point x="124.5" y="429.5" type="line"/>
      <point x="189.28571428571428" y="554.9285714285714" type="line"/>
      <point x="254.07142857142858" y="429.5" type="line"/>
      <point x="313.92857142857144" y="470.85714285714283" type="line"/>
      <point x="209.35714285714286" y="573.6428571428571" type="line"/>
      <point x="351.7142857142857" y="595.3571428571429" type="line"/>
      <point x="328.5" y="664.0" type="line"/>
      <point x="201.0" y="599.0714285714286" type="line"/>
      <point x="224.64285714285714" y="740.0" type="line"/>
      <point x="153.92857142857142" y="740.0" type="line"/>
      <point x="177.57142857142858" y="599.0714285714286" type="line"/>
      <point x="50.07142857142857" y="664.0" type="line"/>
      <point x="26.857142857142858" y="595.3571428571429" type="line"/>
      <point x="169.21428571428572" y="573.6428571428571" type="line"/>
    </contour>
  </outline>
</glyph>
<glyph name="comma" format="2">
  <advance width="260.7142857142857"/>
  <unicode hex="002C"/>
  <outline>
    <contour>
      <point x="57.785714285714285" y="-209.64285714285714" type="line"/>
      <point x="170.35714285714286" y="-162.21428571428572"/>
      <point x="211.85714285714286" y="-89.64285714285714"/>
      <point x="211.85714285714286" y="-16.785714285714285" type="curve" smooth="yes"/>
      <point x="211.85714285714286" y="35.714285714285715"/>
      <point x="185.35714285714286" y="84.28571428571428"/>
      <point x="139.07142857142858" y="110.42857142857143" type="curve" smooth="yes"/>
      <point x="128.07142857142858" y="116.42857142857143"/>
      <point x="120.07142857142857" y="119.42857142857143"/>
      <point x="114.07142857142857" y="119.42857142857143" type="curve" smooth="yes"/>
      <point x="103.07142857142857" y="119.42857142857143"/>
      <point x="98.42857142857143" y="112.78571428571428"/>
      <point x="89.07142857142857" y="97.42857142857143" type="curve" smooth="yes"/>
      <point x="52.57142857142857" y="37.07142857142857" type="line"/>
      <point x="55.92857142857143" y="25.642857142857142" type="line"/>
      <point x="89.92857142857143" y="6.928571428571428" type="line" smooth="yes"/>
      <point x="121.14285714285714" y="-10.714285714285715"/>
      <point x="141.0" y="-35.142857142857146"/>
      <point x="141.0" y="-73.21428571428571" type="curve" smooth="yes"/>
      <point x="141.0" y="-111.64285714285714"/>
      <point x="119.14285714285714" y="-151.5"/>
      <point x="57.785714285714285" y="-182.92857142857144" type="curve"/>
    </contour>
  </outline>
</glyph>
<glyph name="hyphen" format="2">
  <advance width="371.42857142857144"/>
  <unicode hex="002D"/>
  <outline>
    <contour>
      <point x="48.214285714285715" y="222.0" type="line"/>
      <point x="323.2142857142857" y="222.0" type="line"/>
      <point x="323.2142857142857" y="292.0" type="line"/>
      <point x="48.214285714285715" y="292.0" type="line"/>
    </contour>
  </outline>
</glyph>
<glyph name="period" format="2">
  <advance width="260.7142857142857"/>
  <unicode hex="002E"/>
  <outline>
    <contour>
      <point x="130.35714285714286" y="-5.0" type="curve" smooth="yes"/>
      <point x="167.64285714285714" y="-5.0"/>
      <point x="199.21428571428572" y="26.571428571428573"/>
      <point x="199.21428571428572" y="63.85714285714286" type="curve" smooth="yes"/>
      <point x="199.21428571428572" y="101.14285714285714"/>
      <point x="167.64285714285714" y="132.71428571428572"/>
      <point x="130.35714285714286" y="132.71428571428572" type="curve" smooth="yes"/>
      <point x="93.07142857142857" y="132.71428571428572"/>
      <point x="61.5" y="101.14285714285714"/>
      <point x="61.5" y="63.85714285714286" type="curve" smooth="yes"/>
      <point x="61.5" y="26.571428571428573"/>
      <point x="93.07142857142857" y="-5.0"/>
    </contour>
  </outline>
</glyph>
<glyph name="zero" format="2">
  <advance width="535.7142857142857"/>
  <unicode hex="0030"/>
  <outline>
    <contour>
      <point x="267.85714285714283" y="-10.0" type="curve" smooth="yes"/>
      <point x="405.92857142857144" y="-10.0"/>
      <point x="503.42857142857144" y="135.0"/>
      <point x="503.42857142857144" y="330.0" type="curve" smooth="yes"/>
      <point x="503.42857142857144" y="540.0"/>
      <point x="416.92857142857144" y="670.0"/>
      <point x="267.85714285714283" y="670.0" type="curve" smooth="yes"/>
      <point x="129.14285714285714" y="670.0"/>
      <point x="32.64285714285714" y="525.0"/>
      <point x="32.64285714285714" y="330.0" type="curve" smooth="yes"/>
      <point x="32.64285714285714" y="120.0"/>
      <point x="119.14285714285714" y="-10.0"/>
    </contour>
    <contour>
      <point x="286.35714285714283" y="38.07142857142857" type="curve" smooth="yes"/>
      <point x="199.71428571428572" y="38.07142857142857"/>
      <point x="162.14285714285714" y="175.28571428571428"/>
      <point x="162.14285714285714" y="363.0" type="curve" smooth="yes"/>
      <point x="162.14285714285714" y="517.2857142857143"/>
      <point x="193.57142857142856" y="622.5714285714286"/>
      <point x="253.0" y="622.5714285714286" type="curve" smooth="yes"/>
      <point x="337.35714285714283" y="622.5714285714286"/>
      <point x="373.92857142857144" y="485.7142857142857"/>
      <point x="373.92857142857144" y="299.0" type="curve" smooth="yes"/>
      <point x="373.92857142857144" y="147.64285714285714"/>
      <point x="343.7857142857143" y="38.07142857142857"/>
    </contour>
  </outline>
</glyph>
<glyph name="one" format="2">
  <advance width="535.7142857142857"/>
  <unicode hex="0031"/>
  <outline>
    <contour>
      <point x="149.78571428571428" y="0.0" type="line"/>
      <point x="446.92857142857144" y="0.0" type="line"/>
      <point x="446.92857142857144" y="16.0" type="line"/>
      <point x="363.7142857142857" y="53.14285714285714" type="line"/>
      <point x="363.7142857142857" y="660.0" type="line"/>
      <point x="318.7142857142857" y="660.0" type="line"/>
      <point x="73.35714285714286" y="510.0" type="line"/>
      <point x="73.35714285714286" y="471.7857142857143" type="line"/>
      <point x="243.0" y="552.2857142857143" type="line"/>
      <point x="243.0" y="53.14285714285714" type="line"/>
      <point x="149.78571428571428" y="16.0" type="line"/>
    </contour>
  </outline>
</glyph>
<glyph name="two" format="2">
  <advance width="535.7142857142857"/>
  <unicode hex="0032"/>
  <outline>
    <contour>
      <point x="52.0" y="0.0" type="line"/>
      <point x="487.7142857142857" y="0.0" type="line"/>
      <point x="497.7142857142857" y="198.28571428571428" type="line"/>
      <point x="481.7142857142857" y="198.28571428571428" type="line"/>
      <point x="427.07142857142856" y="99.85714285714286" type="line"/>
      <point x="144.42857142857144" y="99.85714285714286" type="line"/>
      <point x="130.92857142857144" y="60.35714285714286" type="line"/>
      <point x="422.2857142857143" y="336.2857142857143"/>
      <point x="477.7142857142857" y="381.5"/>
      <point x="477.7142857142857" y="493.0" type="curve" smooth="yes"/>
      <point x="477.7142857142857" y="591.0714285714286"/>
      <point x="398.07142857142856" y="670.0"/>
      <point x="285.64285714285717" y="670.0" type="curve" smooth="yes"/>
      <point x="204.78571428571428" y="670.0"/>
      <point x="164.92857142857142" y="645.1428571428571"/>
      <point x="112.57142857142857" y="607.7857142857143" type="curve" smooth="yes"/>
      <point x="62.714285714285715" y="572.0714285714286"/>
      <point x="41.0" y="533.3571428571429"/>
      <point x="41.0" y="495.85714285714283" type="curve" smooth="yes"/>
      <point x="41.0" y="458.85714285714283"/>
      <point x="54.0" y="453.85714285714283"/>
      <point x="81.0" y="453.85714285714283" type="curve" smooth="yes"/>
      <point x="140.21428571428572" y="453.85714285714283" type="line"/>
      <point x="146.28571428571428" y="461.92857142857144" type="line"/>
      <point x="146.28571428571428" y="508.35714285714283" type="line" smooth="yes"/>
      <point x="146.28571428571428" y="581.7142857142857"/>
      <point x="181.71428571428572" y="621.2142857142857"/>
      <point x="247.5" y="621.2142857142857" type="curve" smooth="yes"/>
      <point x="307.7857142857143" y="621.2142857142857"/>
      <point x="345.0" y="571.2142857142857"/>
      <point x="345.0" y="499.92857142857144" type="curve" smooth="yes"/>
      <point x="345.0" y="372.5"/>
      <point x="330.2142857142857" y="341.2142857142857"/>
      <point x="52.0" y="32.14285714285714" type="curve"/>
    </contour>
  </outline>
</glyph>
<glyph name="three" format="2">
  <advance width="535.7142857142857"/>
  <unicode hex="0033"/>
  <outline>
    <contour>
      <point x="257.57142857142856" y="-10.0" type="curve" smooth="yes"/>
      <point x="391.0" y="-10.0"/>
      <point x="506.6428571428571" y="72.71428571428571"/>
      <point x="506.6428571428571" y="179.28571428571428" type="curve" smooth="yes"/>
      <point x="506.6428571428571" y="298.07142857142856"/>
      <point x="408.64285714285717" y="363.7142857142857"/>
      <point x="231.71428571428572" y="363.7142857142857" type="curve"/>
      <point x="226.57142857142858" y="350.5" type="line"/>
      <point x="362.7142857142857" y="350.5"/>
      <point x="471.64285714285717" y="418.14285714285717"/>
      <point x="471.64285714285717" y="512.7142857142857" type="curve" smooth="yes"/>
      <point x="471.64285714285717" y="607.0714285714286"/>
      <point x="387.5" y="670.0"/>
      <point x="276.64285714285717" y="670.0" type="curve" smooth="yes"/>
      <point x="212.07142857142858" y="670.0"/>
      <point x="172.85714285714286" y="654.5714285714286"/>
      <point x="121.07142857142857" y="621.2142857142857" type="curve" smooth="yes"/>
      <point x="75.64285714285714" y="593.2857142857143"/>
      <point x="52.285714285714285" y="558.1428571428571"/>
      <point x="52.285714285714285" y="522.0" type="curve" smooth="yes"/>
      <point x="52.285714285714285" y="488.85714285714283"/>
      <point x="65.28571428571429" y="484.5"/>
      <point x="91.64285714285714" y="484.5" type="curve" smooth="yes"/>
      <point x="148.28571428571428" y="484.5" type="line"/>
      <point x="156.28571428571428" y="493.2142857142857" type="line"/>
      <point x="156.28571428571428" y="533.8571428571429" type="line"/>
      <point x="156.28571428571428" y="589.1940035275"/>
      <point x="194.5" y="623.5714285714286"/>
      <point x="246.07142857142858" y="623.5714285714286" type="curve" smooth="yes"/>
      <point x="305.57142857142856" y="623.5714285714286"/>
      <point x="338.92857142857144" y="587.9285714285714"/>
      <point x="338.92857142857144" y="507.5" type="curve" smooth="yes"/>
      <point x="338.92857142857144" y="423.5"/>
      <point x="283.5" y="364.7857142857143"/>
      <point x="197.42857142857142" y="364.7857142857143" type="curve"/>
      <point x="156.85714285714286" y="364.7857142857143" type="line"/>
      <point x="156.85714285714286" y="318.64285714285717" type="line"/>
      <point x="212.28571428571428" y="318.64285714285717" type="line" smooth="yes"/>
      <point x="331.2142857142857" y="318.64285714285717"/>
      <point x="372.92857142857144" y="264.5"/>
      <point x="372.92857142857144" y="172.0" type="curve" smooth="yes"/>
      <point x="372.92857142857144" y="92.78571428571429"/>
      <point x="330.0182215742857" y="36.785714285714285"/>
      <point x="251.35714285714286" y="36.785714285714285" type="curve" smooth="yes"/>
      <point x="178.44470046071427" y="36.785714285714285"/>
      <point x="139.5" y="66.35812133071428"/>
      <point x="139.5" y="115.92857142857143" type="curve" smooth="yes"/>
      <point x="139.5" y="150.0" type="line"/>
      <point x="131.07142857142856" y="159.14285714285714" type="line"/>
      <point x="72.92857142857143" y="159.14285714285714" type="line" smooth="yes"/>
      <point x="47.857142857142854" y="159.14285714285714"/>
      <point x="35.5" y="154.78571428571428"/>
      <point x="35.5" y="123.57142857142857" type="curve" smooth="yes"/>
      <point x="35.5" y="90.57142857142857"/>
      <point x="59.142857142857146" y="61.5"/>
      <point x="96.5" y="35.285714285714285" type="curve" smooth="yes"/>
      <point x="141.35714285714286" y="4.0"/>
      <point x="196.78571428571428" y="-10.0"/>
    </contour>
  </outline>
</glyph>
<glyph name="four" format="2">
  <advance width="535.7142857142857"/>
  <unicode hex="0034"/>
  <outline>
    <contour>
      <point x="190.5" y="0.0" type="line"/>
      <point x="487.6428571428571" y="0.0" type="line"/>
      <point x="487.6428571428571" y="16.0" type="line"/>
      <point x="404.42857142857144" y="53.14285714285714" type="line"/>
      <point x="404.42857142857144" y="660.0" type="line"/>
      <point x="359.42857142857144" y="660.0" type="line"/>
      <point x="12.285714285714286" y="208.0" type="line"/>
      <point x="12.285714285714286" y="182.28571428571428" type="line"/>
      <point x="523.4285714285714" y="182.28571428571428" type="line"/>
      <point x="523.4285714285714" y="256.42857142857144" type="line"/>
      <point x="78.85714285714286" y="256.42857142857144" type="line"/>
      <point x="82.42857142857143" y="220.57142857142858" type="line"/>
      <point x="324.5" y="545.6428571428571" type="line"/>
      <point x="283.7142857142857" y="545.6428571428571" type="line"/>
      <point x="283.7142857142857" y="53.14285714285714" type="line"/>
      <point x="190.5" y="16.0" type="line"/>
    </contour>
  </outline>
</glyph>
<glyph name="five" format="2">
  <advance width="535.7142857142857"/>
  <unicode hex="0035"/>
  <outline>
    <contour>
      <point x="214.71428571428572" y="-10.0" type="curve" smooth="yes"/>
      <point x="368.4828141782143" y="-10.0"/>
      <point x="480.42857142857144" y="86.62044231918708"/>
      <point x="480.42857142857144" y="227.64285714285714" type="curve" smooth="yes"/>
      <point x="480.42857142857144" y="339.2247799593771"/>
      <point x="401.5" y="435.5"/>
      <point x="209.07142857142858" y="435.5" type="curve" smooth="yes"/>
      <point x="178.0" y="435.5"/>
      <point x="153.78571428571428" y="433.7857142857143"/>
      <point x="129.78571428571428" y="431.7857142857143" type="curve"/>
      <point x="139.0" y="403.7857142857143" type="line"/>
      <point x="139.0" y="609.2142857142857" type="line"/>
      <point x="124.0" y="568.7142857142857" type="line"/>
      <point x="428.57142857142856" y="568.7142857142857" type="line"/>
      <point x="428.57142857142856" y="660.0" type="line"/>
      <point x="87.78571428571429" y="660.0" type="line"/>
      <point x="87.78571428571429" y="325.7142857142857" type="line"/>
      <point x="124.42857142857143" y="331.7142857142857"/>
      <point x="152.85714285714286" y="334.7142857142857"/>
      <point x="183.71428571428572" y="334.7142857142857" type="curve" smooth="yes"/>
      <point x="322.0" y="334.7142857142857"/>
      <point x="372.07142857142856" y="270.11416861813615"/>
      <point x="372.07142857142856" y="181.42857142857142" type="curve" smooth="yes"/>
      <point x="372.07142857142856" y="94.22233342275"/>
      <point x="318.7857142857143" y="37.214285714285715"/>
      <point x="247.14285714285714" y="37.214285714285715" type="curve" smooth="yes"/>
      <point x="194.3517316017857" y="37.214285714285715"/>
      <point x="164.08680074928571" y="63.37612688592857"/>
      <point x="142.64285714285714" y="104.07142857142857" type="curve" smooth="yes"/>
      <point x="131.92857142857144" y="124.64285714285714" type="line"/>
      <point x="119.78571428571429" y="124.64285714285714" type="line"/>
      <point x="74.78571428571429" y="90.14285714285714" type="line" smooth="yes"/>
      <point x="62.785714285714285" y="81.14285714285714"/>
      <point x="56.785714285714285" y="72.14285714285714"/>
      <point x="56.785714285714285" y="63.142857142857146" type="curve" smooth="yes"/>
      <point x="56.785714285714285" y="57.142857142857146"/>
      <point x="59.42857142857143" y="50.5"/>
      <point x="64.78571428571429" y="43.142857142857146" type="curve" smooth="yes"/>
      <point x="90.05710063217856" y="7.807790510177143"/>
      <point x="142.88252356785713" y="-10.0"/>
    </contour>
  </outline>
</glyph>
<glyph name="six" format="2">
  <advance width="535.7142857142857"/>
  <unicode hex="0036"/>
  <outline>
    <contour>
      <point x="271.42857142857144" y="-10.0" type="curve" smooth="yes"/>
      <point x="427.14285714285717" y="-10.0"/>
      <point x="505.2857142857143" y="92.57142857142857"/>
      <point x="505.2857142857143" y="201.35714285714286" type="curve" smooth="yes"/>
      <point x="505.2857142857143" y="309.2142857142857"/>
      <point x="437.7142857142857" y="391.57142857142856"/>
      <point x="327.8571428571429" y="391.57142857142856" type="curve" smooth="yes"/>
      <point x="224.57142857142856" y="391.57142857142856"/>
      <point x="154.28571428571428" y="326.07142857142856"/>
      <point x="131.28571428571428" y="228.07142857142858" type="curve"/>
      <point x="141.28571428571428" y="194.78571428571428" type="line"/>
      <point x="152.42553239785715" y="267.7017243867857"/>
      <point x="203.2518409425" y="320.2857142857143"/>
      <point x="271.3571428571429" y="320.2857142857143" type="curve" smooth="yes"/>
      <point x="342.9714285714286" y="320.2857142857143"/>
      <point x="377.57142857142856" y="266.02551020392855"/>
      <point x="377.57142857142856" y="176.14285714285714" type="curve" smooth="yes"/>
      <point x="377.57142857142856" y="110.99897225071429"/>
      <point x="346.2142857142857" y="37.42857142857143"/>
      <point x="274.85714285714283" y="37.42857142857143" type="curve" smooth="yes"/>
      <point x="210.71428571428572" y="37.42857142857143"/>
      <point x="166.28571428571428" y="105.5173945225"/>
      <point x="166.28571428571428" y="243.0" type="curve" smooth="yes"/>
      <point x="166.28571428571428" y="432.962207105"/>
      <point x="261.9257916932143" y="580.4559888553572"/>
      <point x="445.3571428571429" y="637.4285714285714" type="curve"/>
      <point x="445.3571428571429" y="670.0" type="line"/>
      <point x="192.2715328107143" y="611.5090708428571"/>
      <point x="35.57142857142857" y="454.9507159507143"/>
      <point x="35.57142857142857" y="240.07142857142858" type="curve" smooth="yes"/>
      <point x="35.57142857142857" y="92.03756402960714"/>
      <point x="129.71428571428572" y="-10.0"/>
    </contour>
  </outline>
</glyph>
<glyph name="seven" format="2">
  <advance width="535.7142857142857"/>
  <unicode hex="0037"/>
  <outline>
    <contour>
      <point x="98.35714285714286" y="0.0" type="curve"/>
      <point x="227.14285714285714" y="0.0" type="line"/>
      <point x="268.85714285714283" y="206.57142857142856"/>
      <point x="390.8571428571429" y="444.2142857142857"/>
      <point x="486.2857142857143" y="629.2857142857143" type="curve"/>
      <point x="486.2857142857143" y="660.0" type="line"/>
      <point x="54.857142857142854" y="660.0" type="line"/>
      <point x="54.857142857142854" y="553.3571428571429" type="line"/>
      <point x="428.0" y="553.3571428571429" type="line"/>
      <point x="439.7142857142857" y="626.0" type="line"/>
      <point x="243.85714285714286" y="297.57142857142856"/>
      <point x="171.46929375964285" y="172.26424596178572"/>
    </contour>
  </outline>
</glyph>
<glyph name="eight" format="2">
  <advance width="535.7142857142857"/>
  <unicode hex="0038"/>
  <outline>
    <contour>
      <point x="266.2857142857143" y="-10.0" type="curve" smooth="yes"/>
      <point x="385.715672677" y="-10.0"/>
      <point x="495.07142857142856" y="62.5"/>
      <point x="495.07142857142856" y="178.5" type="curve" smooth="yes"/>
      <point x="495.07142857142856" y="267.2857142857143"/>
      <point x="439.6185162992143" y="318.38714977085715"/>
      <point x="310.07142857142856" y="386.64285714285717" type="curve" smooth="yes"/>
      <point x="194.53486709714286" y="447.5568160425"/>
      <point x="175.64285714285714" y="483.2857142857143"/>
      <point x="175.64285714285714" y="535.0" type="curve" smooth="yes"/>
      <point x="175.64285714285714" y="590.4285714285714"/>
      <point x="214.71428571428572" y="624.0"/>
      <point x="267.64285714285717" y="624.0" type="curve" smooth="yes"/>
      <point x="328.8903061223571" y="624.0"/>
      <point x="371.35714285714283" y="585.2142857142857"/>
      <point x="371.35714285714283" y="503.57142857142856" type="curve" smooth="yes"/>
      <point x="371.35714285714283" y="448.64285714285717"/>
      <point x="339.31310478064285" y="409.2408131247857"/>
      <point x="288.35714285714283" y="380.35714285714283" type="curve"/>
      <point x="313.2857142857143" y="350.35714285714283" type="line"/>
      <point x="408.246790897" y="394.1559275392857"/>
      <point x="473.7142857142857" y="444.2857142857143"/>
      <point x="473.7142857142857" y="506.64285714285717" type="curve" smooth="yes"/>
      <point x="473.7142857142857" y="601.1428571428571"/>
      <point x="383.13759398492857" y="670.0"/>
      <point x="273.7857142857143" y="670.0" type="curve" smooth="yes"/>
      <point x="161.85714285714286" y="670.0"/>
      <point x="60.5" y="589.2142857142857"/>
      <point x="60.5" y="492.92857142857144" type="curve" smooth="yes"/>
      <point x="60.5" y="409.7857142857143"/>
      <point x="96.35714285714286" y="361.07142857142856"/>
      <point x="212.35714285714286" y="297.7142857142857" type="curve" smooth="yes"/>
      <point x="330.2994586592143" y="234.1885156512143"/>
      <point x="379.2142857142857" y="207.35714285714286"/>
      <point x="379.2142857142857" y="136.21428571428572" type="curve" smooth="yes"/>
      <point x="379.2142857142857" y="74.0"/>
      <point x="337.54261704649997" y="34.07142857142857"/>
      <point x="266.7142857142857" y="34.07142857142857" type="curve" smooth="yes"/>
      <point x="197.35714285714286" y="34.07142857142857"/>
      <point x="148.07142857142856" y="83.36068476978572"/>
      <point x="148.07142857142856" y="164.78571428571428" type="curve" smooth="yes"/>
      <point x="148.07142857142856" y="224.84843205571428"/>
      <point x="160.53461584607143" y="262.4458793517857"/>
      <point x="216.85714285714286" y="301.2142857142857" type="curve"/>
      <point x="198.71428571428572" y="332.42857142857144" type="line"/>
      <point x="70.71428571428571" y="271.2857142857143"/>
      <point x="40.64285714285714" y="209.92857142857142"/>
      <point x="40.64285714285714" y="146.78571428571428" type="curve" smooth="yes"/>
      <point x="40.64285714285714" y="51.357142857142854"/>
      <point x="142.85714285714286" y="-10.0"/>
    </contour>
  </outline>
</glyph>
<glyph name="nine" format="2">
  <advance width="535.7142857142857"/>
  <unicode hex="0039"/>
  <outline>
    <contour>
      <point x="91.0" y="-10.0" type="line"/>
      <point x="344.14285714285717" y="48.5"/>
      <point x="500.7857142857143" y="204.92857142857142"/>
      <point x="500.7857142857143" y="419.92857142857144" type="curve" smooth="yes"/>
      <point x="500.7857142857143" y="567.8571428571429"/>
      <point x="406.64285714285717" y="670.0"/>
      <point x="264.92857142857144" y="670.0" type="curve" smooth="yes"/>
      <point x="109.21428571428571" y="670.0"/>
      <point x="31.07142857142857" y="567.4285714285714"/>
      <point x="31.07142857142857" y="458.64285714285717" type="curve" smooth="yes"/>
      <point x="31.07142857142857" y="350.7857142857143"/>
      <point x="98.64285714285714" y="268.42857142857144"/>
      <point x="208.5" y="268.42857142857144" type="curve" smooth="yes"/>
      <point x="311.7857142857143" y="268.42857142857144"/>
      <point x="382.07142857142856" y="333.92857142857144"/>
      <point x="405.07142857142856" y="431.92857142857144" type="curve"/>
      <point x="395.07142857142856" y="465.2142857142857" type="line"/>
      <point x="383.92857142857144" y="392.2857142857143"/>
      <point x="332.92857142857144" y="339.7142857142857"/>
      <point x="265.0" y="339.7142857142857" type="curve" smooth="yes"/>
      <point x="193.28571428571428" y="339.7142857142857"/>
      <point x="158.78571428571428" y="394.14285714285717"/>
      <point x="158.78571428571428" y="483.85714285714283" type="curve" smooth="yes"/>
      <point x="158.78571428571428" y="548.8571428571429"/>
      <point x="190.14285714285714" y="622.5714285714286"/>
      <point x="261.5" y="622.5714285714286" type="curve" smooth="yes"/>
      <point x="325.64285714285717" y="622.5714285714286"/>
      <point x="370.07142857142856" y="554.5714285714286"/>
      <point x="370.07142857142856" y="417.0" type="curve" smooth="yes"/>
      <point x="370.07142857142856" y="227.0"/>
      <point x="274.2857142857143" y="79.5"/>
      <point x="91.0" y="22.571428571428573" type="curve"/>
    </contour>
  </outline>
</glyph>
<glyph name="equal" format="2">
  <advance width="535.7142857142857"/>
  <unicode hex="003D"/>
  <outline>
    <contour>
      <point x="57.85714285714286" y="347.57142857142856" type="line"/>
      <point x="477.85714285714283" y="347.57142857142856" type="line"/>
      <point x="477.85714285714283" y="400.42857142857144" type="line"/>
      <point x="57.85714285714286" y="400.42857142857144" type="line"/>
    </contour>
    <contour>
      <point x="57.85714285714286" y="143.57142857142856" type="line"/>
      <point x="477.85714285714283" y="143.57142857142856" type="line"/>
      <point x="477.85714285714283" y="196.42857142857144" type="line"/>
      <point x="57.85714285714286" y="196.42857142857144" type="line"/>
    </contour>
  </outline>
</glyph>
<glyph name="greater" format="2">
  <advance width="535.7142857142857"/>
  <unicode hex="003E"/>
  <outline>
    <contour>
      <point x="57.85714285714286" y="62.0" type="line"/>
      <point x="477.85714285714283" y="247.0" type="line"/>
      <point x="477.85714285714283" y="297.0" type="line"/>
      <point x="57.85714285714286" y="482.0" type="line"/>
      <point x="57.85714285714286" y="423.42857142857144" type="line"/>
      <point x="447.85714285714283" y="251.42857142857142" type="line"/>
      <point x="447.85714285714283" y="292.57142857142856" type="line"/>
      <point x="57.85714285714286" y="120.57142857142857" type="line"/>
    </contour>
  </outline>
</glyph>
<glyph name="question" format="2">
  <advance width="479.0"/>
  <unicode hex="003F"/>
  <outline>
    <contour>
      <point x="197.14285714285714" y="210.71428571428572" type="line"/>
      <point x="223.92857142857142" y="210.71428571428572" type="line"/>
      <point x="241.71428571428572" y="337.85714285714283" type="line"/>
      <point x="215.0" y="282.07142857142856" type="line"/>
      <point x="365.6427203578571" y="324.5714267475"/>
      <point x="435.14285714285717" y="398.33016717321425"/>
      <point x="435.14285714285717" y="493.0" type="curve" smooth="yes"/>
      <point x="435.14285714285717" y="594.6904761903571"/>
      <point x="359.7226890757143" y="670.0"/>
      <point x="246.35714285714286" y="670.0" type="curve" smooth="yes"/>
      <point x="180.90051020392858" y="670.0"/>
      <point x="142.31273320714286" y="647.2662486660714"/>
      <point x="95.28571428571429" y="612.7857142857143" type="curve" smooth="yes"/>
      <point x="55.357142857142854" y="584.0714285714286"/>
      <point x="34.214285714285715" y="548.2857142857143"/>
      <point x="34.214285714285715" y="509.7857142857143" type="curve" smooth="yes"/>
      <point x="34.214285714285715" y="475.5"/>
      <point x="45.5" y="470.85714285714283"/>
      <point x="69.35714285714286" y="470.85714285714283" type="curve" smooth="yes"/>
      <point x="129.64285714285714" y="470.85714285714283" type="line"/>
      <point x="138.71428571428572" y="481.92857142857144" type="line"/>
      <point x="138.71428571428572" y="518.7142857142857" type="line" smooth="yes"/>
      <point x="138.71428571428572" y="590.0714285714286"/>
      <point x="172.14285714285714" y="626.4285714285714"/>
      <point x="224.57142857142858" y="626.4285714285714" type="curve" smooth="yes"/>
      <point x="282.14285714285717" y="626.4285714285714"/>
      <point x="326.0" y="587.0535714285714"/>
      <point x="326.0" y="503.85714285714283" type="curve" smooth="yes"/>
      <point x="326.0" y="435.15991471214284"/>
      <point x="271.21080289357144" y="388.5712730882143"/>
      <point x="167.57142857142856" y="364.2857142857143" type="curve"/>
    </contour>
    <contour>
      <point x="209.64285714285714" y="-5.0" type="curve" smooth="yes"/>
      <point x="246.28571428571428" y="-5.0"/>
      <point x="278.5" y="27.214285714285715"/>
      <point x="278.5" y="63.85714285714286" type="curve" smooth="yes"/>
      <point x="278.5" y="101.14285714285714"/>
      <point x="246.28571428571428" y="132.71428571428572"/>
      <point x="209.64285714285714" y="132.71428571428572" type="curve" smooth="yes"/>
      <point x="172.35714285714286" y="132.71428571428572"/>
      <point x="140.78571428571428" y="101.14285714285714"/>
      <point x="140.78571428571428" y="63.85714285714286" type="curve" smooth="yes"/>
      <point x="140.78571428571428" y="27.214285714285715"/>
      <point x="172.35714285714286" y="-5.0"/>
    </contour>
  </outline>
</glyph>
<glyph name="at" format="2">
  <advance width="809.7857142857143"/>
  <unicode hex="0040"/>
  <outline>
    <contour>
      <point x="371.7857142857143" y="-118.0" type="curve" smooth="yes"/>
      <point x="473.64285714285717" y="-118.0"/>
      <point x="546.8571428571429" y="-92.71428571428571"/>
      <point x="616.8571428571429" y="-48.714285714285715" type="curve"/>
      <point x="606.7857142857143" y="-27.0" type="line"/>
      <point x="548.8571428571429" y="-66.85714285714286"/>
      <point x="485.7857142857143" y="-87.78571428571428"/>
      <point x="398.7857142857143" y="-87.78571428571428" type="curve" smooth="yes"/>
      <point x="240.64285714285714" y="-87.78571428571428"/>
      <point x="130.78571428571428" y="13.142857142857142"/>
      <point x="130.78571428571428" y="186.0" type="curve" smooth="yes"/>
      <point x="130.78571428571428" y="378.57142857142856"/>
      <point x="251.64285714285714" y="533.5"/>
      <point x="437.7857142857143" y="533.5" type="curve" smooth="yes"/>
      <point x="597.2142857142857" y="533.5"/>
      <point x="700.9285714285714" y="422.57142857142856"/>
      <point x="700.9285714285714" y="281.0" type="curve" smooth="yes"/>
      <point x="700.9285714285714" y="169.42857142857144"/>
      <point x="637.0714285714286" y="66.14285714285714"/>
      <point x="569.0" y="66.14285714285714" type="curve" smooth="yes"/>
      <point x="540.2142857142857" y="66.14285714285714"/>
      <point x="535.1428571428571" y="80.14285714285714"/>
      <point x="544.7142857142857" y="133.0" type="curve" smooth="yes"/>
      <point x="597.0" y="425.7857142857143" type="line"/>
      <point x="575.9285714285714" y="425.7857142857143" type="line"/>
      <point x="519.1428571428571" y="399.2857142857143" type="line"/>
      <point x="554.2857142857143" y="394.2142857142857" type="line"/>
      <point x="536.6428571428571" y="414.5"/>
      <point x="501.2857142857143" y="429.0"/>
      <point x="460.7857142857143" y="429.0" type="curve" smooth="yes"/>
      <point x="342.0" y="429.0"/>
      <point x="222.92857142857142" y="291.5"/>
      <point x="222.92857142857142" y="136.0" type="curve" smooth="yes"/>
      <point x="222.92857142857142" y="60.642857142857146"/>
      <point x="257.57142857142856" y="21.0"/>
      <point x="303.92857142857144" y="21.0" type="curve" smooth="yes"/>
      <point x="359.0" y="21.0"/>
      <point x="407.14285714285717" y="57.57142857142857"/>
      <point x="461.64285714285717" y="145.21428571428572" type="curve"/>
      <point x="471.7857142857143" y="189.42857142857144" type="line"/>
      <point x="435.57142857142856" y="128.21428571428572"/>
      <point x="395.07142857142856" y="91.14285714285714"/>
      <point x="362.42857142857144" y="91.14285714285714" type="curve" smooth="yes"/>
      <point x="330.57142857142856" y="91.14285714285714"/>
      <point x="319.3571428571429" y="112.42857142857143"/>
      <point x="319.3571428571429" y="177.14285714285714" type="curve" smooth="yes"/>
      <point x="319.3571428571429" y="293.2142857142857"/>
      <point x="369.2857142857143" y="391.7857142857143"/>
      <point x="432.57142857142856" y="391.7857142857143" type="curve" smooth="yes"/>
      <point x="464.0" y="391.7857142857143"/>
      <point x="480.2142857142857" y="375.2142857142857"/>
      <point x="496.92857142857144" y="353.0" type="curve"/>
      <point x="493.14285714285717" y="372.0" type="line"/>
      <point x="450.0" y="124.85714285714286" type="line" smooth="yes"/>
      <point x="437.85714285714283" y="55.07142857142857"/>
      <point x="462.85714285714283" y="21.0"/>
      <point x="522.7857142857143" y="21.0" type="curve" smooth="yes"/>
      <point x="657.5714285714286" y="21.0"/>
      <point x="746.9285714285714" y="148.92857142857142"/>
      <point x="746.9285714285714" y="284.0" type="curve" smooth="yes"/>
      <point x="746.9285714285714" y="445.0"/>
      <point x="636.0714285714286" y="562.0"/>
      <point x="459.7857142857143" y="562.0" type="curve" smooth="yes"/>
      <point x="239.64285714285714" y="562.0"/>
      <point x="62.857142857142854" y="381.35714285714283"/>
      <point x="62.857142857142854" y="167.71428571428572" type="curve" smooth="yes"/>
      <point x="62.857142857142854" y="-4.642857142857143"/>
      <point x="188.28571428571428" y="-118.0"/>
    </contour>
  </outline>
</glyph>
<glyph name="A" format="2">
  <advance width="764.2857142857143"/>
  <unicode hex="0041"/>
  <anchor x="362.7857142857143" y="0.0" name="bottom"/>
  <anchor x="381.7142857142857" y="710.0" name="top"/>
  <anchor x="626.8571428571429" y="0.0" name="right"/>
  <outline>
    <contour>
      <point x="24.785714285714285" y="0.0" type="line"/>
      <point x="241.14285714285714" y="0.0" type="line"/>
      <point x="241.14285714285714" y="16.0" type="line"/>
      <point x="142.35714285714286" y="57.5" type="line"/>
      <point x="148.14285714285714" y="28.0" type="line"/>
      <point x="372.42857142857144" y="577.5714285714286" type="line"/>
      <point x="323.57142857142856" y="577.5714285714286" type="line"/>
      <point x="548.5" y="28.0" type="line"/>
      <point x="560.5" y="59.785714285714285" type="line"/>
      <point x="451.5" y="16.0" type="line"/>
      <point x="451.5" y="0.0" type="line"/>
      <point x="739.5" y="0.0" type="line"/>
      <point x="739.5" y="16.0" type="line"/>
      <point x="637.1428571428571" y="69.78571428571428" type="line"/>
      <point x="681.7857142857143" y="28.0" type="line"/>
      <point x="416.2142857142857" y="665.0" type="line"/>
      <point x="346.2142857142857" y="665.0" type="line"/>
      <point x="77.64285714285714" y="28.0" type="line"/>
      <point x="107.92857142857143" y="61.35714285714286" type="line"/>
      <point x="24.785714285714285" y="16.0" type="line"/>
    </contour>
    <contour>
      <point x="194.71428571428572" y="225.0" type="line"/>
      <point x="539.7142857142857" y="225.0" type="line"/>
      <point x="539.7142857142857" y="280.0" type="line"/>
      <point x="194.71428571428572" y="280.0" type="line"/>
    </contour>
  </outline>
</glyph>
<glyph name="B" format="2">
  <advance width="686.2142857142858"/>
  <unicode hex="0042"/>
  <outline>
    <contour>
      <point x="52.5" y="0.0" type="line"/>
      <point x="261.42857142857144" y="0.0" type="line"/>
      <point x="261.42857142857144" y="660.0" type="line"/>
      <point x="52.5" y="660.0" type="line"/>
      <point x="52.5" y="644.0" type="line"/>
      <point x="135.71428571428572" y="603.2857142857143" type="line"/>
      <point x="135.71428571428572" y="56.714285714285715" type="line"/>
      <point x="52.5" y="16.0" type="line"/>
    </contour>
    <contour>
      <point x="368.5" y="0.0" type="line" smooth="yes"/>
      <point x="527.6428571428571" y="0.0"/>
      <point x="645.6428571428571" y="82.0"/>
      <point x="645.6428571428571" y="192.0" type="curve" smooth="yes"/>
      <point x="645.6428571428571" y="298.0"/>
      <point x="538.7857142857143" y="363.0"/>
      <point x="367.7857142857143" y="363.0" type="curve"/>
      <point x="362.6428571428571" y="348.0" type="line"/>
      <point x="504.8571428571429" y="348.0"/>
      <point x="587.2142857142858" y="426.0"/>
      <point x="587.2142857142858" y="512.0" type="curve" smooth="yes"/>
      <point x="587.2142857142858" y="611.0"/>
      <point x="483.8571428571429" y="660.0"/>
      <point x="344.7857142857143" y="660.0" type="curve" smooth="yes"/>
      <point x="198.07142857142856" y="660.0" type="line"/>
      <point x="198.07142857142856" y="605.0" type="line"/>
      <point x="306.42857142857144" y="605.0" type="line" smooth="yes"/>
      <point x="407.1428571428571" y="605.0"/>
      <point x="457.0" y="562.9285714285714"/>
      <point x="457.0" y="482.57142857142856" type="curve" smooth="yes"/>
      <point x="457.0" y="410.2857142857143"/>
      <point x="403.1428571428571" y="366.2142857142857"/>
      <point x="312.07142857142856" y="366.2142857142857" type="curve" smooth="yes"/>
      <point x="203.21428571428572" y="366.2142857142857" type="line"/>
      <point x="203.21428571428572" y="314.7857142857143" type="line"/>
      <point x="342.6428571428571" y="314.7857142857143" type="line" smooth="yes"/>
      <point x="451.0" y="314.7857142857143"/>
      <point x="511.5" y="274.35714285714283"/>
      <point x="511.5" y="185.78571428571428" type="curve" smooth="yes"/>
      <point x="511.5" y="109.42857142857143"/>
      <point x="450.0" y="55.0"/>
      <point x="349.6428571428571" y="55.0" type="curve" smooth="yes"/>
      <point x="216.07142857142856" y="55.0" type="line"/>
      <point x="216.07142857142856" y="0.0" type="line"/>
    </contour>
  </outline>
</glyph>
<glyph name="C" format="2">
  <advance width="717.0714285714286"/>
  <unicode hex="0043"/>
  <anchor x="390.42857142857144" y="710.0" name="top"/>
  <anchor x="398.57142857142856" y="0.0" name="bottom"/>
  <outline>
    <contour>
      <point x="399.2857142857143" y="-10.0" type="curve" smooth="yes"/>
      <point x="501.42857142857144" y="-10.0"/>
      <point x="569.0" y="10.0"/>
      <point x="625.1428571428571" y="40.785714285714285" type="curve"/>
      <point x="638.2857142857143" y="205.5" type="line"/>
      <point x="620.9285714285714" y="205.5" type="line"/>
      <point x="527.5" y="58.07142857142857" type="line"/>
      <point x="564.7857142857143" y="97.42857142857143" type="line"/>
      <point x="522.5" y="68.14285714285714"/>
      <point x="477.42857142857144" y="42.42857142857143"/>
      <point x="405.85714285714283" y="42.42857142857143" type="curve" smooth="yes"/>
      <point x="283.7142857142857" y="42.42857142857143"/>
      <point x="188.35714285714286" y="151.28571428571428"/>
      <point x="188.35714285714286" y="332.7142857142857" type="curve" smooth="yes"/>
      <point x="188.35714285714286" y="503.64285714285717"/>
      <point x="286.14285714285717" y="620.0"/>
      <point x="416.92857142857144" y="620.0" type="curve" smooth="yes"/>
      <point x="468.07142857142856" y="620.0"/>
      <point x="498.42857142857144" y="604.2857142857143"/>
      <point x="550.3571428571429" y="567.2142857142857" type="curve"/>
      <point x="516.8571428571429" y="604.7142857142857" type="line"/>
      <point x="610.7142857142857" y="440.2142857142857" type="line"/>
      <point x="628.7142857142857" y="440.2142857142857" type="line"/>
      <point x="620.1428571428571" y="622.0" type="line"/>
      <point x="564.2103964149285" y="649.2889222792143"/>
      <point x="517.8571428571429" y="670.0"/>
      <point x="415.0" y="670.0" type="curve" smooth="yes"/>
      <point x="225.85714285714286" y="670.0"/>
      <point x="57.5" y="509.51691205721426"/>
      <point x="57.5" y="314.5" type="curve" smooth="yes"/>
      <point x="57.5" y="128.5"/>
      <point x="191.42857142857142" y="-10.0"/>
    </contour>
  </outline>
</glyph>
<glyph name="E" format="2">
  <advance width="669.1428571428571"/>
  <unicode hex="0045"/>
  <anchor x="346.07142857142856" y="710.0" name="top"/>
  <anchor x="355.7142857142857" y="0.0" name="bottom"/>
  <anchor x="527.8571428571429" y="0.0" name="right"/>
  <outline>
    <contour>
      <point x="52.5" y="0.0" type="line"/>
      <point x="261.42857142857144" y="0.0" type="line"/>
      <point x="261.42857142857144" y="660.0" type="line"/>
      <point x="52.5" y="660.0" type="line"/>
      <point x="52.5" y="644.0" type="line"/>
      <point x="135.71428571428572" y="603.2857142857143" type="line"/>
      <point x="135.71428571428572" y="56.714285714285715" type="line"/>
      <point x="52.5" y="16.0" type="line"/>
    </contour>
    <contour>
      <point x="558.7142857142858" y="487.2857142857143" type="line"/>
      <point x="574.7142857142858" y="487.2857142857143" type="line"/>
      <point x="574.7142857142858" y="660.0" type="line"/>
      <point x="190.92857142857144" y="660.0" type="line"/>
      <point x="190.92857142857144" y="605.0" type="line"/>
      <point x="489.57142857142856" y="605.0" type="line"/>
    </contour>
    <contour>
      <point x="475.7142857142857" y="230.21428571428572" type="line"/>
      <point x="491.7142857142857" y="230.21428571428572" type="line"/>
      <point x="491.7142857142857" y="452.7857142857143" type="line"/>
      <point x="475.7142857142857" y="452.7857142857143" type="line"/>
      <point x="422.1428571428571" y="368.0" type="line"/>
      <point x="198.92857142857144" y="368.0" type="line"/>
      <point x="198.92857142857144" y="313.0" type="line"/>
      <point x="422.1428571428571" y="313.0" type="line"/>
    </contour>
    <contour>
      <point x="602.7142857142858" y="0.0" type="line"/>
      <point x="602.7142857142858" y="195.21428571428572" type="line"/>
      <point x="586.7142857142858" y="195.21428571428572" type="line"/>
      <point x="515.0714285714286" y="55.0" type="line"/>
      <point x="218.92857142857144" y="55.0" type="line"/>
      <point x="218.92857142857144" y="0.0" type="line"/>
    </contour>
  </outline>
</glyph>
<glyph name="F" format="2">
  <advance width="624.0"/>
  <unicode hex="0046"/>
  <outline>
    <contour>
      <point x="52.5" y="0.0" type="line"/>
      <point x="358.57142857142856" y="0.0" type="line"/>
      <point x="358.57142857142856" y="16.0" type="line"/>
      <point x="261.42857142857144" y="56.714285714285715" type="line"/>
      <point x="261.42857142857144" y="660.0" type="line"/>
      <point x="52.5" y="660.0" type="line"/>
      <point x="52.5" y="644.0" type="line"/>
      <point x="135.71428571428572" y="603.2857142857143" type="line"/>
      <point x="135.71428571428572" y="56.714285714285715" type="line"/>
      <point x="52.5" y="16.0" type="line"/>
    </contour>
    <contour>
      <point x="548.7142857142857" y="487.2857142857143" type="line"/>
      <point x="564.7142857142858" y="487.2857142857143" type="line"/>
      <point x="564.7142857142858" y="660.0" type="line"/>
      <point x="184.5" y="660.0" type="line"/>
      <point x="184.5" y="605.0" type="line"/>
      <point x="483.14285714285717" y="605.0" type="line"/>
    </contour>
    <contour>
      <point x="465.7142857142857" y="232.0" type="line"/>
      <point x="481.7142857142857" y="232.0" type="line"/>
      <point x="481.7142857142857" y="451.0" type="line"/>
      <point x="465.7142857142857" y="451.0" type="line"/>
      <point x="412.14285714285717" y="366.2142857142857" type="line"/>
      <point x="192.5" y="366.2142857142857" type="line"/>
      <point x="192.5" y="314.7857142857143" type="line"/>
      <point x="412.14285714285717" y="314.7857142857143" type="line"/>
    </contour>
  </outline>
</glyph>
<glyph name="G" format="2">
  <advance width="761.2142857142857"/>
  <unicode hex="0047"/>
  <anchor x="402.14285714285717" y="710.0" name="top"/>
  <anchor x="411.42857142857144" y="0.0" name="bottom"/>
  <outline>
    <contour>
      <point x="398.35714285714283" y="-10.0" type="curve" smooth="yes"/>
      <point x="484.35714285714283" y="-10.0"/>
      <point x="589.4285714285714" y="23.0"/>
      <point x="650.4285714285714" y="74.0" type="curve"/>
      <point x="650.4285714285714" y="233.85714285714286" type="line"/>
      <point x="723.0" y="280.07142857142856" type="line"/>
      <point x="723.0" y="296.07142857142856" type="line"/>
      <point x="435.7142857142857" y="296.07142857142856" type="line"/>
      <point x="435.7142857142857" y="280.07142857142856" type="line"/>
      <point x="524.7142857142857" y="235.78571428571428" type="line"/>
      <point x="524.7142857142857" y="47.07142857142857" type="line"/>
      <point x="583.3571428571429" y="80.21428571428572" type="line"/>
      <point x="531.9285714285714" y="53.642857142857146"/>
      <point x="476.42857142857144" y="46.214285714285715"/>
      <point x="427.35714285714283" y="46.214285714285715" type="curve" smooth="yes"/>
      <point x="293.2142857142857" y="46.214285714285715"/>
      <point x="186.5" y="158.2413890457143"/>
      <point x="186.5" y="345.57142857142856" type="curve" smooth="yes"/>
      <point x="186.5" y="507.61738261749997"/>
      <point x="291.07142857142856" y="620.7142857142857"/>
      <point x="428.2857142857143" y="620.7142857142857" type="curve" smooth="yes"/>
      <point x="481.35714285714283" y="620.7142857142857"/>
      <point x="514.0" y="607.5714285714286"/>
      <point x="570.4285714285714" y="567.9285714285714" type="curve"/>
      <point x="535.6428571428571" y="604.7857142857143" type="line"/>
      <point x="633.0" y="450.57142857142856" type="line"/>
      <point x="650.0714285714286" y="450.57142857142856" type="line"/>
      <point x="641.5" y="622.0" type="line"/>
      <point x="584.1428571428571" y="650.0"/>
      <point x="532.4285714285714" y="670.0"/>
      <point x="426.35714285714283" y="670.0" type="curve" smooth="yes"/>
      <point x="227.85714285714286" y="670.0"/>
      <point x="58.214285714285715" y="519.5"/>
      <point x="58.214285714285715" y="314.5" type="curve" smooth="yes"/>
      <point x="58.214285714285715" y="128.5"/>
      <point x="206.35714285714286" y="-10.0"/>
    </contour>
  </outline>
</glyph>
<glyph name="H" format="2">
  <advance width="825.0"/>
  <unicode hex="0048"/>
  <anchor x="412.5" y="710.0" name="top"/>
  <anchor x="412.5" y="0.0" name="bottom"/>
  <outline>
    <contour>
      <point x="52.5" y="0.0" type="line"/>
      <point x="340.3571428571429" y="0.0" type="line"/>
      <point x="340.3571428571429" y="16.0" type="line"/>
      <point x="261.42857142857144" y="56.714285714285715" type="line"/>
      <point x="261.42857142857144" y="603.2857142857143" type="line"/>
      <point x="340.3571428571429" y="644.0" type="line"/>
      <point x="340.3571428571429" y="660.0" type="line"/>
      <point x="52.5" y="660.0" type="line"/>
      <point x="52.5" y="644.0" type="line"/>
      <point x="135.71428571428572" y="603.2857142857143" type="line"/>
      <point x="135.71428571428572" y="56.714285714285715" type="line"/>
      <point x="52.5" y="16.0" type="line"/>
    </contour>
    <contour>
      <point x="198.92857142857144" y="312.64285714285717" type="line"/>
      <point x="628.9285714285714" y="312.64285714285717" type="line"/>
      <point x="628.9285714285714" y="367.64285714285717" type="line"/>
      <point x="198.92857142857144" y="367.64285714285717" type="line"/>
    </contour>
    <contour>
      <point x="484.64285714285717" y="0.0" type="line"/>
      <point x="772.5" y="0.0" type="line"/>
      <point x="772.5" y="16.0" type="line"/>
      <point x="690.0" y="56.714285714285715" type="line"/>
      <point x="690.0" y="603.2857142857143" type="line"/>
      <point x="772.5" y="644.0" type="line"/>
      <point x="772.5" y="660.0" type="line"/>
      <point x="484.64285714285717" y="660.0" type="line"/>
      <point x="484.64285714285717" y="644.0" type="line"/>
      <point x="564.2857142857143" y="603.2857142857143" type="line"/>
      <point x="564.2857142857143" y="56.714285714285715" type="line"/>
      <point x="484.64285714285717" y="16.0" type="line"/>
    </contour>
  </outline>
</glyph>
<glyph name="I" format="2">
  <advance width="403.57142857142856"/>
  <unicode hex="0049"/>
  <anchor x="201.78571428571428" y="710.0" name="top"/>
  <anchor x="201.78571428571428" y="0.0" name="bottom"/>
  <anchor x="222.35714285714286" y="0.0" name="right"/>
  <outline>
    <contour>
      <point x="55.714285714285715" y="0.0" type="line"/>
      <point x="347.8571428571429" y="0.0" type="line"/>
      <point x="347.8571428571429" y="16.0" type="line"/>
      <point x="264.6428571428571" y="56.714285714285715" type="line"/>
      <point x="264.6428571428571" y="603.2857142857143" type="line"/>
      <point x="347.8571428571429" y="644.0" type="line"/>
      <point x="347.8571428571429" y="660.0" type="line"/>
      <point x="55.714285714285715" y="660.0" type="line"/>
      <point x="55.714285714285715" y="644.0" type="line"/>
      <point x="138.92857142857142" y="603.2857142857143" type="line"/>
      <point x="138.92857142857142" y="56.714285714285715" type="line"/>
      <point x="55.714285714285715" y="16.0" type="line"/>
    </contour>
  </outline>
</glyph>
<glyph name="J" format="2">
  <advance width="414.64285714285717"/>
  <unicode hex="004A"/>
  <anchor x="212.85714285714286" y="710.0" name="top"/>
  <outline>
    <contour>
      <point x="53.142857142857146" y="-173.0" type="curve" smooth="yes"/>
      <point x="95.42691029892858" y="-173.0"/>
      <point x="123.0" y="-151.21428571428572"/>
      <point x="174.57142857142858" y="-93.28571428571428" type="curve" smooth="yes"/>
      <point x="228.28571428571428" y="-32.5"/>
      <point x="275.7142857142857" y="91.0128156193"/>
      <point x="275.7142857142857" y="243.21428571428572" type="curve" smooth="yes"/>
      <point x="275.7142857142857" y="603.2857142857143" type="line"/>
      <point x="358.92857142857144" y="644.0" type="line"/>
      <point x="358.92857142857144" y="660.0" type="line"/>
      <point x="66.78571428571429" y="660.0" type="line"/>
      <point x="66.78571428571429" y="644.0" type="line"/>
      <point x="150.0" y="603.2857142857143" type="line"/>
      <point x="150.0" y="50.285714285714285" type="line" smooth="yes"/>
      <point x="150.0" y="-71.21428571428571"/>
      <point x="125.5" y="-86.78571428571428"/>
      <point x="86.42857142857143" y="-86.78571428571428" type="curve" smooth="yes"/>
      <point x="70.21428571428571" y="-86.78571428571428"/>
      <point x="60.92857142857143" y="-84.14285714285714"/>
      <point x="40.07142857142857" y="-78.5" type="curve"/>
      <point x="32.64285714285714" y="-78.5" type="line"/>
      <point x="23.357142857142858" y="-121.85714285714286"/>
      <point x="20.857142857142858" y="-136.28571428571428"/>
      <point x="20.857142857142858" y="-144.64285714285714" type="curve" smooth="yes"/>
      <point x="20.857142857142858" y="-165.28571428571428"/>
      <point x="35.07142857142857" y="-173.0"/>
    </contour>
  </outline>
</glyph>
<glyph name="K" format="2">
  <advance width="751.5"/>
  <unicode hex="004B"/>
  <anchor x="408.92857142857144" y="710.0" name="top"/>
  <anchor x="408.92857142857144" y="0.0" name="bottom"/>
  <outline>
    <contour>
      <point x="52.5" y="0.0" type="line"/>
      <point x="344.64285714285717" y="0.0" type="line"/>
      <point x="344.64285714285717" y="16.0" type="line"/>
      <point x="261.42857142857144" y="56.714285714285715" type="line"/>
      <point x="261.42857142857144" y="603.2857142857143" type="line"/>
      <point x="344.64285714285717" y="644.0" type="line"/>
      <point x="344.64285714285717" y="660.0" type="line"/>
      <point x="52.5" y="660.0" type="line"/>
      <point x="52.5" y="644.0" type="line"/>
      <point x="135.71428571428572" y="603.2857142857143" type="line"/>
      <point x="135.71428571428572" y="56.714285714285715" type="line"/>
      <point x="52.5" y="16.0" type="line"/>
    </contour>
    <contour>
      <point x="262.07142857142856" y="335.14285714285717" type="line"/>
      <point x="550.3571428571429" y="0.0" type="line"/>
      <point x="740.4285714285714" y="0.0" type="line"/>
      <point x="740.4285714285714" y="16.0" type="line"/>
      <point x="637.2142857142858" y="59.714285714285715" type="line"/>
      <point x="685.7857142857142" y="30.285714285714285" type="line"/>
      <point x="361.57142857142856" y="401.0" type="line"/>
      <point x="337.2857142857143" y="338.35714285714283" type="line"/>
      <point x="644.3571428571429" y="635.8571428571429" type="line"/>
      <point x="593.0" y="603.8571428571429" type="line"/>
      <point x="689.5" y="644.0" type="line"/>
      <point x="689.5" y="660.0" type="line"/>
      <point x="464.5" y="660.0" type="line"/>
      <point x="464.5" y="644.0" type="line"/>
      <point x="559.6428571428571" y="598.0714285714286" type="line"/>
      <point x="557.5" y="628.7857142857143" type="line"/>
    </contour>
  </outline>
</glyph>
<glyph name="L" format="2">
  <advance width="642.0"/>
  <unicode hex="004C"/>
  <anchor x="356.8571428571429" y="0.0" name="bottom"/>
  <anchor x="198.57142857142858" y="710.0" name="top"/>
  <anchor x="491.07142857142856" y="660.0" name="right"/>
  <anchor x="507.85714285714283" y="349.85714285714283" name="mid"/>
  <outline>
    <contour>
      <point x="52.5" y="0.0" type="line"/>
      <point x="582.7142857142857" y="0.0" type="line"/>
      <point x="582.7142857142857" y="235.21428571428572" type="line"/>
      <point x="566.7142857142857" y="235.21428571428572" type="line"/>
      <point x="490.85714285714283" y="55.0" type="line"/>
      <point x="261.42857142857144" y="55.0" type="line"/>
      <point x="261.42857142857144" y="603.2857142857143" type="line"/>
      <point x="354.6428571428571" y="644.0" type="line"/>
      <point x="354.6428571428571" y="660.0" type="line"/>
      <point x="52.5" y="660.0" type="line"/>
      <point x="52.5" y="644.0" type="line"/>
      <point x="135.71428571428572" y="603.2857142857143" type="line"/>
      <point x="135.71428571428572" y="56.714285714285715" type="line"/>
      <point x="52.5" y="16.0" type="line"/>
    </contour>
  </outline>
</glyph>
<glyph name="M" format="2">
  <advance width="980.4285714285714"/>
  <unicode hex="004D"/>
  <anchor x="468.07142857142856" y="0.0" name="bottom"/>
  <outline>
    <contour>
      <point x="49.285714285714285" y="0.0" type="line"/>
      <point x="281.64285714285717" y="0.0" type="line"/>
      <point x="281.64285714285717" y="16.0" type="line"/>
      <point x="197.07142857142858" y="55.714285714285715" type="line"/>
      <point x="213.07142857142858" y="642.0" type="line"/>
      <point x="153.85714285714286" y="642.0" type="line"/>
      <point x="131.85714285714286" y="56.714285714285715" type="line"/>
      <point x="49.285714285714285" y="16.0" type="line"/>
    </contour>
    <contour>
      <point x="441.85714285714283" y="-5.0" type="line"/>
      <point x="493.64285714285717" y="-5.0" type="line"/>
      <point x="751.1428571428571" y="596.2857142857143" type="line"/>
      <point x="807.0" y="596.2857142857143" type="line"/>
      <point x="926.3571428571429" y="644.0" type="line"/>
      <point x="926.3571428571429" y="660.0" type="line"/>
      <point x="712.8571428571429" y="660.0" type="line"/>
      <point x="478.2142857142857" y="113.14285714285714" type="line"/>
      <point x="524.3571428571429" y="113.14285714285714" type="line"/>
      <point x="287.57142857142856" y="660.0" type="line"/>
      <point x="65.78571428571428" y="660.0" type="line"/>
      <point x="65.78571428571428" y="644.0" type="line"/>
      <point x="167.28571428571428" y="596.2857142857143" type="line"/>
      <point x="183.21428571428572" y="596.2857142857143" type="line"/>
    </contour>
    <contour>
      <point x="658.2857142857143" y="0.0" type="line"/>
      <point x="931.1428571428571" y="0.0" type="line"/>
      <point x="931.1428571428571" y="16.0" type="line"/>
      <point x="857.5714285714286" y="56.714285714285715" type="line"/>
      <point x="839.5714285714286" y="642.0" type="line"/>
      <point x="723.8571428571429" y="642.0" type="line"/>
      <point x="735.8571428571429" y="55.714285714285715" type="line"/>
      <point x="658.2857142857143" y="16.0" type="line"/>
    </contour>
  </outline>
</glyph>
<glyph name="N" format="2">
  <advance width="809.0"/>
  <unicode hex="004E"/>
  <anchor x="411.7857142857143" y="710.0" name="top"/>
  <anchor x="417.85714285714283" y="0.0" name="bottom"/>
  <outline>
    <contour>
      <point x="49.285714285714285" y="0.0" type="line"/>
      <point x="310.7142857142857" y="0.0" type="line"/>
      <point x="310.7142857142857" y="16.0" type="line"/>
      <point x="202.5" y="56.07142857142857" type="line"/>
      <point x="202.5" y="536.7142857142858" type="line"/>
      <point x="165.42857142857142" y="536.7142857142858" type="line"/>
      <point x="625.8571428571429" y="-5.0" type="line"/>
      <point x="677.8571428571429" y="-5.0" type="line"/>
      <point x="677.8571428571429" y="603.9285714285714" type="line"/>
      <point x="759.7142857142857" y="644.0" type="line"/>
      <point x="759.7142857142857" y="660.0" type="line"/>
      <point x="499.64285714285717" y="660.0" type="line"/>
      <point x="499.64285714285717" y="644.0" type="line"/>
      <point x="607.8571428571429" y="604.5714285714286" type="line"/>
      <point x="607.8571428571429" y="131.07142857142856" type="line"/>
      <point x="669.7142857142857" y="131.07142857142856" type="line"/>
      <point x="221.92857142857144" y="660.0" type="line"/>
      <point x="49.92857142857143" y="660.0" type="line"/>
      <point x="49.92857142857143" y="644.0" type="line"/>
      <point x="132.5" y="602.0" type="line"/>
      <point x="132.5" y="56.714285714285715" type="line"/>
      <point x="49.285714285714285" y="16.0" type="line"/>
    </contour>
  </outline>
</glyph>
<glyph name="O" format="2">
  <advance width="796.2857142857143"/>
  <unicode hex="004F"/>
  <anchor x="390.2857142857143" y="710.0" name="top"/>
  <anchor x="407.0" y="0.0" name="bottom"/>
  <anchor x="428.14285714285717" y="0.0" name="right"/>
  <outline>
    <contour>
      <point x="397.64285714285717" y="-10.0" type="curve" smooth="yes"/>
      <point x="593.5714285714286" y="-10.0"/>
      <point x="738.7857142857143" y="134.0"/>
      <point x="738.7857142857143" y="330.0" type="curve" smooth="yes"/>
      <point x="738.7857142857143" y="526.0"/>
      <point x="593.5714285714286" y="670.0"/>
      <point x="397.64285714285717" y="670.0" type="curve" smooth="yes"/>
      <point x="202.71428571428572" y="670.0"/>
      <point x="57.5" y="526.0"/>
      <point x="57.5" y="330.0" type="curve" smooth="yes"/>
      <point x="57.5" y="134.0"/>
      <point x="202.71428571428572" y="-10.0"/>
    </contour>
    <contour>
      <point x="415.7857142857143" y="41.07142857142857" type="curve" smooth="yes"/>
      <point x="291.0" y="41.07142857142857"/>
      <point x="191.28571428571428" y="168.35714285714286"/>
      <point x="191.28571428571428" y="362.2857142857143" type="curve" smooth="yes"/>
      <point x="191.28571428571428" y="519.9285714285714"/>
      <point x="271.57142857142856" y="619.9285714285714"/>
      <point x="382.7857142857143" y="619.9285714285714" type="curve" smooth="yes"/>
      <point x="507.2857142857143" y="619.9285714285714"/>
      <point x="605.0" y="493.64285714285717"/>
      <point x="605.0" y="299.7142857142857" type="curve" smooth="yes"/>
      <point x="605.0" y="142.07142857142858"/>
      <point x="528.0714285714286" y="41.07142857142857"/>
    </contour>
  </outline>
</glyph>
<glyph name="P" format="2">
  <advance width="664.7857142857143"/>
  <unicode hex="0050"/>
  <outline>
    <contour>
      <point x="52.5" y="0.0" type="line"/>
      <point x="358.57142857142856" y="0.0" type="line"/>
      <point x="358.57142857142856" y="16.0" type="line"/>
      <point x="261.42857142857144" y="56.714285714285715" type="line"/>
      <point x="261.42857142857144" y="605.0" type="line"/>
      <point x="318.0" y="605.0" type="line" smooth="yes"/>
      <point x="431.0" y="605.0"/>
      <point x="494.0" y="566.0"/>
      <point x="494.0" y="473.0" type="curve" smooth="yes"/>
      <point x="494.0" y="398.0"/>
      <point x="430.0" y="344.2142857142857"/>
      <point x="325.0" y="344.2142857142857" type="curve" smooth="yes"/>
      <point x="236.42857142857144" y="344.2142857142857" type="line"/>
      <point x="236.42857142857144" y="292.7857142857143" type="line"/>
      <point x="339.2142857142857" y="292.7857142857143" type="line" smooth="yes"/>
      <point x="502.2142857142857" y="292.7857142857143"/>
      <point x="624.2142857142858" y="370.57142857142856"/>
      <point x="624.2142857142858" y="481.7142857142857" type="curve" smooth="yes"/>
      <point x="624.2142857142858" y="605.7142857142857"/>
      <point x="520.2142857142858" y="660.0"/>
      <point x="363.2142857142857" y="660.0" type="curve" smooth="yes"/>
      <point x="52.5" y="660.0" type="line"/>
      <point x="52.5" y="644.0" type="line"/>
      <point x="135.71428571428572" y="603.2857142857143" type="line"/>
      <point x="135.71428571428572" y="56.714285714285715" type="line"/>
      <point x="52.5" y="16.0" type="line"/>
    </contour>
  </outline>
</glyph>
<glyph name="Q" format="2">
  <advance width="796.2857142857143"/>
  <unicode hex="0051"/>
  <outline>
    <contour>
      <point x="397.64285714285717" y="-10.0" type="curve" smooth="yes"/>
      <point x="593.5714285714286" y="-10.0"/>
      <point x="738.7857142857143" y="134.0"/>
      <point x="738.7857142857143" y="330.0" type="curve" smooth="yes"/>
      <point x="738.7857142857143" y="526.0"/>
      <point x="593.5714285714286" y="670.0"/>
      <point x="397.64285714285717" y="670.0" type="curve" smooth="yes"/>
      <point x="202.71428571428572" y="670.0"/>
      <point x="57.5" y="526.0"/>
      <point x="57.5" y="330.0" type="curve" smooth="yes"/>
      <point x="57.5" y="134.0"/>
      <point x="202.71428571428572" y="-10.0"/>
    </contour>
    <contour>
      <point x="415.7857142857143" y="41.07142857142857" type="curve" smooth="yes"/>
      <point x="291.0" y="41.07142857142857"/>
      <point x="191.28571428571428" y="168.35714285714286"/>
      <point x="191.28571428571428" y="362.2857142857143" type="curve" smooth="yes"/>
      <point x="191.28571428571428" y="519.9285714285714"/>
      <point x="271.57142857142856" y="619.9285714285714"/>
      <point x="382.7857142857143" y="619.9285714285714" type="curve" smooth="yes"/>
      <point x="507.2857142857143" y="619.9285714285714"/>
      <point x="605.0" y="493.64285714285717"/>
      <point x="605.0" y="299.7142857142857" type="curve" smooth="yes"/>
      <point x="605.0" y="142.07142857142858"/>
      <point x="528.0714285714286" y="41.07142857142857"/>
    </contour>
    <contour>
      <point x="684.5" y="-152.57142857142858" type="curve" smooth="yes"/>
      <point x="737.9873949578572" y="-152.57142857142858"/>
      <point x="779.7837791096429" y="-140.9270425975"/>
      <point x="810.2142857142857" y="-125.57142857142857" type="curve"/>
      <point x="810.2142857142857" y="-105.28571428571429" type="line"/>
      <point x="795.2142857142857" y="-109.92857142857143"/>
      <point x="774.2142857142857" y="-114.64285714285714"/>
      <point x="744.7857142857143" y="-114.64285714285714" type="curve" smooth="yes"/>
      <point x="680.5" y="-114.64285714285714"/>
      <point x="612.0714285714286" y="-84.07142857142857"/>
      <point x="492.6428571428571" y="16.0" type="curve"/>
      <point x="327.7142857142857" y="16.0" type="line"/>
      <point x="495.5376096735714" y="-122.64584575357142"/>
      <point x="591.9349363507142" y="-152.57142857142858"/>
    </contour>
  </outline>
</glyph>
<glyph name="R" format="2">
  <advance width="699.9285714285714"/>
  <unicode hex="0052"/>
  <anchor x="331.2857142857143" y="710.0" name="top"/>
  <anchor x="388.7857142857143" y="0.0" name="bottom"/>
  <outline>
    <contour>
      <point x="52.5" y="0.0" type="line"/>
      <point x="336.42857142857144" y="0.0" type="line"/>
      <point x="336.42857142857144" y="16.0" type="line"/>
      <point x="261.42857142857144" y="57.714285714285715" type="line"/>
      <point x="261.42857142857144" y="660.0" type="line"/>
      <point x="52.5" y="660.0" type="line"/>
      <point x="52.5" y="644.0" type="line"/>
      <point x="135.71428571428572" y="603.2857142857143" type="line"/>
      <point x="135.71428571428572" y="56.714285714285715" type="line"/>
      <point x="52.5" y="16.0" type="line"/>
    </contour>
    <contour>
      <point x="586.1428571428571" y="497.0" type="curve" smooth="yes"/>
      <point x="586.1428571428571" y="598.0"/>
      <point x="500.1428571428571" y="660.0"/>
      <point x="360.1428571428571" y="660.0" type="curve" smooth="yes"/>
      <point x="208.42857142857144" y="660.0" type="line"/>
      <point x="208.42857142857144" y="605.0" type="line"/>
      <point x="311.7857142857143" y="605.0" type="line" smooth="yes"/>
      <point x="404.3571428571429" y="605.0"/>
      <point x="457.0" y="559.5233990146429"/>
      <point x="457.0" y="482.2142857142857" type="curve" smooth="yes"/>
      <point x="457.0" y="408.136953955"/>
      <point x="400.3571428571429" y="356.2142857142857"/>
      <point x="317.7857142857143" y="356.2142857142857" type="curve"/>
      <point x="216.42857142857144" y="356.2142857142857" type="line"/>
      <point x="216.42857142857144" y="304.7857142857143" type="line"/>
      <point x="356.2142857142857" y="304.7857142857143" type="line"/>
      <point x="361.92857142857144" y="314.5" type="line"/>
      <point x="490.57142857142856" y="330.42857142857144"/>
      <point x="586.1428571428571" y="398.5"/>
    </contour>
    <contour>
      <point x="519.8571428571429" y="0.0" type="line"/>
      <point x="706.7142857142858" y="0.0" type="line"/>
      <point x="706.7142857142858" y="16.0" type="line"/>
      <point x="637.1428571428571" y="54.5" type="line"/>
      <point x="441.2857142857143" y="348.14285714285717" type="line"/>
      <point x="310.07142857142856" y="339.2142857142857" type="line"/>
    </contour>
  </outline>
</glyph>
<glyph name="S" format="2">
  <advance width="555.2857142857143"/>
  <unicode hex="0053"/>
  <anchor x="288.42857142857144" y="710.0" name="top"/>
  <anchor x="280.92857142857144" y="0.0" name="bottom"/>
  <outline>
    <contour>
      <point x="268.2857142857143" y="-10.0" type="curve" smooth="yes"/>
      <point x="380.64285714285717" y="-10.0"/>
      <point x="504.2142857142857" y="60.714285714285715"/>
      <point x="504.2142857142857" y="188.21428571428572" type="curve" smooth="yes"/>
      <point x="504.2142857142857" y="286.9357142857143"/>
      <point x="448.4394781739286" y="331.5573227135714"/>
      <point x="327.2142857142857" y="388.35714285714283" type="curve" smooth="yes"/>
      <point x="234.00668860892858" y="432.16301552964285"/>
      <point x="197.07142857142858" y="460.5645161289286"/>
      <point x="197.07142857142858" y="521.2142857142857" type="curve" smooth="yes"/>
      <point x="197.07142857142858" y="578.7394957982143"/>
      <point x="237.64285714285714" y="619.5"/>
      <point x="294.14285714285717" y="619.5" type="curve" smooth="yes"/>
      <point x="341.7857142857143" y="619.5"/>
      <point x="373.5" y="602.4285714285714"/>
      <point x="419.5" y="565.2857142857143" type="curve"/>
      <point x="393.2857142857143" y="599.4285714285714" type="line"/>
      <point x="466.5" y="465.85714285714283" type="line"/>
      <point x="483.2142857142857" y="465.85714285714283" type="line"/>
      <point x="473.2142857142857" y="625.8571428571429" type="line"/>
      <point x="419.70743824" y="654.0026082060715"/>
      <point x="362.0" y="670.0"/>
      <point x="296.42857142857144" y="670.0" type="curve" smooth="yes"/>
      <point x="184.71428571428572" y="670.0"/>
      <point x="73.5" y="576.6428571428571"/>
      <point x="73.5" y="475.57142857142856" type="curve" smooth="yes"/>
      <point x="73.5" y="387.05457463892856"/>
      <point x="126.22123631714285" y="340.53925185785715"/>
      <point x="220.5" y="296.42857142857144" type="curve" smooth="yes"/>
      <point x="335.3137245235714" y="243.14278801607142"/>
      <point x="384.64285714285717" y="222.19402228964287"/>
      <point x="384.64285714285717" y="146.28571428571428" type="curve" smooth="yes"/>
      <point x="384.64285714285717" y="77.753611557"/>
      <point x="335.85714285714283" y="39.5"/>
      <point x="260.7857142857143" y="39.5" type="curve" smooth="yes"/>
      <point x="212.14285714285714" y="39.5"/>
      <point x="164.78571428571428" y="59.57142857142857"/>
      <point x="121.07142857142857" y="98.78571428571429" type="curve"/>
      <point x="147.71428571428572" y="58.142857142857146" type="line"/>
      <point x="69.57142857142857" y="206.07142857142856" type="line"/>
      <point x="52.5" y="206.07142857142856" type="line"/>
      <point x="62.5" y="38.857142857142854" type="line"/>
      <point x="125.21428571428571" y="7.142857142857142"/>
      <point x="182.71428571428572" y="-10.0"/>
    </contour>
  </outline>
</glyph>
<glyph name="T" format="2">
  <advance width="689.7142857142857"/>
  <unicode hex="0054"/>
  <anchor x="344.85714285714283" y="710.0" name="top"/>
  <anchor x="344.85714285714283" y="0.0" name="bottom"/>
  <outline>
    <contour>
      <point x="178.42857142857144" y="0.0" type="line"/>
      <point x="511.2857142857143" y="0.0" type="line"/>
      <point x="511.2857142857143" y="16.0" type="line"/>
      <point x="407.7142857142857" y="56.714285714285715" type="line"/>
      <point x="407.7142857142857" y="605.0" type="line"/>
      <point x="558.9285714285714" y="605.0" type="line"/>
      <point x="634.0714285714286" y="447.64285714285717" type="line"/>
      <point x="650.0714285714286" y="447.64285714285717" type="line"/>
      <point x="650.0714285714286" y="660.0" type="line"/>
      <point x="39.64285714285714" y="660.0" type="line"/>
      <point x="39.64285714285714" y="447.64285714285717" type="line"/>
      <point x="55.64285714285714" y="447.64285714285717" type="line"/>
      <point x="130.78571428571428" y="605.0" type="line"/>
      <point x="282.0" y="605.0" type="line"/>
      <point x="282.0" y="56.714285714285715" type="line"/>
      <point x="178.42857142857144" y="16.0" type="line"/>
    </contour>
  </outline>
</glyph>
<glyph name="U" format="2">
  <advance width="825.7857142857143"/>
  <unicode hex="0055"/>
  <anchor x="439.2857142857143" y="710.0" name="top"/>
  <anchor x="425.57142857142856" y="0.0" name="bottom"/>
  <anchor x="448.14285714285717" y="0.0" name="right"/>
  <outline>
    <contour>
      <point x="415.7142857142857" y="-10.0" type="curve" smooth="yes"/>
      <point x="576.7678571428571" y="-10.0"/>
      <point x="690.3571428571429" y="68.57142857142857"/>
      <point x="690.3571428571429" y="272.42857142857144" type="curve" smooth="yes"/>
      <point x="690.3571428571429" y="604.2857142857143" type="line"/>
      <point x="773.2857142857143" y="644.0" type="line"/>
      <point x="773.2857142857143" y="660.0" type="line"/>
      <point x="523.9285714285714" y="660.0" type="line"/>
      <point x="523.9285714285714" y="644.0" type="line"/>
      <point x="620.3571428571429" y="605.2857142857143" type="line"/>
      <point x="620.3571428571429" y="242.78571428571428" type="line" smooth="yes"/>
      <point x="620.3571428571429" y="109.21428571428572"/>
      <point x="542.9285714285714" y="58.0"/>
      <point x="454.92857142857144" y="58.0" type="curve" smooth="yes"/>
      <point x="347.42857142857144" y="58.0"/>
      <point x="261.7857142857143" y="112.85714285714286"/>
      <point x="261.7857142857143" y="277.7857142857143" type="curve" smooth="yes"/>
      <point x="261.7857142857143" y="603.2857142857143" type="line"/>
      <point x="345.3571428571429" y="644.0" type="line"/>
      <point x="345.3571428571429" y="660.0" type="line"/>
      <point x="52.5" y="660.0" type="line"/>
      <point x="52.5" y="644.0" type="line"/>
      <point x="136.07142857142858" y="603.2857142857143" type="line"/>
      <point x="136.07142857142858" y="272.42857142857144" type="line" smooth="yes"/>
      <point x="136.07142857142858" y="68.57142857142857"/>
      <point x="251.99025974035715" y="-10.0"/>
    </contour>
  </outline>
</glyph>
<glyph name="V" format="2">
  <advance width="754.2857142857143"/>
  <unicode hex="0056"/>
  <outline>
    <contour>
      <point x="356.0" y="-5.0" type="line"/>
      <point x="404.57142857142856" y="-5.0" type="line"/>
      <point x="678.8571428571429" y="632.0" type="line"/>
      <point x="649.1428571428571" y="601.0714285714286" type="line"/>
      <point x="727.8571428571429" y="644.0" type="line"/>
      <point x="727.8571428571429" y="660.0" type="line"/>
      <point x="515.3571428571429" y="660.0" type="line"/>
      <point x="515.3571428571429" y="644.0" type="line"/>
      <point x="604.5" y="604.2857142857143" type="line"/>
      <point x="601.2857142857143" y="615.2857142857143" type="line"/>
      <point x="395.1428571428571" y="123.64285714285714" type="line"/>
      <point x="437.7857142857143" y="174.35714285714286" type="line"/>
      <point x="389.2142857142857" y="174.35714285714286" type="line"/>
      <point x="431.8571428571429" y="123.64285714285714" type="line"/>
      <point x="225.07142857142856" y="612.7142857142857" type="line"/>
      <point x="220.78571428571428" y="602.3571428571429" type="line"/>
      <point x="312.14285714285717" y="644.0" type="line"/>
      <point x="312.14285714285717" y="660.0" type="line"/>
      <point x="25.714285714285715" y="660.0" type="line"/>
      <point x="25.714285714285715" y="644.0" type="line"/>
      <point x="134.71428571428572" y="585.5" type="line"/>
      <point x="84.71428571428571" y="632.0" type="line"/>
    </contour>
  </outline>
</glyph>
<glyph name="W" format="2">
  <advance width="1016.7142857142858"/>
  <unicode hex="0057"/>
  <anchor x="541.7142857142857" y="710.0" name="top"/>
  <outline>
    <contour>
      <point x="277.92857142857144" y="-5.0" type="line"/>
      <point x="326.5" y="-5.0" type="line"/>
      <point x="534.5" y="519.4285714285714" type="line"/>
      <point x="487.7857142857143" y="458.2142857142857" type="line"/>
      <point x="537.4285714285714" y="458.2142857142857" type="line"/>
      <point x="492.14285714285717" y="519.4285714285714" type="line"/>
      <point x="696.2142857142857" y="-5.0" type="line"/>
      <point x="744.7857142857143" y="-5.0" type="line"/>
      <point x="943.5" y="632.0" type="line"/>
      <point x="910.6428571428571" y="594.6428571428571" type="line"/>
      <point x="1003.5" y="644.0" type="line"/>
      <point x="1003.5" y="660.0" type="line"/>
      <point x="780.0" y="660.0" type="line"/>
      <point x="780.0" y="644.0" type="line"/>
      <point x="889.3571428571429" y="594.6428571428571" type="line"/>
      <point x="873.0" y="632.0" type="line"/>
      <point x="728.2857142857143" y="140.78571428571428" type="line"/>
      <point x="767.7857142857143" y="201.85714285714286" type="line"/>
      <point x="719.5714285714286" y="201.85714285714286" type="line"/>
      <point x="763.7857142857143" y="140.78571428571428" type="line"/>
      <point x="566.1428571428571" y="665.0" type="line"/>
      <point x="516.2857142857143" y="665.0" type="line"/>
      <point x="318.5" y="137.0" type="line"/>
      <point x="365.5" y="201.85714285714286" type="line"/>
      <point x="315.14285714285717" y="201.85714285714286" type="line"/>
      <point x="356.8571428571429" y="137.0" type="line"/>
      <point x="210.92857142857144" y="632.0" type="line"/>
      <point x="183.92857142857144" y="590.9285714285714" type="line"/>
      <point x="302.92857142857144" y="644.0" type="line"/>
      <point x="302.92857142857144" y="660.0" type="line"/>
      <point x="13.214285714285714" y="660.0" type="line"/>
      <point x="13.214285714285714" y="644.0" type="line"/>
      <point x="122.21428571428571" y="588.7857142857143" type="line"/>
      <point x="81.21428571428571" y="632.0" type="line"/>
    </contour>
  </outline>
</glyph>
<glyph name="X" format="2">
  <advance width="763.5714285714286"/>
  <unicode hex="0058"/>
  <outline>
    <contour>
      <point x="431.7857142857143" y="0.0" type="line"/>
      <point x="733.9285714285714" y="0.0" type="line"/>
      <point x="733.9285714285714" y="16.0" type="line"/>
      <point x="623.5" y="77.78571428571428" type="line"/>
      <point x="690.7857142857143" y="17.785714285714285" type="line"/>
      <point x="260.7142857142857" y="600.5714285714286" type="line"/>
      <point x="260.7142857142857" y="605.5714285714286" type="line"/>
      <point x="340.0" y="644.0" type="line"/>
      <point x="340.0" y="660.0" type="line"/>
      <point x="42.857142857142854" y="660.0" type="line"/>
      <point x="42.857142857142854" y="644.0" type="line"/>
      <point x="153.28571428571428" y="582.2142857142857" type="line"/>
      <point x="90.28571428571428" y="632.0" type="line"/>
      <point x="504.42857142857144" y="57.07142857142857" type="line"/>
      <point x="504.42857142857144" y="53.07142857142857" type="line"/>
      <point x="431.7857142857143" y="16.0" type="line"/>
    </contour>
    <contour>
      <point x="29.642857142857142" y="0.0" type="line"/>
      <point x="263.57142857142856" y="0.0" type="line"/>
      <point x="263.57142857142856" y="16.0" type="line"/>
      <point x="182.92857142857144" y="53.785714285714285" type="line"/>
      <point x="184.0" y="57.785714285714285" type="line"/>
      <point x="384.0" y="313.0" type="line"/>
      <point x="342.64285714285717" y="352.0" type="line"/>
      <point x="85.71428571428571" y="29.0" type="line"/>
      <point x="133.5" y="68.71428571428572" type="line"/>
      <point x="29.642857142857142" y="16.0" type="line"/>
    </contour>
    <contour>
      <point x="710.3571428571429" y="660.0" type="line"/>
      <point x="485.7142857142857" y="660.0" type="line"/>
      <point x="485.7142857142857" y="644.0" type="line"/>
      <point x="563.1428571428571" y="605.2142857142857" type="line"/>
      <point x="563.1428571428571" y="601.2142857142857" type="line"/>
      <point x="382.42857142857144" y="372.64285714285717" type="line"/>
      <point x="418.2857142857143" y="327.0" type="line"/>
      <point x="663.5" y="631.2857142857143" type="line"/>
      <point x="612.9285714285714" y="591.2857142857143" type="line"/>
      <point x="710.3571428571429" y="644.0" type="line"/>
    </contour>
  </outline>
</glyph>
<glyph name="Y" format="2">
  <advance width="739.4285714285714"/>
  <unicode hex="0059"/>
  <anchor x="373.7142857142857" y="0.0" name="bottom"/>
  <anchor x="398.2857142857143" y="710.0" name="top"/>
  <outline>
    <contour>
      <point x="221.21428571428572" y="0.0" type="line"/>
      <point x="526.2142857142858" y="0.0" type="line"/>
      <point x="526.2142857142858" y="16.0" type="line"/>
      <point x="436.57142857142856" y="56.714285714285715" type="line"/>
      <point x="436.57142857142856" y="339.85714285714283" type="line"/>
      <point x="406.2142857142857" y="265.2857142857143" type="line"/>
      <point x="662.5714285714286" y="632.0" type="line"/>
      <point x="614.4285714285714" y="594.2857142857143" type="line"/>
      <point x="713.3571428571429" y="644.0" type="line"/>
      <point x="713.3571428571429" y="660.0" type="line"/>
      <point x="492.07142857142856" y="660.0" type="line"/>
      <point x="492.07142857142856" y="644.0" type="line"/>
      <point x="567.5714285714286" y="606.2142857142857" type="line"/>
      <point x="567.5714285714286" y="602.2142857142857" type="line"/>
      <point x="397.0" y="346.7142857142857" type="line"/>
      <point x="423.2142857142857" y="346.7142857142857" type="line"/>
      <point x="233.28571428571428" y="603.5714285714286" type="line"/>
      <point x="233.28571428571428" y="607.5714285714286" type="line"/>
      <point x="307.7142857142857" y="644.0" type="line"/>
      <point x="307.7142857142857" y="660.0" type="line"/>
      <point x="26.07142857142857" y="660.0" type="line"/>
      <point x="26.07142857142857" y="644.0" type="line"/>
      <point x="122.85714285714286" y="589.8571428571429" type="line"/>
      <point x="72.85714285714286" y="632.0" type="line"/>
      <point x="341.85714285714283" y="266.0" type="line"/>
      <point x="310.85714285714283" y="339.85714285714283" type="line"/>
      <point x="310.85714285714283" y="56.714285714285715" type="line"/>
      <point x="221.21428571428572" y="16.0" type="line"/>
    </contour>
  </outline>
</glyph>
<glyph name="Z" format="2">
  <advance width="678.1428571428571"/>
  <unicode hex="005A"/>
  <anchor x="345.85714285714283" y="710.0" name="top"/>
  <anchor x="345.85714285714283" y="0.0" name="bottom"/>
  <outline>
    <contour>
      <point x="86.42857142857143" y="0.0" type="line"/>
      <point x="591.7142857142857" y="0.0" type="line"/>
      <point x="591.7142857142857" y="205.21428571428572" type="line"/>
      <point x="575.7142857142857" y="205.21428571428572" type="line"/>
      <point x="504.07142857142856" y="55.0" type="line"/>
      <point x="215.21428571428572" y="55.0" type="line"/>
      <point x="215.21428571428572" y="15.428571428571429" type="line"/>
      <point x="580.7142857142857" y="630.7142857142857" type="line"/>
      <point x="580.7142857142857" y="660.0" type="line"/>
      <point x="98.42857142857143" y="660.0" type="line"/>
      <point x="98.42857142857143" y="464.7857142857143" type="line"/>
      <point x="114.42857142857143" y="464.7857142857143" type="line"/>
      <point x="183.57142857142858" y="605.0" type="line"/>
      <point x="448.42857142857144" y="605.0" type="line"/>
      <point x="448.42857142857144" y="640.2857142857143" type="line"/>
      <point x="86.42857142857143" y="29.285714285714285" type="line"/>
    </contour>
  </outline>
</glyph>
<glyph name="bracketleft" format="2">
  <advance width="257.14285714285717"/>
  <unicode hex="005B"/>
  <outline>
    <contour>
      <point x="61.42857142857143" y="-150.0" type="line"/>
      <point x="129.0" y="-150.0" type="line"/>
      <point x="129.0" y="740.0" type="line"/>
      <point x="61.42857142857143" y="740.0" type="line"/>
    </contour>
    <contour>
      <point x="63.42857142857143" y="740.0" type="line"/>
      <point x="63.42857142857143" y="715.2142857142857" type="line"/>
      <point x="245.0" y="715.2142857142857" type="line"/>
      <point x="245.0" y="740.0" type="line"/>
    </contour>
    <contour>
      <point x="63.42857142857143" y="-150.0" type="line"/>
      <point x="245.0" y="-150.0" type="line"/>
      <point x="245.0" y="-125.21428571428571" type="line"/>
      <point x="63.42857142857143" y="-125.21428571428571" type="line"/>
    </contour>
  </outline>
</glyph>
<glyph name="backslash" format="2">
  <advance width="250.0"/>
  <unicode hex="005C"/>
  <outline>
    <contour>
      <point x="200.0" y="-120.0" type="line"/>
      <point x="250.0" y="-120.0" type="line"/>
      <point x="50.0" y="750.0" type="line"/>
      <point x="0.0" y="750.0" type="line"/>
    </contour>
  </outline>
</glyph>
<glyph name="bracketright" format="2">
  <advance width="257.14285714285717"/>
  <unicode hex="005D"/>
  <outline>
    <contour>
      <point x="128.14285714285714" y="-150.0" type="line"/>
      <point x="195.71428571428572" y="-150.0" type="line"/>
      <point x="195.71428571428572" y="740.0" type="line"/>
      <point x="128.14285714285714" y="740.0" type="line"/>
    </contour>
    <contour>
      <point x="12.142857142857142" y="740.0" type="line"/>
      <point x="12.142857142857142" y="715.2142857142857" type="line"/>
      <point x="193.71428571428572" y="715.2142857142857" type="line"/>
      <point x="193.71428571428572" y="740.0" type="line"/>
    </contour>
    <contour>
      <point x="12.142857142857142" y="-150.0" type="line"/>
      <point x="193.71428571428572" y="-150.0" type="line"/>
      <point x="193.71428571428572" y="-125.21428571428571" type="line"/>
      <point x="12.142857142857142" y="-125.21428571428571" type="line"/>
    </contour>
  </outline>
</glyph>
<glyph name="asciicircum" format="2">
  <advance width="535.7142857142857"/>
  <unicode hex="005E"/>
  <outline>
    <contour>
      <point x="57.85714285714286" y="250.0" type="line"/>
      <point x="116.42857142857143" y="250.0" type="line"/>
      <point x="288.42857142857144" y="640.0" type="line"/>
      <point x="247.28571428571428" y="640.0" type="line"/>
      <point x="419.2857142857143" y="250.0" type="line"/>
      <point x="477.85714285714283" y="250.0" type="line"/>
      <point x="292.85714285714283" y="670.0" type="line"/>
      <point x="242.85714285714286" y="670.0" type="line"/>
    </contour>
  </outline>
</glyph>
<glyph name="a" format="2">
  <advance width="504.0"/>
  <unicode hex="0061"/>
  <anchor x="236.78571428571428" y="510.0" name="top"/>
  <anchor x="422.3571428571429" y="0.0" name="right"/>
  <anchor x="240.92857142857144" y="0.0" name="bottom"/>
  <outline>
    <contour>
      <point x="153.14285714285714" y="-9.642857142857142" type="curve" smooth="yes"/>
      <point x="210.21428571428572" y="-9.642857142857142"/>
      <point x="259.92857142857144" y="18.5"/>
      <point x="294.2142857142857" y="55.0" type="curve"/>
      <point x="312.92857142857144" y="55.0" type="line"/>
      <point x="312.92857142857144" y="88.0" type="line"/>
      <point x="275.07142857142856" y="70.71428571428572"/>
      <point x="249.14285714285714" y="63.42857142857143"/>
      <point x="218.92857142857144" y="63.42857142857143" type="curve" smooth="yes"/>
      <point x="174.85714285714286" y="63.42857142857143"/>
      <point x="148.92857142857144" y="84.42857142857143"/>
      <point x="148.92857142857144" y="125.78571428571429" type="curve" smooth="yes"/>
      <point x="148.92857142857144" y="177.0"/>
      <point x="173.64285714285714" y="206.64285714285714"/>
      <point x="326.2142857142857" y="232.92857142857142" type="curve"/>
      <point x="326.2142857142857" y="272.85714285714283" type="line"/>
      <point x="199.57142857142858" y="241.78571428571428" type="line" smooth="yes"/>
      <point x="77.78571428571428" y="211.92857142857144"/>
      <point x="39.5" y="170.07142857142858"/>
      <point x="39.14285714285714" y="100.78571428571429" type="curve" smooth="yes"/>
      <point x="38.42857142857143" y="30.785714285714285"/>
      <point x="89.07142857142857" y="-9.642857142857142"/>
    </contour>
    <contour>
      <point x="396.42857142857144" y="-10.0" type="curve" smooth="yes"/>
      <point x="447.5" y="-10.0"/>
      <point x="481.2857142857143" y="16.0"/>
      <point x="496.92857142857144" y="42.5" type="curve"/>
      <point x="496.92857142857144" y="51.92857142857143" type="line"/>
      <point x="493.57142857142856" y="54.642857142857146" type="line"/>
      <point x="461.2857142857143" y="54.642857142857146" type="line" smooth="yes"/>
      <point x="435.2142857142857" y="54.642857142857146"/>
      <point x="419.2857142857143" y="61.285714285714285"/>
      <point x="409.92857142857144" y="70.92857142857143" type="curve"/>
      <point x="409.92857142857144" y="343.5" type="line" smooth="yes"/>
      <point x="409.92857142857144" y="431.07142857142856"/>
      <point x="331.57142857142856" y="463.57142857142856"/>
      <point x="244.5" y="463.57142857142856" type="curve" smooth="yes"/>
      <point x="196.71428571428572" y="463.57142857142856"/>
      <point x="156.78571428571428" y="448.42857142857144"/>
      <point x="113.71428571428571" y="421.2142857142857" type="curve" smooth="yes"/>
      <point x="75.57142857142857" y="397.5"/>
      <point x="54.285714285714285" y="366.64285714285717"/>
      <point x="54.285714285714285" y="337.64285714285717" type="curve" smooth="yes"/>
      <point x="54.285714285714285" y="314.0"/>
      <point x="60.642857142857146" y="307.85714285714283"/>
      <point x="80.64285714285714" y="307.85714285714283" type="curve" smooth="yes"/>
      <point x="141.21428571428572" y="307.85714285714283" type="line"/>
      <point x="145.5" y="312.5" type="line"/>
      <point x="145.5" y="351.2142857142857" type="line" smooth="yes"/>
      <point x="145.5" y="391.4689440992857"/>
      <point x="162.5" y="414.7857142857143"/>
      <point x="208.85714285714286" y="414.7857142857143" type="curve" smooth="yes"/>
      <point x="255.92857142857142" y="414.7857142857143"/>
      <point x="294.2142857142857" y="380.2857142857143"/>
      <point x="294.2142857142857" y="331.07142857142856" type="curve" smooth="yes"/>
      <point x="294.2142857142857" y="70.28571428571429" type="line"/>
      <point x="296.2142857142857" y="70.28571428571429" type="line"/>
      <point x="307.92857142857144" y="20.857142857142858"/>
      <point x="339.92857142857144" y="-10.0"/>
    </contour>
  </outline>
</glyph>
<glyph name="b" format="2">
  <advance width="572.8571428571429"/>
  <unicode hex="0062"/>
  <outline>
    <contour>
      <point x="95.14285714285714" y="-6.428571428571429" type="line"/>
      <point x="104.71428571428572" y="-6.428571428571429" type="line"/>
      <point x="210.85714285714286" y="62.5" type="line"/>
      <point x="210.85714285714286" y="750.0" type="line"/>
      <point x="201.28571428571428" y="750.0" type="line"/>
      <point x="33.0" y="695.0" type="line"/>
      <point x="33.0" y="684.7857142857143" type="line"/>
      <point x="95.14285714285714" y="636.0" type="line"/>
    </contour>
    <contour>
      <point x="297.7142857142857" y="-10.0" type="curve" smooth="yes"/>
      <point x="426.8571428571429" y="-10.0"/>
      <point x="532.4285714285714" y="85.5"/>
      <point x="532.4285714285714" y="247.0" type="curve" smooth="yes"/>
      <point x="532.4285714285714" y="381.14285714285717"/>
      <point x="456.2142857142857" y="463.57142857142856"/>
      <point x="362.0" y="463.57142857142856" type="curve" smooth="yes"/>
      <point x="309.07142857142856" y="463.57142857142856"/>
      <point x="265.14285714285717" y="445.2857142857143"/>
      <point x="215.57142857142858" y="403.0" type="curve"/>
      <point x="200.14285714285714" y="403.0" type="line"/>
      <point x="200.14285714285714" y="355.7857142857143" type="line"/>
      <point x="230.92857142857144" y="376.5"/>
      <point x="259.57142857142856" y="386.7142857142857"/>
      <point x="290.92857142857144" y="386.7142857142857" type="curve" smooth="yes"/>
      <point x="357.57142857142856" y="386.7142857142857"/>
      <point x="416.7142857142857" y="335.7142857142857"/>
      <point x="416.7142857142857" y="222.57142857142858" type="curve" smooth="yes"/>
      <point x="416.7142857142857" y="84.28571428571429"/>
      <point x="362.0" y="40.5"/>
      <point x="304.07142857142856" y="40.5" type="curve" smooth="yes"/>
      <point x="263.07142857142856" y="40.5"/>
      <point x="231.5" y="53.85714285714286"/>
      <point x="203.71428571428572" y="84.07142857142857" type="curve"/>
      <point x="146.57142857142858" y="26.07142857142857" type="line"/>
      <point x="189.92857142857144" y="1.5714285714285694"/>
      <point x="239.14285714285714" y="-10.0"/>
    </contour>
  </outline>
</glyph>
<glyph name="c" format="2">
  <advance width="482.2142857142857"/>
  <unicode hex="0063"/>
  <anchor x="267.57142857142856" y="510.0" name="top"/>
  <anchor x="264.64285714285717" y="0.0" name="bottom"/>
  <outline>
    <contour>
      <point x="256.14285714285717" y="-10.0" type="curve" smooth="yes"/>
      <point x="343.57142857142856" y="-10.0"/>
      <point x="410.85714285714283" y="40.57142857142857"/>
      <point x="442.57142857142856" y="105.35714285714286" type="curve"/>
      <point x="442.57142857142856" y="119.28571428571428" type="line"/>
      <point x="439.57142857142856" y="119.28571428571428" type="line"/>
      <point x="392.42857142857144" y="94.42857142857143"/>
      <point x="350.07142857142856" y="84.28571428571429"/>
      <point x="312.3571428571429" y="84.28571428571429" type="curve" smooth="yes"/>
      <point x="196.71428571428572" y="84.28571428571429"/>
      <point x="155.07142857142858" y="162.5"/>
      <point x="155.07142857142858" y="253.14285714285714" type="curve" smooth="yes"/>
      <point x="155.07142857142858" y="355.35714285714283"/>
      <point x="192.21428571428572" y="419.57142857142856"/>
      <point x="258.42857142857144" y="419.57142857142856" type="curve" smooth="yes"/>
      <point x="298.14285714285717" y="419.57142857142856"/>
      <point x="321.42857142857144" y="401.2142857142857"/>
      <point x="343.2142857142857" y="371.35714285714283" type="curve" smooth="yes"/>
      <point x="377.57142857142856" y="323.92857142857144" type="line"/>
      <point x="384.57142857142856" y="323.92857142857144" type="line"/>
      <point x="427.92857142857144" y="360.57142857142856" type="line" smooth="yes"/>
      <point x="437.92857142857144" y="368.92857142857144"/>
      <point x="440.57142857142856" y="374.57142857142856"/>
      <point x="440.57142857142856" y="384.57142857142856" type="curve" smooth="yes"/>
      <point x="440.57142857142856" y="392.57142857142856"/>
      <point x="435.92857142857144" y="401.57142857142856"/>
      <point x="424.92857142857144" y="414.57142857142856" type="curve" smooth="yes"/>
      <point x="398.57142857142856" y="443.92857142857144"/>
      <point x="344.0" y="463.57142857142856"/>
      <point x="285.35714285714283" y="463.57142857142856" type="curve" smooth="yes"/>
      <point x="143.21428571428572" y="463.57142857142856"/>
      <point x="42.857142857142854" y="356.85714285714283"/>
      <point x="42.857142857142854" y="206.42857142857142" type="curve" smooth="yes"/>
      <point x="42.857142857142854" y="75.71428571428571"/>
      <point x="127.14285714285714" y="-10.0"/>
    </contour>
  </outline>
</glyph>
<glyph name="d" format="2">
  <advance width="573.2857142857143"/>
  <unicode hex="0064"/>
  <anchor x="597.7142857142858" y="740.0" name="right"/>
  <anchor x="282.42857142857144" y="0.0" name="bottom"/>
  <outline>
    <contour>
      <point x="207.64285714285714" y="-10.0" type="curve" smooth="yes"/>
      <point x="260.57142857142856" y="-10.0"/>
      <point x="303.85714285714283" y="8.0"/>
      <point x="353.7857142857143" y="50.285714285714285" type="curve"/>
      <point x="369.5" y="50.285714285714285" type="line"/>
      <point x="369.5" y="97.78571428571429" type="line"/>
      <point x="338.7142857142857" y="77.07142857142857"/>
      <point x="310.07142857142856" y="66.85714285714286"/>
      <point x="278.7142857142857" y="66.85714285714286" type="curve" smooth="yes"/>
      <point x="212.07142857142856" y="66.85714285714286"/>
      <point x="152.92857142857144" y="114.85714285714286"/>
      <point x="152.92857142857144" y="222.0" type="curve" smooth="yes"/>
      <point x="152.92857142857144" y="367.0"/>
      <point x="210.57142857142856" y="412.42857142857144"/>
      <point x="278.07142857142856" y="412.42857142857144" type="curve" smooth="yes"/>
      <point x="316.5" y="412.42857142857144"/>
      <point x="343.92857142857144" y="393.92857142857144"/>
      <point x="372.35714285714283" y="363.07142857142856" type="curve"/>
      <point x="423.07142857142856" y="427.5" type="line"/>
      <point x="382.2857142857143" y="451.64285714285717"/>
      <point x="341.57142857142856" y="463.57142857142856"/>
      <point x="274.64285714285717" y="463.57142857142856" type="curve"/>
      <point x="140.35714285714286" y="463.57142857142856"/>
      <point x="37.214285714285715" y="362.92857142857144"/>
      <point x="37.214285714285715" y="194.35714285714286" type="curve" smooth="yes"/>
      <point x="37.214285714285715" y="68.71428571428571"/>
      <point x="113.42857142857143" y="-10.0"/>
    </contour>
    <contour>
      <point x="368.7857142857143" y="0.0" type="line"/>
      <point x="544.7857142857143" y="0.0" type="line"/>
      <point x="544.7857142857143" y="16.0" type="line"/>
      <point x="474.5" y="45.0" type="line"/>
      <point x="474.5" y="750.0" type="line"/>
      <point x="464.92857142857144" y="750.0" type="line"/>
      <point x="291.64285714285717" y="695.0" type="line"/>
      <point x="291.64285714285717" y="685.5" type="line"/>
      <point x="358.7857142857143" y="636.0" type="line"/>
      <point x="358.7857142857143" y="60.0" type="line"/>
    </contour>
  </outline>
</glyph>
<glyph name="e" format="2">
  <advance width="490.7857142857143"/>
  <unicode hex="0065"/>
  <anchor x="263.57142857142856" y="510.0" name="top"/>
  <anchor x="372.64285714285717" y="0.0" name="right"/>
  <anchor x="269.35714285714283" y="0.0" name="bottom"/>
  <outline>
    <contour>
      <point x="259.7142857142857" y="-10.0" type="curve" smooth="yes"/>
      <point x="347.85714285714283" y="-10.0"/>
      <point x="415.85714285714283" y="40.214285714285715"/>
      <point x="447.92857142857144" y="105.35714285714286" type="curve"/>
      <point x="447.92857142857144" y="119.28571428571428" type="line"/>
      <point x="444.92857142857144" y="119.28571428571428" type="line"/>
      <point x="397.7857142857143" y="94.42857142857143"/>
      <point x="355.42857142857144" y="84.28571428571429"/>
      <point x="317.7142857142857" y="84.28571428571429" type="curve" smooth="yes"/>
      <point x="198.5" y="84.28571428571429"/>
      <point x="155.07142857142858" y="160.71428571428572"/>
      <point x="155.07142857142858" y="249.57142857142858" type="curve" smooth="yes"/>
      <point x="155.07142857142858" y="356.42857142857144"/>
      <point x="192.92857142857144" y="419.2142857142857"/>
      <point x="255.57142857142858" y="419.2142857142857" type="curve" smooth="yes"/>
      <point x="307.42857142857144" y="419.2142857142857"/>
      <point x="339.252167075" y="383.6922396346429"/>
      <point x="351.2142857142857" y="287.57142857142856" type="curve"/>
      <point x="382.7857142857143" y="294.42857142857144" type="line"/>
      <point x="125.78571428571429" y="294.42857142857144" type="line"/>
      <point x="125.78571428571429" y="249.14285714285714" type="line"/>
      <point x="442.64285714285717" y="249.14285714285714" type="line"/>
      <point x="446.92857142857144" y="254.14285714285714" type="line"/>
      <point x="446.2142857142857" y="387.92857142857144"/>
      <point x="382.64285714285717" y="463.57142857142856"/>
      <point x="275.85714285714283" y="463.57142857142856" type="curve" smooth="yes"/>
      <point x="148.92857142857142" y="463.57142857142856"/>
      <point x="42.857142857142854" y="356.85714285714283"/>
      <point x="42.857142857142854" y="206.42857142857142" type="curve" smooth="yes"/>
      <point x="42.857142857142854" y="75.71428571428571"/>
      <point x="125.71428571428571" y="-10.0"/>
    </contour>
  </outline>
</glyph>
<glyph name="f" format="2">
  <advance width="358.7857142857143"/>
  <unicode hex="0066"/>
  <outline>
    <contour>
      <point x="43.64285714285714" y="0.0" type="line"/>
      <point x="299.42857142857144" y="0.0" type="line"/>
      <point x="299.42857142857144" y="16.0" type="line"/>
      <point x="224.5" y="46.714285714285715" type="line"/>
      <point x="224.5" y="522.8571428571429" type="line" smooth="yes"/>
      <point x="224.5" y="624.63996139"/>
      <point x="239.57142857142856" y="666.9285714285714"/>
      <point x="304.0" y="666.9285714285714" type="curve" smooth="yes"/>
      <point x="328.2142857142857" y="666.9285714285714"/>
      <point x="345.7857142857143" y="662.1428571428571"/>
      <point x="367.2142857142857" y="652.3571428571429" type="curve" smooth="yes"/>
      <point x="389.2142857142857" y="642.7857142857142" type="line"/>
      <point x="397.2857142857143" y="642.7857142857142" type="line"/>
      <point x="421.2142857142857" y="695.0" type="line" smooth="yes"/>
      <point x="424.57142857142856" y="702.3571428571429"/>
      <point x="425.92857142857144" y="708.3571428571429"/>
      <point x="425.92857142857144" y="713.7142857142857" type="curve" smooth="yes"/>
      <point x="425.92857142857144" y="725.0"/>
      <point x="418.42857142857144" y="730.9285714285714"/>
      <point x="399.5" y="740.2857142857143" type="curve" smooth="yes"/>
      <point x="389.7857142857143" y="745.0"/>
      <point x="374.07142857142856" y="750.0"/>
      <point x="359.92857142857144" y="750.0" type="curve" smooth="yes"/>
      <point x="229.35714285714286" y="750.0"/>
      <point x="108.78571428571428" y="568.9285714285714"/>
      <point x="108.78571428571428" y="488.2142857142857" type="curve" smooth="yes"/>
      <point x="108.78571428571428" y="48.0" type="line"/>
      <point x="43.64285714285714" y="16.0" type="line"/>
    </contour>
    <contour>
      <point x="32.214285714285715" y="407.64285714285717" type="line"/>
      <point x="348.6428571428571" y="407.64285714285717" type="line"/>
      <point x="348.6428571428571" y="453.57142857142856" type="line"/>
      <point x="32.214285714285715" y="453.57142857142856" type="line"/>
    </contour>
  </outline>
</glyph>
<glyph name="g" format="2">
  <advance width="543.1428571428571"/>
  <unicode hex="0067"/>
  <anchor x="260.14285714285717" y="510.0" name="top"/>
  <outline>
    <contour>
      <point x="257.2857142857143" y="148.07142857142858" type="curve" smooth="yes"/>
      <point x="363.2142857142857" y="148.07142857142858"/>
      <point x="443.14285714285717" y="215.71428571428572"/>
      <point x="443.14285714285717" y="305.64285714285717" type="curve" smooth="yes"/>
      <point x="443.14285714285717" y="349.57142857142856"/>
      <point x="417.7142857142857" y="394.35714285714283"/>
      <point x="385.0" y="414.0" type="curve"/>
      <point x="357.42857142857144" y="441.14285714285717" type="line"/>
      <point x="333.0" y="453.85714285714283"/>
      <point x="292.2857142857143" y="463.2142857142857"/>
      <point x="257.2857142857143" y="463.2142857142857" type="curve" smooth="yes"/>
      <point x="151.35714285714286" y="463.2142857142857"/>
      <point x="71.42857142857143" y="394.92857142857144"/>
      <point x="71.42857142857143" y="305.64285714285717" type="curve" smooth="yes"/>
      <point x="71.42857142857143" y="215.71428571428572"/>
      <point x="151.35714285714286" y="148.07142857142858"/>
    </contour>
    <contour>
      <point x="265.5" y="189.78571428571428" type="curve" smooth="yes"/>
      <point x="212.07142857142856" y="189.78571428571428"/>
      <point x="175.92857142857144" y="235.3520018697857"/>
      <point x="175.92857142857144" y="308.64285714285717" type="curve" smooth="yes"/>
      <point x="175.92857142857144" y="373.8256010237143"/>
      <point x="202.21428571428572" y="422.1428571428571"/>
      <point x="252.78571428571428" y="422.1428571428571" type="curve" smooth="yes"/>
      <point x="302.57142857142856" y="422.1428571428571"/>
      <point x="339.35714285714283" y="377.35327767464287"/>
      <point x="339.35714285714283" y="302.64285714285717" type="curve" smooth="yes"/>
      <point x="339.35714285714283" y="237.34425891528574"/>
      <point x="312.42857142857144" y="189.78571428571428"/>
    </contour>
    <contour>
      <point x="505.64285714285717" y="395.2857142857143" type="line"/>
      <point x="505.64285714285717" y="453.2142857142857" type="line"/>
      <point x="333.64285714285717" y="442.07142857142856" type="line"/>
      <point x="333.64285714285717" y="386.2857142857143" type="line"/>
      <point x="389.8571428571429" y="386.2857142857143" type="line"/>
      <point x="408.3571428571429" y="402.35714285714283" type="line"/>
    </contour>
    <contour>
      <point x="231.5" y="-240.0" type="curve" smooth="yes"/>
      <point x="385.8571428571429" y="-240.0"/>
      <point x="481.92857142857144" y="-150.07142857142858"/>
      <point x="481.92857142857144" y="-60.5" type="curve" smooth="yes"/>
      <point x="481.92857142857144" y="26.714285714285715"/>
      <point x="434.7857142857143" y="71.85714285714286"/>
      <point x="333.5" y="71.85714285714286" type="curve" smooth="yes"/>
      <point x="219.21428571428572" y="71.85714285714286" type="line" smooth="yes"/>
      <point x="167.71428571428572" y="71.85714285714286"/>
      <point x="145.0" y="86.5"/>
      <point x="145.0" y="120.78571428571428" type="curve" smooth="yes"/>
      <point x="145.0" y="142.42857142857144"/>
      <point x="157.35714285714286" y="162.07142857142858"/>
      <point x="190.35714285714286" y="171.71428571428572" type="curve"/>
      <point x="190.35714285714286" y="188.0" type="line"/>
      <point x="140.71428571428572" y="188.0" type="line"/>
      <point x="140.71428571428572" y="175.21428571428572" type="line"/>
      <point x="84.92857142857143" y="144.0" type="line"/>
      <point x="65.5" y="124.57142857142857"/>
      <point x="57.857142857142854" y="102.42857142857143"/>
      <point x="57.857142857142854" y="73.92857142857143" type="curve" smooth="yes"/>
      <point x="57.857142857142854" y="13.642857142857142"/>
      <point x="107.0" y="-26.071428571428573"/>
      <point x="192.5" y="-26.071428571428573" type="curve" smooth="yes"/>
      <point x="287.0" y="-26.071428571428573" type="line" smooth="yes"/>
      <point x="359.7857142857143" y="-26.071428571428573"/>
      <point x="384.64285714285717" y="-43.642857142857146"/>
      <point x="384.64285714285717" y="-98.0" type="curve" smooth="yes"/>
      <point x="384.64285714285717" y="-155.57142857142858"/>
      <point x="328.57142857142856" y="-207.35714285714286"/>
      <point x="242.42857142857142" y="-207.35714285714286" type="curve" smooth="yes"/>
      <point x="173.64285714285714" y="-207.35714285714286"/>
      <point x="130.57142857142858" y="-167.21428571428572"/>
      <point x="130.57142857142858" y="-112.14285714285714" type="curve" smooth="yes"/>
      <point x="130.57142857142858" y="-66.21428571428572"/>
      <point x="146.64285714285714" y="-36.5"/>
      <point x="188.57142857142858" y="-17.0" type="curve"/>
      <point x="188.57142857142858" y="-7.5" type="line"/>
      <point x="134.78571428571428" y="-7.5" type="line"/>
      <point x="134.78571428571428" y="-22.785714285714285" type="line"/>
      <point x="69.71428571428571" y="-65.21428571428572" type="line"/>
      <point x="57.357142857142854" y="-84.28571428571429"/>
      <point x="51.714285714285715" y="-103.5"/>
      <point x="51.714285714285715" y="-128.14285714285714" type="curve" smooth="yes"/>
      <point x="51.714285714285715" y="-191.57142857142858"/>
      <point x="103.42857142857143" y="-240.0"/>
    </contour>
  </outline>
</glyph>
<glyph name="i" format="2">
  <advance width="324.7857142857143"/>
  <unicode hex="0069"/>
  <anchor x="164.85714285714286" y="510.0" name="top"/>
  <anchor x="164.85714285714286" y="0.0" name="bottom"/>
  <anchor x="187.5" y="0.0" name="right"/>
  <outline>
    <contour>
      <point x="41.857142857142854" y="0.0" type="line"/>
      <point x="283.57142857142856" y="0.0" type="line"/>
      <point x="283.57142857142856" y="16.0" type="line"/>
      <point x="222.71428571428572" y="48.0" type="line"/>
      <point x="222.71428571428572" y="463.57142857142856" type="line"/>
      <point x="213.14285714285714" y="463.57142857142856" type="line"/>
      <point x="44.85714285714286" y="408.57142857142856" type="line"/>
      <point x="44.85714285714286" y="398.35714285714283" type="line"/>
      <point x="107.0" y="349.57142857142856" type="line"/>
      <point x="107.0" y="48.0" type="line"/>
      <point x="41.857142857142854" y="16.0" type="line"/>
    </contour>
    <contour>
      <point x="162.21428571428572" y="571.3571428571429" type="curve" smooth="yes"/>
      <point x="200.85714285714286" y="571.3571428571429"/>
      <point x="229.71428571428572" y="600.2142857142857"/>
      <point x="229.71428571428572" y="638.8571428571429" type="curve" smooth="yes"/>
      <point x="229.71428571428572" y="678.1428571428571"/>
      <point x="200.85714285714286" y="706.3571428571429"/>
      <point x="162.21428571428572" y="706.3571428571429" type="curve" smooth="yes"/>
      <point x="122.92857142857143" y="706.3571428571429"/>
      <point x="94.71428571428571" y="678.1428571428571"/>
      <point x="94.71428571428571" y="638.8571428571429" type="curve" smooth="yes"/>
      <point x="94.71428571428571" y="600.2142857142857"/>
      <point x="122.92857142857143" y="571.3571428571429"/>
    </contour>
  </outline>
</glyph>
<glyph name="j" format="2">
  <advance width="323.64285714285717"/>
  <unicode hex="006A"/>
  <anchor x="163.78571428571428" y="510.0" name="top"/>
  <outline>
    <contour>
      <point x="42.92857142857143" y="-230.0" type="line"/>
      <point x="182.57142857142858" y="-166.64285714285714"/>
      <point x="221.64285714285714" y="-98.5"/>
      <point x="221.64285714285714" y="13.928571428571429" type="curve" smooth="yes"/>
      <point x="221.64285714285714" y="463.57142857142856" type="line"/>
      <point x="212.07142857142856" y="463.57142857142856" type="line"/>
      <point x="43.785714285714285" y="408.57142857142856" type="line"/>
      <point x="43.785714285714285" y="398.35714285714283" type="line"/>
      <point x="105.92857142857143" y="349.57142857142856" type="line"/>
      <point x="105.92857142857143" y="-37.142857142857146" type="line" smooth="yes"/>
      <point x="105.92857142857143" y="-130.92857142857144"/>
      <point x="93.21428571428572" y="-169.21428571428572"/>
      <point x="42.92857142857143" y="-212.57142857142858" type="curve"/>
    </contour>
    <contour>
      <point x="161.14285714285714" y="571.3571428571429" type="curve" smooth="yes"/>
      <point x="199.78571428571428" y="571.3571428571429"/>
      <point x="228.64285714285714" y="600.2142857142857"/>
      <point x="228.64285714285714" y="638.8571428571429" type="curve" smooth="yes"/>
      <point x="228.64285714285714" y="678.1428571428571"/>
      <point x="199.78571428571428" y="706.3571428571429"/>
      <point x="161.14285714285714" y="706.3571428571429" type="curve" smooth="yes"/>
      <point x="121.85714285714286" y="706.3571428571429"/>
      <point x="93.64285714285714" y="678.1428571428571"/>
      <point x="93.64285714285714" y="638.8571428571429" type="curve" smooth="yes"/>
      <point x="93.64285714285714" y="600.2142857142857"/>
      <point x="121.85714285714286" y="571.3571428571429"/>
    </contour>
  </outline>
</glyph>
<glyph name="k" format="2">
  <advance width="584.4285714285714"/>
  <unicode hex="006B"/>
  <anchor x="321.42857142857144" y="0.0" name="bottom"/>
  <outline>
    <contour>
      <point x="38.0" y="0.0" type="line"/>
      <point x="285.92857142857144" y="0.0" type="line"/>
      <point x="285.92857142857144" y="16.0" type="line"/>
      <point x="218.85714285714286" y="46.07142857142857" type="line"/>
      <point x="218.85714285714286" y="750.0" type="line"/>
      <point x="209.28571428571428" y="750.0" type="line"/>
      <point x="41.0" y="695.0" type="line"/>
      <point x="41.0" y="684.7857142857143" type="line"/>
      <point x="103.14285714285714" y="636.0" type="line"/>
      <point x="103.14285714285714" y="48.0" type="line"/>
      <point x="38.0" y="16.0" type="line"/>
    </contour>
    <contour>
      <point x="400.85714285714283" y="0.0" type="line"/>
      <point x="570.0" y="0.0" type="line"/>
      <point x="570.0" y="16.0" type="line"/>
      <point x="506.0" y="50.0" type="line"/>
      <point x="292.2142857142857" y="316.5" type="line"/>
      <point x="292.2142857142857" y="269.5" type="line"/>
      <point x="462.92857142857144" y="402.57142857142856" type="line"/>
      <point x="526.9285714285714" y="437.57142857142856" type="line"/>
      <point x="526.9285714285714" y="453.57142857142856" type="line"/>
      <point x="324.42857142857144" y="453.57142857142856" type="line"/>
      <point x="324.42857142857144" y="437.57142857142856" type="line"/>
      <point x="373.42857142857144" y="401.57142857142856" type="line"/>
      <point x="373.42857142857144" y="395.57142857142856" type="line"/>
      <point x="216.71428571428572" y="256.7857142857143" type="line"/>
      <point x="216.71428571428572" y="241.78571428571428" type="line"/>
      <point x="367.14285714285717" y="52.0" type="line"/>
    </contour>
  </outline>
</glyph>
<glyph name="l" format="2">
  <advance width="312.57142857142856"/>
  <unicode hex="006C"/>
  <anchor x="158.42857142857144" y="765.0" name="top"/>
  <anchor x="340.14285714285717" y="740.0" name="right"/>
  <anchor x="331.42857142857144" y="300.0" name="mid"/>
  <anchor x="158.42857142857144" y="0.0" name="bottom"/>
  <outline>
    <contour>
      <point x="35.42857142857143" y="0.0" type="line"/>
      <point x="277.14285714285717" y="0.0" type="line"/>
      <point x="277.14285714285717" y="16.0" type="line"/>
      <point x="216.28571428571428" y="48.0" type="line"/>
      <point x="216.28571428571428" y="750.0" type="line"/>
      <point x="206.71428571428572" y="750.0" type="line"/>
      <point x="38.42857142857143" y="695.0" type="line"/>
      <point x="38.42857142857143" y="684.7857142857143" type="line"/>
      <point x="100.57142857142857" y="636.0" type="line"/>
      <point x="100.57142857142857" y="48.0" type="line"/>
      <point x="35.42857142857143" y="16.0" type="line"/>
    </contour>
  </outline>
</glyph>
<glyph name="m" format="2">
  <advance width="884.2857142857142"/>
  <unicode hex="006D"/>
  <anchor x="444.2142857142857" y="0.0" name="bottom"/>
  <outline>
    <contour>
      <point x="38.0" y="0.0" type="line"/>
      <point x="273.8571428571429" y="0.0" type="line"/>
      <point x="273.8571428571429" y="16.0" type="line"/>
      <point x="218.85714285714286" y="48.0" type="line"/>
      <point x="218.85714285714286" y="383.57142857142856" type="line"/>
      <point x="208.85714285714286" y="463.57142857142856" type="line"/>
      <point x="199.28571428571428" y="463.57142857142856" type="line"/>
      <point x="41.0" y="405.0" type="line"/>
      <point x="41.0" y="394.7857142857143" type="line"/>
      <point x="103.14285714285714" y="349.57142857142856" type="line"/>
      <point x="103.14285714285714" y="48.0" type="line"/>
      <point x="38.0" y="16.0" type="line"/>
    </contour>
    <contour>
      <point x="330.07142857142856" y="0.0" type="line"/>
      <point x="560.0" y="0.0" type="line"/>
      <point x="560.0" y="16.0" type="line"/>
      <point x="502.07142857142856" y="48.0" type="line"/>
      <point x="502.07142857142856" y="343.0" type="line" smooth="yes"/>
      <point x="502.07142857142856" y="422.5"/>
      <point x="447.3571428571429" y="463.57142857142856"/>
      <point x="369.5" y="463.57142857142856" type="curve" smooth="yes"/>
      <point x="310.92857142857144" y="463.57142857142856"/>
      <point x="270.7142857142857" y="438.07142857142856"/>
      <point x="222.85714285714286" y="389.57142857142856" type="curve"/>
      <point x="210.85714285714286" y="389.57142857142856" type="line"/>
      <point x="210.85714285714286" y="340.92857142857144" type="line"/>
      <point x="230.71428571428572" y="364.92857142857144"/>
      <point x="274.3571428571429" y="378.8571428571429"/>
      <point x="306.64285714285717" y="378.8571428571429" type="curve" smooth="yes"/>
      <point x="353.7857142857143" y="378.8571428571429"/>
      <point x="386.35714285714283" y="351.42857142857144"/>
      <point x="386.35714285714283" y="299.57142857142856" type="curve" smooth="yes"/>
      <point x="386.35714285714283" y="48.0" type="line"/>
      <point x="330.07142857142856" y="16.0" type="line"/>
    </contour>
    <contour>
      <point x="616.2142857142857" y="0.0" type="line"/>
      <point x="856.2857142857142" y="0.0" type="line"/>
      <point x="856.2857142857142" y="16.0" type="line"/>
      <point x="791.1428571428571" y="48.0" type="line"/>
      <point x="791.1428571428571" y="343.0" type="line" smooth="yes"/>
      <point x="791.1428571428571" y="422.5"/>
      <point x="736.4285714285714" y="463.57142857142856"/>
      <point x="658.5714285714286" y="463.57142857142856" type="curve" smooth="yes"/>
      <point x="596.0" y="463.57142857142856"/>
      <point x="554.5" y="434.07142857142856"/>
      <point x="501.3571428571429" y="379.0" type="curve"/>
      <point x="492.1428571428571" y="379.0" type="line"/>
      <point x="492.1428571428571" y="330.85714285714283" type="line"/>
      <point x="513.6428571428571" y="361.7142857142857"/>
      <point x="553.7857142857143" y="378.8571428571429"/>
      <point x="595.7142857142857" y="378.8571428571429" type="curve" smooth="yes"/>
      <point x="642.8571428571429" y="378.8571428571429"/>
      <point x="675.4285714285714" y="351.42857142857144"/>
      <point x="675.4285714285714" y="299.57142857142856" type="curve" smooth="yes"/>
      <point x="675.4285714285714" y="48.0" type="line"/>
      <point x="616.2142857142857" y="16.0" type="line"/>
    </contour>
  </outline>
</glyph>
<glyph name="o" format="2">
  <advance width="544.2857142857143"/>
  <unicode hex="006F"/>
  <anchor x="270.2142857142857" y="510.0" name="top"/>
  <anchor x="310.2857142857143" y="0.0" name="right"/>
  <anchor x="276.0" y="0.0" name="bottom"/>
  <outline>
    <contour>
      <point x="272.14285714285717" y="-10.0" type="curve" smooth="yes"/>
      <point x="409.57142857142856" y="-10.0"/>
      <point x="503.2142857142857" y="94.92857142857143"/>
      <point x="503.2142857142857" y="226.78571428571428" type="curve" smooth="yes"/>
      <point x="503.2142857142857" y="359.0"/>
      <point x="409.57142857142856" y="463.57142857142856"/>
      <point x="272.14285714285717" y="463.57142857142856" type="curve" smooth="yes"/>
      <point x="134.71428571428572" y="463.57142857142856"/>
      <point x="41.07142857142857" y="359.0"/>
      <point x="41.07142857142857" y="226.78571428571428" type="curve" smooth="yes"/>
      <point x="41.07142857142857" y="94.92857142857143"/>
      <point x="134.71428571428572" y="-10.0"/>
    </contour>
    <contour>
      <point x="284.35714285714283" y="36.57142857142857" type="curve" smooth="yes"/>
      <point x="199.23793103457143" y="36.57142857142857"/>
      <point x="163.21428571428572" y="139.87373737357143"/>
      <point x="163.21428571428572" y="247.78571428571428" type="curve" smooth="yes"/>
      <point x="163.21428571428572" y="336.76478616928574"/>
      <point x="193.14285714285714" y="418.0"/>
      <point x="261.92857142857144" y="418.0" type="curve" smooth="yes"/>
      <point x="346.5" y="418.0"/>
      <point x="381.07142857142856" y="314.6976911978571"/>
      <point x="381.07142857142856" y="206.78571428571428" type="curve" smooth="yes"/>
      <point x="381.07142857142856" y="118.829390355"/>
      <point x="351.97802197792856" y="36.57142857142857"/>
    </contour>
  </outline>
</glyph>
<glyph name="p" format="2">
  <advance width="580.2142857142857"/>
  <unicode hex="0070"/>
  <outline>
    <contour>
      <point x="38.0" y="-230.0" type="line"/>
      <point x="293.7857142857143" y="-230.0" type="line"/>
      <point x="293.7857142857143" y="-214.0" type="line"/>
      <point x="218.85714285714286" y="-182.0" type="line"/>
      <point x="218.85714285714286" y="383.92857142857144" type="line"/>
      <point x="208.85714285714286" y="463.57142857142856" type="line"/>
      <point x="199.28571428571428" y="463.57142857142856" type="line"/>
      <point x="41.0" y="405.0" type="line"/>
      <point x="41.0" y="394.7857142857143" type="line"/>
      <point x="103.14285714285714" y="346.0" type="line"/>
      <point x="103.14285714285714" y="-182.0" type="line"/>
      <point x="38.0" y="-214.0" type="line"/>
    </contour>
    <contour>
      <point x="310.2142857142857" y="-10.0" type="curve"/>
      <point x="434.8571428571429" y="-10.0"/>
      <point x="540.4285714285714" y="85.5"/>
      <point x="540.4285714285714" y="247.0" type="curve" smooth="yes"/>
      <point x="540.4285714285714" y="381.14285714285717"/>
      <point x="464.2142857142857" y="463.57142857142856"/>
      <point x="370.0" y="463.57142857142856" type="curve" smooth="yes"/>
      <point x="316.7142857142857" y="463.57142857142856"/>
      <point x="273.07142857142856" y="445.57142857142856"/>
      <point x="222.78571428571428" y="402.57142857142856" type="curve"/>
      <point x="208.14285714285714" y="402.57142857142856" type="line"/>
      <point x="208.14285714285714" y="355.7857142857143" type="line"/>
      <point x="238.92857142857144" y="376.5"/>
      <point x="267.57142857142856" y="386.7142857142857"/>
      <point x="298.92857142857144" y="386.7142857142857" type="curve" smooth="yes"/>
      <point x="365.57142857142856" y="386.7142857142857"/>
      <point x="424.7142857142857" y="333.7857142857143"/>
      <point x="424.7142857142857" y="216.14285714285714" type="curve" smooth="yes"/>
      <point x="424.7142857142857" y="82.35714285714286"/>
      <point x="373.2142857142857" y="40.5"/>
      <point x="318.5" y="40.5" type="curve" smooth="yes"/>
      <point x="274.92857142857144" y="40.5"/>
      <point x="240.78571428571428" y="53.214285714285715"/>
      <point x="211.71428571428572" y="84.07142857142857" type="curve"/>
      <point x="154.57142857142856" y="26.07142857142857" type="line"/>
      <point x="197.92857142857144" y="0.2857142857142847"/>
      <point x="247.14285714285714" y="-10.0"/>
    </contour>
  </outline>
</glyph>
<glyph name="q" format="2">
  <advance width="570.8571428571429"/>
  <unicode hex="0071"/>
  <outline>
    <contour>
      <point x="286.42857142857144" y="-230.0" type="line"/>
      <point x="542.2142857142857" y="-230.0" type="line"/>
      <point x="542.2142857142857" y="-214.0" type="line"/>
      <point x="477.07142857142856" y="-182.64285714285714" type="line"/>
      <point x="477.07142857142856" y="463.57142857142856" type="line"/>
      <point x="467.5" y="463.57142857142856" type="line"/>
      <point x="371.2857142857143" y="428.7857142857143" type="line"/>
      <point x="427.92857142857144" y="428.7857142857143" type="line"/>
      <point x="378.40513021142857" y="451.559265995"/>
      <point x="340.2142857142857" y="463.57142857142856"/>
      <point x="282.57142857142856" y="463.57142857142856" type="curve" smooth="yes"/>
      <point x="145.07142857142858" y="463.57142857142856"/>
      <point x="39.785714285714285" y="362.92857142857144"/>
      <point x="39.785714285714285" y="194.35714285714286" type="curve" smooth="yes"/>
      <point x="39.785714285714285" y="68.71428571428571"/>
      <point x="116.0" y="-10.0"/>
      <point x="210.21428571428572" y="-10.0" type="curve" smooth="yes"/>
      <point x="260.35714285714283" y="-10.0"/>
      <point x="306.5" y="7.857142857142858"/>
      <point x="355.0" y="48.92857142857143" type="curve"/>
      <point x="378.7142857142857" y="48.92857142857143" type="line"/>
      <point x="378.7142857142857" y="101.28571428571429" type="line"/>
      <point x="341.7857142857143" y="77.0"/>
      <point x="309.2857142857143" y="66.85714285714286"/>
      <point x="281.2857142857143" y="66.85714285714286" type="curve" smooth="yes"/>
      <point x="214.64285714285714" y="66.85714285714286"/>
      <point x="155.5" y="114.85714285714286"/>
      <point x="155.5" y="221.64285714285714" type="curve" smooth="yes"/>
      <point x="155.5" y="366.64285714285717"/>
      <point x="209.21428571428572" y="412.42857142857144"/>
      <point x="274.2142857142857" y="412.42857142857144" type="curve" smooth="yes"/>
      <point x="303.07142857142856" y="412.42857142857144"/>
      <point x="330.2857142857143" y="406.7857142857143"/>
      <point x="351.14285714285717" y="388.5" type="curve" smooth="yes"/>
      <point x="360.35714285714283" y="380.57142857142856"/>
      <point x="361.35714285714283" y="376.7857142857143"/>
      <point x="361.35714285714283" y="339.57142857142856" type="curve" smooth="yes"/>
      <point x="361.35714285714283" y="-184.57142857142856" type="line"/>
      <point x="286.42857142857144" y="-214.0" type="line"/>
    </contour>
  </outline>
</glyph>
<glyph name="r" format="2">
  <advance width="413.42857142857144"/>
  <unicode hex="0072"/>
  <anchor x="237.0" y="510.0" name="top"/>
  <anchor x="163.57142857142858" y="0.0" name="bottom"/>
  <outline>
    <contour>
      <point x="40.57142857142857" y="0.0" type="line"/>
      <point x="298.14285714285717" y="0.0" type="line"/>
      <point x="298.14285714285717" y="16.0" type="line"/>
      <point x="221.42857142857144" y="48.0" type="line"/>
      <point x="221.42857142857144" y="367.7142857142857" type="line"/>
      <point x="211.42857142857144" y="463.57142857142856" type="line"/>
      <point x="201.85714285714286" y="463.57142857142856" type="line"/>
      <point x="43.57142857142857" y="405.0" type="line"/>
      <point x="43.57142857142857" y="394.7857142857143" type="line"/>
      <point x="105.71428571428572" y="346.0" type="line"/>
      <point x="105.71428571428572" y="48.0" type="line"/>
      <point x="40.57142857142857" y="16.0" type="line"/>
    </contour>
    <contour>
      <point x="293.5" y="371.2142857142857" type="curve" smooth="yes"/>
      <point x="311.14285714285717" y="371.2142857142857"/>
      <point x="324.42857142857144" y="369.5"/>
      <point x="342.2857142857143" y="362.7857142857143" type="curve" smooth="yes"/>
      <point x="373.14285714285717" y="351.0" type="line"/>
      <point x="380.14285714285717" y="351.0" type="line"/>
      <point x="402.64285714285717" y="409.64285714285717" type="line" smooth="yes"/>
      <point x="405.2857142857143" y="416.2857142857143"/>
      <point x="406.2857142857143" y="422.2857142857143"/>
      <point x="406.2857142857143" y="426.92857142857144" type="curve" smooth="yes"/>
      <point x="406.2857142857143" y="438.92857142857144"/>
      <point x="393.7857142857143" y="448.92857142857144"/>
      <point x="376.2857142857143" y="455.2857142857143" type="curve" smooth="yes"/>
      <point x="366.2142857142857" y="459.2857142857143"/>
      <point x="350.92857142857144" y="463.57142857142856"/>
      <point x="339.57142857142856" y="463.57142857142856" type="curve" smooth="yes"/>
      <point x="303.07142857142856" y="463.57142857142856"/>
      <point x="272.92857142857144" y="451.7857142857143"/>
      <point x="224.78571428571428" y="375.7142857142857" type="curve"/>
      <point x="213.42857142857144" y="375.7142857142857" type="line"/>
      <point x="213.42857142857144" y="318.42857142857144" type="line"/>
      <point x="233.71428571428572" y="352.5"/>
      <point x="261.14285714285717" y="371.2142857142857"/>
    </contour>
  </outline>
</glyph>
<glyph name="s" format="2">
  <advance width="435.2142857142857"/>
  <unicode hex="0073"/>
  <anchor x="217.5" y="510.0" name="top"/>
  <anchor x="217.14285714285714" y="0.0" name="bottom"/>
  <outline>
    <contour>
      <point x="210.85714285714286" y="-10.0" type="curve" smooth="yes"/>
      <point x="290.07142857142856" y="-10.0"/>
      <point x="375.42857142857144" y="42.714285714285715"/>
      <point x="375.42857142857144" y="134.92857142857144" type="curve" smooth="yes"/>
      <point x="375.42857142857144" y="228.93795620428574"/>
      <point x="310.9340698022857" y="250.35829776292857"/>
      <point x="254.14285714285714" y="274.92857142857144" type="curve" smooth="yes"/>
      <point x="180.2253534825" y="305.85752916207144"/>
      <point x="154.92857142857144" y="322.0"/>
      <point x="154.92857142857144" y="361.2857142857143" type="curve" smooth="yes"/>
      <point x="154.92857142857144" y="398.8541033435714"/>
      <point x="182.92963752664286" y="421.0"/>
      <point x="224.92857142857144" y="421.0" type="curve" smooth="yes"/>
      <point x="260.1532905295" y="421.0"/>
      <point x="284.56939584635717" y="404.0184161949286"/>
      <point x="309.2142857142857" y="366.42857142857144" type="curve" smooth="yes"/>
      <point x="341.14285714285717" y="317.0" type="line"/>
      <point x="355.8571428571429" y="317.0" type="line"/>
      <point x="355.8571428571429" y="431.7142857142857" type="line"/>
      <point x="314.2142857142857" y="453.07142857142856"/>
      <point x="271.7142857142857" y="463.57142857142856"/>
      <point x="225.21428571428572" y="463.57142857142856" type="curve" smooth="yes"/>
      <point x="138.42857142857142" y="463.57142857142856"/>
      <point x="65.71428571428571" y="398.85714285714283"/>
      <point x="65.71428571428571" y="317.35714285714283" type="curve" smooth="yes"/>
      <point x="65.71428571428571" y="254.21142857142857"/>
      <point x="101.38911849064286" y="219.01168337692857"/>
      <point x="173.85714285714286" y="187.92857142857142" type="curve" smooth="yes"/>
      <point x="252.76189747678572" y="153.97585851714285"/>
      <point x="287.85714285714283" y="141.42582417607142"/>
      <point x="287.85714285714283" y="93.42857142857143" type="curve" smooth="yes"/>
      <point x="287.85714285714283" y="54.352040816321434"/>
      <point x="259.0" y="31.0"/>
      <point x="207.14285714285714" y="31.0" type="curve" smooth="yes"/>
      <point x="161.28571428571428" y="31.0"/>
      <point x="127.5" y="49.714285714285715"/>
      <point x="105.07142857142857" y="86.0" type="curve" smooth="yes"/>
      <point x="71.28571428571429" y="139.57142857142858" type="line"/>
      <point x="56.57142857142857" y="139.57142857142858" type="line"/>
      <point x="56.57142857142857" y="25.42857142857143" type="line"/>
      <point x="103.57142857142857" y="1.7857142857142858"/>
      <point x="146.07142857142858" y="-10.0"/>
    </contour>
  </outline>
</glyph>
<glyph name="v" format="2">
  <advance width="477.5"/>
  <unicode hex="0076"/>
  <outline>
    <contour>
      <point x="220.57142857142858" y="0.0" type="line"/>
      <point x="243.42857142857144" y="0.0" type="line"/>
      <point x="289.7857142857143" y="102.64285714285714" type="line"/>
      <point x="289.7857142857143" y="157.92857142857144" type="line"/>
      <point x="273.7857142857143" y="157.92857142857144" type="line"/>
      <point x="160.07142857142856" y="403.7142857142857" type="line"/>
      <point x="160.07142857142856" y="408.2857142857143" type="line"/>
      <point x="234.21428571428572" y="437.57142857142856" type="line"/>
      <point x="234.21428571428572" y="453.57142857142856" type="line"/>
      <point x="-30.5" y="453.57142857142856" type="line"/>
      <point x="-30.5" y="437.57142857142856" type="line"/>
      <point x="33.64285714285714" y="408.7142857142857" type="line"/>
    </contour>
    <contour>
      <point x="251.57142857142856" y="0.0" type="line"/>
      <point x="436.14285714285717" y="403.2857142857143" type="line"/>
      <point x="508.0" y="437.57142857142856" type="line"/>
      <point x="508.0" y="453.57142857142856" type="line"/>
      <point x="311.64285714285717" y="453.57142857142856" type="line"/>
      <point x="311.64285714285717" y="437.57142857142856" type="line"/>
      <point x="378.64285714285717" y="403.7142857142857" type="line"/>
      <point x="378.64285714285717" y="399.14285714285717" type="line"/>
      <point x="231.78571428571428" y="46.92857142857143" type="line"/>
      <point x="231.78571428571428" y="0.0" type="line"/>
    </contour>
  </outline>
</glyph>
<glyph name="w" format="2">
  <advance width="738.0"/>
  <unicode hex="0077"/>
  <anchor x="398.92857142857144" y="510.0" name="top"/>
  <outline>
    <contour>
      <point x="194.92857142857144" y="0.0" type="line"/>
      <point x="217.78571428571428" y="0.0" type="line"/>
      <point x="268.7857142857143" y="113.5" type="line"/>
      <point x="268.7857142857143" y="158.5" type="line"/>
      <point x="251.92857142857144" y="158.5" type="line"/>
      <point x="160.07142857142856" y="403.7142857142857" type="line"/>
      <point x="160.07142857142856" y="408.2857142857143" type="line"/>
      <point x="234.21428571428572" y="437.57142857142856" type="line"/>
      <point x="234.21428571428572" y="453.57142857142856" type="line"/>
      <point x="-30.5" y="453.57142857142856" type="line"/>
      <point x="-30.5" y="437.57142857142856" type="line"/>
      <point x="33.64285714285714" y="408.7142857142857" type="line"/>
    </contour>
    <contour>
      <point x="382.92857142857144" y="453.57142857142856" type="line"/>
      <point x="208.57142857142858" y="46.0" type="line"/>
      <point x="208.57142857142858" y="0.0" type="line"/>
      <point x="225.92857142857144" y="0.0" type="line"/>
      <point x="381.8571428571429" y="337.0" type="line"/>
      <point x="342.35714285714283" y="337.0" type="line"/>
      <point x="493.64285714285717" y="0.0" type="line"/>
      <point x="516.5" y="0.0" type="line"/>
      <point x="559.0" y="123.14285714285714" type="line"/>
      <point x="413.92857142857144" y="453.57142857142856" type="line"/>
    </contour>
    <contour>
      <point x="524.6428571428571" y="0.0" type="line"/>
      <point x="696.6428571428571" y="403.2857142857143" type="line"/>
      <point x="768.5" y="437.57142857142856" type="line"/>
      <point x="768.5" y="453.57142857142856" type="line"/>
      <point x="572.1428571428571" y="453.57142857142856" type="line"/>
      <point x="572.1428571428571" y="437.57142857142856" type="line"/>
      <point x="639.1428571428571" y="404.07142857142856" type="line"/>
      <point x="639.1428571428571" y="399.14285714285717" type="line"/>
      <point x="547.0714285714286" y="160.42857142857144" type="line"/>
      <point x="507.07142857142856" y="160.42857142857144" type="line"/>
      <point x="507.07142857142856" y="0.0" type="line"/>
    </contour>
  </outline>
</glyph>
<glyph name="y" format="2">
  <advance width="477.5"/>
  <unicode hex="0079"/>
  <anchor x="273.64285714285717" y="510.0" name="top"/>
  <anchor x="316.2142857142857" y="-21.57142857142857" name="bottom"/>
  <outline>
    <contour>
      <point x="-30.857142857142858" y="453.57142857142856" type="line"/>
      <point x="-30.857142857142858" y="437.57142857142856" type="line"/>
      <point x="33.285714285714285" y="408.7142857142857" type="line"/>
      <point x="236.35714285714286" y="-19.642857142857142" type="line"/>
      <point x="299.3571428571429" y="107.71428571428572" type="line"/>
      <point x="299.3571428571429" y="148.71428571428572" type="line"/>
      <point x="279.5" y="148.71428571428572" type="line"/>
      <point x="159.71428571428572" y="403.7142857142857" type="line"/>
      <point x="159.71428571428572" y="407.64285714285717" type="line"/>
      <point x="230.28571428571428" y="437.57142857142856" type="line"/>
      <point x="230.28571428571428" y="453.57142857142856" type="line"/>
    </contour>
    <contour>
      <point x="83.0" y="-241.0" type="curve" smooth="yes"/>
      <point x="117.07142857142857" y="-241.0"/>
      <point x="156.71428571428572" y="-221.35714285714286"/>
      <point x="184.07142857142858" y="-183.0" type="curve" smooth="yes"/>
      <point x="214.07142857142856" y="-141.0"/>
      <point x="218.07142857142856" y="-125.64285714285714"/>
      <point x="237.07142857142858" y="-79.0" type="curve" smooth="yes"/>
      <point x="435.5" y="403.92857142857144" type="line"/>
      <point x="508.0" y="437.57142857142856" type="line"/>
      <point x="508.0" y="453.57142857142856" type="line"/>
      <point x="315.2142857142857" y="453.57142857142856" type="line"/>
      <point x="315.2142857142857" y="437.57142857142856" type="line"/>
      <point x="380.57142857142856" y="403.7142857142857" type="line"/>
      <point x="380.57142857142856" y="399.14285714285717" type="line"/>
      <point x="264.7142857142857" y="95.21428571428572" type="line"/>
      <point x="195.92857142857144" y="-66.42857142857142" type="line" smooth="yes"/>
      <point x="162.28571428571428" y="-143.21428571428572"/>
      <point x="148.35714285714286" y="-146.21428571428572"/>
      <point x="99.0" y="-146.21428571428572" type="curve" smooth="yes"/>
      <point x="53.714285714285715" y="-146.21428571428572" type="line"/>
      <point x="49.0" y="-150.92857142857144" type="line"/>
      <point x="49.0" y="-212.0" type="line" smooth="yes"/>
      <point x="49.0" y="-234.0"/>
      <point x="53.0" y="-241.0"/>
    </contour>
  </outline>
</glyph>
<glyph name="z" format="2">
  <advance width="493.7857142857143"/>
  <unicode hex="007A"/>
  <anchor x="251.57142857142858" y="510.0" name="top"/>
  <anchor x="251.57142857142858" y="0.0" name="bottom"/>
  <outline>
    <contour>
      <point x="59.64285714285714" y="0.0" type="line"/>
      <point x="431.2857142857143" y="0.0" type="line"/>
      <point x="431.2857142857143" y="158.14285714285714" type="line"/>
      <point x="413.5" y="158.14285714285714" type="line"/>
      <point x="357.3571428571429" y="8.0" type="line"/>
      <point x="405.2857142857143" y="45.785714285714285" type="line"/>
      <point x="184.85714285714286" y="45.785714285714285" type="line"/>
      <point x="184.85714285714286" y="11.5" type="line"/>
      <point x="423.2857142857143" y="434.5" type="line"/>
      <point x="423.2857142857143" y="453.57142857142856" type="line"/>
      <point x="142.64285714285714" y="453.57142857142856" type="line" smooth="yes"/>
      <point x="122.35714285714286" y="453.57142857142856"/>
      <point x="92.35714285714286" y="459.2142857142857"/>
      <point x="74.64285714285714" y="463.57142857142856" type="curve"/>
      <point x="69.64285714285714" y="463.57142857142856" type="line"/>
      <point x="58.64285714285714" y="302.42857142857144" type="line"/>
      <point x="76.42857142857143" y="302.42857142857144" type="line"/>
      <point x="143.57142857142858" y="443.57142857142856" type="line"/>
      <point x="94.64285714285714" y="407.7857142857143" type="line"/>
      <point x="298.07142857142856" y="407.7857142857143" type="line"/>
      <point x="298.07142857142856" y="442.07142857142856" type="line"/>
      <point x="59.64285714285714" y="19.071428571428573" type="line"/>
    </contour>
  </outline>
</glyph>
<glyph name="braceleft" format="2">
  <advance width="257.14285714285717"/>
  <unicode hex="007B"/>
  <outline>
    <contour>
      <point x="222.42857142857144" y="-150.0" type="curve" smooth="yes"/>
      <point x="245.0" y="-150.0" type="line"/>
      <point x="245.0" y="-125.21428571428571" type="line"/>
      <point x="218.0" y="-125.21428571428571" type="line" smooth="yes"/>
      <point x="160.0" y="-125.21428571428571"/>
      <point x="132.0" y="-88.92857142857143"/>
      <point x="132.0" y="-35.0" type="curve" smooth="yes"/>
      <point x="132.0" y="43.0"/>
      <point x="175.0" y="108.0"/>
      <point x="175.0" y="177.0" type="curve" smooth="yes"/>
      <point x="175.0" y="226.0"/>
      <point x="151.57142857142858" y="267.57142857142856"/>
      <point x="85.42857142857143" y="295.0" type="curve"/>
      <point x="151.57142857142858" y="322.7857142857143"/>
      <point x="175.0" y="364.0"/>
      <point x="175.0" y="413.0" type="curve" smooth="yes"/>
      <point x="175.0" y="482.0"/>
      <point x="132.0" y="547.0"/>
      <point x="132.0" y="625.0" type="curve" smooth="yes"/>
      <point x="132.0" y="678.9285714285714"/>
      <point x="160.0" y="715.2142857142857"/>
      <point x="218.0" y="715.2142857142857" type="curve" smooth="yes"/>
      <point x="245.0" y="715.2142857142857" type="line"/>
      <point x="245.0" y="740.0" type="line"/>
      <point x="222.42857142857144" y="740.0" type="line" smooth="yes"/>
      <point x="111.42857142857143" y="740.0"/>
      <point x="64.42857142857143" y="686.0"/>
      <point x="64.42857142857143" y="607.0" type="curve" smooth="yes"/>
      <point x="64.42857142857143" y="524.0"/>
      <point x="112.42857142857143" y="459.0"/>
      <point x="112.42857142857143" y="391.0" type="curve" smooth="yes"/>
      <point x="112.42857142857143" y="347.35714285714283"/>
      <point x="91.42857142857143" y="307.7142857142857"/>
      <point x="26.42857142857143" y="307.7142857142857" type="curve" smooth="yes"/>
      <point x="1.4285714285714284" y="307.7142857142857" type="line"/>
      <point x="1.4285714285714284" y="283.2857142857143" type="line"/>
      <point x="26.42857142857143" y="283.2857142857143" type="line" smooth="yes"/>
      <point x="91.42857142857143" y="283.2857142857143"/>
      <point x="112.42857142857143" y="243.64285714285714"/>
      <point x="112.42857142857143" y="199.0" type="curve" smooth="yes"/>
      <point x="112.42857142857143" y="131.0"/>
      <point x="64.42857142857143" y="66.0"/>
      <point x="64.42857142857143" y="-17.0" type="curve" smooth="yes"/>
      <point x="64.42857142857143" y="-96.0"/>
      <point x="111.42857142857143" y="-150.0"/>
    </contour>
  </outline>
</glyph>
<glyph name="braceright" format="2">
  <advance width="257.14285714285717"/>
  <unicode hex="007D"/>
  <outline>
    <contour>
      <point x="34.714285714285715" y="-150.0" type="line" smooth="yes"/>
      <point x="145.71428571428572" y="-150.0"/>
      <point x="192.71428571428572" y="-96.0"/>
      <point x="192.71428571428572" y="-17.0" type="curve" smooth="yes"/>
      <point x="192.71428571428572" y="66.0"/>
      <point x="144.71428571428572" y="131.0"/>
      <point x="144.71428571428572" y="199.0" type="curve" smooth="yes"/>
      <point x="144.71428571428572" y="243.64285714285714"/>
      <point x="165.71428571428572" y="283.2857142857143"/>
      <point x="230.71428571428572" y="283.2857142857143" type="curve" smooth="yes"/>
      <point x="255.71428571428572" y="283.2857142857143" type="line"/>
      <point x="255.71428571428572" y="307.7142857142857" type="line"/>
      <point x="230.71428571428572" y="307.7142857142857" type="line" smooth="yes"/>
      <point x="165.71428571428572" y="307.7142857142857"/>
      <point x="144.71428571428572" y="347.35714285714283"/>
      <point x="144.71428571428572" y="391.0" type="curve" smooth="yes"/>
      <point x="144.71428571428572" y="459.0"/>
      <point x="192.71428571428572" y="524.0"/>
      <point x="192.71428571428572" y="607.0" type="curve" smooth="yes"/>
      <point x="192.71428571428572" y="686.0"/>
      <point x="145.71428571428572" y="740.0"/>
      <point x="34.714285714285715" y="740.0" type="curve" smooth="yes"/>
      <point x="12.142857142857142" y="740.0" type="line"/>
      <point x="12.142857142857142" y="715.2142857142857" type="line"/>
      <point x="39.142857142857146" y="715.2142857142857" type="line" smooth="yes"/>
      <point x="97.14285714285714" y="715.2142857142857"/>
      <point x="125.14285714285714" y="678.9285714285714"/>
      <point x="125.14285714285714" y="625.0" type="curve" smooth="yes"/>
      <point x="125.14285714285714" y="547.0"/>
      <point x="82.14285714285714" y="482.0"/>
      <point x="82.14285714285714" y="413.0" type="curve" smooth="yes"/>
      <point x="82.14285714285714" y="364.0"/>
      <point x="105.57142857142857" y="322.7857142857143"/>
      <point x="171.71428571428572" y="295.0" type="curve"/>
      <point x="105.57142857142857" y="267.57142857142856"/>
      <point x="82.14285714285714" y="226.0"/>
      <point x="82.14285714285714" y="177.0" type="curve" smooth="yes"/>
      <point x="82.14285714285714" y="108.0"/>
      <point x="125.14285714285714" y="43.0"/>
      <point x="125.14285714285714" y="-35.0" type="curve" smooth="yes"/>
      <point x="125.14285714285714" y="-88.92857142857143"/>
      <point x="97.14285714285714" y="-125.21428571428571"/>
      <point x="39.142857142857146" y="-125.21428571428571" type="curve" smooth="yes"/>
      <point x="12.142857142857142" y="-125.21428571428571" type="line"/>
      <point x="12.142857142857142" y="-150.0" type="line"/>
    </contour>
  </outline>
</glyph>
<glyph name="asciitilde" format="2">
  <advance width="535.7142857142857"/>
  <unicode hex="007E"/>
  <outline>
    <contour>
      <point x="57.85714285714286" y="201.0" type="curve"/>
      <point x="111.64285714285714" y="201.0" type="line"/>
      <point x="111.64285714285714" y="258.92857142857144"/>
      <point x="133.28571428571428" y="290.57142857142856"/>
      <point x="170.14285714285714" y="290.57142857142856" type="curve" smooth="yes"/>
      <point x="234.78571428571428" y="290.57142857142856"/>
      <point x="268.5" y="201.0"/>
      <point x="363.85714285714283" y="201.0" type="curve" smooth="yes"/>
      <point x="434.2857142857143" y="201.0"/>
      <point x="477.85714285714283" y="251.92857142857142"/>
      <point x="477.85714285714283" y="343.0" type="curve"/>
      <point x="424.07142857142856" y="343.0" type="line"/>
      <point x="424.07142857142856" y="282.07142857142856"/>
      <point x="406.7857142857143" y="253.42857142857144"/>
      <point x="365.57142857142856" y="253.42857142857144" type="curve" smooth="yes"/>
      <point x="299.57142857142856" y="253.42857142857144"/>
      <point x="267.2142857142857" y="343.0"/>
      <point x="171.85714285714286" y="343.0" type="curve" smooth="yes"/>
      <point x="102.85714285714286" y="343.0"/>
      <point x="57.85714285714286" y="291.0"/>
    </contour>
  </outline>
</glyph>
<glyph name="exclamdown" format="2">
  <advance width="261.07142857142856"/>
  <unicode hex="00A1"/>
  <outline>
    <contour>
      <point x="61.785714285714285" y="-201.42857142857142" type="line"/>
      <point x="199.28571428571428" y="-201.42857142857142" type="line"/>
      <point x="144.28571428571428" y="247.85714285714286" type="line"/>
      <point x="117.14285714285714" y="247.85714285714286" type="line"/>
    </contour>
    <contour>
      <point x="130.71428571428572" y="325.85714285714283" type="curve" smooth="yes"/>
      <point x="167.35714285714286" y="325.85714285714283"/>
      <point x="199.57142857142856" y="357.42857142857144"/>
      <point x="199.57142857142856" y="394.7142857142857" type="curve" smooth="yes"/>
      <point x="199.57142857142856" y="431.35714285714283"/>
      <point x="167.35714285714286" y="463.57142857142856"/>
      <point x="130.71428571428572" y="463.57142857142856" type="curve" smooth="yes"/>
      <point x="93.42857142857143" y="463.57142857142856"/>
      <point x="61.857142857142854" y="431.35714285714283"/>
      <point x="61.857142857142854" y="394.7142857142857" type="curve" smooth="yes"/>
      <point x="61.857142857142854" y="357.42857142857144"/>
      <point x="93.42857142857143" y="325.85714285714283"/>
    </contour>
  </outline>
</glyph>
<glyph name="cent" format="2">
  <advance width="535.7142857142857"/>
  <unicode hex="00A2"/>
  <outline>
    <contour>
      <point x="276.2857142857143" y="93.85714285714286" type="curve" smooth="yes"/>
      <point x="360.2142857142857" y="93.85714285714286"/>
      <point x="424.07142857142856" y="138.85714285714286"/>
      <point x="462.7142857142857" y="200.92857142857144" type="curve"/>
      <point x="462.7142857142857" y="231.07142857142856" type="line"/>
      <point x="459.7142857142857" y="231.07142857142856" type="line"/>
      <point x="413.2857142857143" y="204.07142857142856"/>
      <point x="368.7857142857143" y="191.42857142857144"/>
      <point x="331.7857142857143" y="191.42857142857144" type="curve" smooth="yes"/>
      <point x="229.14285714285714" y="191.42857142857144"/>
      <point x="177.78571428571428" y="249.14285714285714"/>
      <point x="177.78571428571428" y="357.0" type="curve" smooth="yes"/>
      <point x="177.78571428571428" y="459.2142857142857"/>
      <point x="213.64285714285714" y="521.5"/>
      <point x="279.85714285714283" y="521.5" type="curve" smooth="yes"/>
      <point x="321.7142857142857" y="521.5"/>
      <point x="341.92857142857144" y="503.2857142857143"/>
      <point x="364.07142857142856" y="473.42857142857144" type="curve" smooth="yes"/>
      <point x="397.7142857142857" y="427.7857142857143" type="line"/>
      <point x="404.7142857142857" y="427.7857142857143" type="line"/>
      <point x="448.07142857142856" y="464.42857142857144" type="line" smooth="yes"/>
      <point x="458.07142857142856" y="472.7857142857143"/>
      <point x="460.7142857142857" y="478.42857142857144"/>
      <point x="460.7142857142857" y="488.42857142857144" type="curve" smooth="yes"/>
      <point x="460.7142857142857" y="496.42857142857144"/>
      <point x="456.07142857142856" y="505.42857142857144"/>
      <point x="445.07142857142856" y="518.4285714285714" type="curve" smooth="yes"/>
      <point x="418.7142857142857" y="547.7857142857143"/>
      <point x="364.14285714285717" y="566.7857142857143"/>
      <point x="305.5" y="566.7857142857143" type="curve" smooth="yes"/>
      <point x="163.35714285714286" y="566.7857142857143"/>
      <point x="63.0" y="460.7142857142857"/>
      <point x="63.0" y="310.2857142857143" type="curve" smooth="yes"/>
      <point x="63.0" y="179.57142857142856"/>
      <point x="147.28571428571428" y="93.85714285714286"/>
    </contour>
    <contour>
      <point x="182.64285714285714" y="26.0" type="line"/>
      <point x="222.85714285714286" y="26.0" type="line"/>
      <point x="372.85714285714283" y="635.0" type="line"/>
      <point x="332.64285714285717" y="635.0" type="line"/>
    </contour>
  </outline>
</glyph>
<glyph name="sterling" format="2">
  <advance width="535.7142857142857"/>
  <unicode hex="00A3"/>
  <outline>
    <contour>
      <point x="51.285714285714285" y="0.0" type="line"/>
      <point x="473.7857142857143" y="0.0" type="line"/>
      <point x="483.7857142857143" y="196.85714285714286" type="line"/>
      <point x="447.7857142857143" y="196.85714285714286" type="line"/>
      <point x="417.7857142857143" y="99.85714285714286" type="line"/>
      <point x="138.0" y="99.85714285714286" type="line"/>
      <point x="140.92857142857144" y="86.78571428571429" type="line"/>
      <point x="250.42857142857144" y="143.85714285714286"/>
      <point x="301.8571428571429" y="190.85714285714286"/>
      <point x="301.8571428571429" y="258.57142857142856" type="curve" smooth="yes"/>
      <point x="301.8571428571429" y="337.14285714285717"/>
      <point x="203.0" y="454.2142857142857"/>
      <point x="203.0" y="531.5" type="curve" smooth="yes"/>
      <point x="203.0" y="580.2857142857143"/>
      <point x="229.92857142857144" y="622.0"/>
      <point x="288.35714285714283" y="622.0" type="curve" smooth="yes"/>
      <point x="336.0" y="622.0"/>
      <point x="356.57142857142856" y="588.6428571428571"/>
      <point x="382.2857142857143" y="541.5" type="curve" smooth="yes"/>
      <point x="396.2857142857143" y="515.5" type="line"/>
      <point x="403.2857142857143" y="515.5" type="line"/>
      <point x="455.7857142857143" y="555.4285714285714" type="line" smooth="yes"/>
      <point x="466.14285714285717" y="563.4285714285714"/>
      <point x="468.7857142857143" y="569.4285714285714"/>
      <point x="468.7857142857143" y="579.4285714285714" type="curve" smooth="yes"/>
      <point x="468.7857142857143" y="587.4285714285714"/>
      <point x="463.7857142857143" y="596.4285714285714"/>
      <point x="452.7857142857143" y="609.4285714285714" type="curve" smooth="yes"/>
      <point x="426.5" y="641.7142857142857"/>
      <point x="374.2857142857143" y="670.0"/>
      <point x="296.35714285714283" y="670.0" type="curve" smooth="yes"/>
      <point x="173.78571428571428" y="670.0"/>
      <point x="89.28571428571428" y="575.6428571428571"/>
      <point x="89.28571428571428" y="473.85714285714283" type="curve" smooth="yes"/>
      <point x="89.28571428571428" y="392.35714285714283"/>
      <point x="174.35714285714286" y="293.14285714285717"/>
      <point x="174.35714285714286" y="225.5" type="curve" smooth="yes"/>
      <point x="174.35714285714286" y="174.71428571428572"/>
      <point x="149.28571428571428" y="129.85714285714286"/>
      <point x="51.285714285714285" y="50.714285714285715" type="curve"/>
    </contour>
    <contour>
      <point x="47.285714285714285" y="313.92857142857144" type="line"/>
      <point x="419.7857142857143" y="313.92857142857144" type="line"/>
      <point x="419.7857142857143" y="354.07142857142856" type="line"/>
      <point x="47.285714285714285" y="354.07142857142856" type="line"/>
    </contour>
  </outline>
</glyph>
<glyph name="currency" format="2">
  <advance width="535.7142857142857"/>
  <unicode hex="00A4"/>
  <outline>
    <contour>
      <point x="57.14285714285714" y="99.42857142857143" type="line"/>
      <point x="96.0" y="60.92857142857143" type="line"/>
      <point x="174.28571428571428" y="139.21428571428572" type="line"/>
      <point x="200.21428571428572" y="120.92857142857143"/>
      <point x="232.85714285714286" y="109.28571428571428"/>
      <point x="267.85714285714283" y="109.28571428571428" type="curve" smooth="yes"/>
      <point x="302.5" y="109.28571428571428"/>
      <point x="334.7857142857143" y="120.57142857142857"/>
      <point x="361.42857142857144" y="139.21428571428572" type="curve"/>
      <point x="439.7142857142857" y="60.92857142857143" type="line"/>
      <point x="478.57142857142856" y="99.42857142857143" type="line"/>
      <point x="400.2857142857143" y="177.71428571428572" type="line"/>
      <point x="418.92857142857144" y="204.35714285714286"/>
      <point x="430.57142857142856" y="237.0"/>
      <point x="430.57142857142856" y="272.0" type="curve" smooth="yes"/>
      <point x="430.57142857142856" y="306.64285714285717"/>
      <point x="418.92857142857144" y="339.2857142857143"/>
      <point x="400.2857142857143" y="366.2857142857143" type="curve"/>
      <point x="478.57142857142856" y="444.57142857142856" type="line"/>
      <point x="439.7142857142857" y="483.07142857142856" type="line"/>
      <point x="361.42857142857144" y="404.7857142857143" type="line"/>
      <point x="335.5" y="423.07142857142856"/>
      <point x="302.85714285714283" y="434.7142857142857"/>
      <point x="267.85714285714283" y="434.7142857142857" type="curve" smooth="yes"/>
      <point x="233.21428571428572" y="434.7142857142857"/>
      <point x="200.92857142857144" y="423.42857142857144"/>
      <point x="174.28571428571428" y="404.7857142857143" type="curve"/>
      <point x="96.0" y="483.07142857142856" type="line"/>
      <point x="57.14285714285714" y="444.57142857142856" type="line"/>
      <point x="135.42857142857142" y="366.2857142857143" type="line"/>
      <point x="116.78571428571428" y="339.64285714285717"/>
      <point x="105.14285714285714" y="307.0"/>
      <point x="105.14285714285714" y="272.0" type="curve" smooth="yes"/>
      <point x="105.14285714285714" y="237.35714285714286"/>
      <point x="116.78571428571428" y="204.71428571428572"/>
      <point x="135.42857142857142" y="177.71428571428572" type="curve"/>
    </contour>
    <contour>
      <point x="267.85714285714283" y="158.78571428571428" type="curve" smooth="yes"/>
      <point x="206.28571428571428" y="158.78571428571428"/>
      <point x="160.0" y="207.0"/>
      <point x="160.0" y="272.0" type="curve" smooth="yes"/>
      <point x="160.0" y="337.0"/>
      <point x="206.28571428571428" y="385.2142857142857"/>
      <point x="267.85714285714283" y="385.2142857142857" type="curve" smooth="yes"/>
      <point x="329.42857142857144" y="385.2142857142857"/>
      <point x="375.7142857142857" y="337.0"/>
      <point x="375.7142857142857" y="272.0" type="curve" smooth="yes"/>
      <point x="375.7142857142857" y="207.0"/>
      <point x="329.42857142857144" y="158.78571428571428"/>
    </contour>
  </outline>
</glyph>
<glyph name="yen" format="2">
  <advance width="535.7142857142857"/>
  <unicode hex="00A5"/>
  <outline>
    <contour>
      <point x="121.78571428571428" y="0.0" type="line"/>
      <point x="415.35714285714283" y="0.0" type="line"/>
      <point x="415.35714285714283" y="16.0" type="line"/>
      <point x="328.92857142857144" y="56.714285714285715" type="line"/>
      <point x="328.92857142857144" y="432.42857142857144" type="line"/>
      <point x="306.92857142857144" y="362.35714285714283" type="line"/>
      <point x="492.0" y="636.5" type="line"/>
      <point x="431.64285714285717" y="602.0714285714286" type="line"/>
      <point x="534.4285714285714" y="644.0" type="line"/>
      <point x="534.4285714285714" y="660.0" type="line"/>
      <point x="343.42857142857144" y="660.0" type="line"/>
      <point x="343.42857142857144" y="644.0" type="line"/>
      <point x="407.2142857142857" y="616.9285714285714" type="line"/>
      <point x="407.2142857142857" y="613.5714285714286" type="line"/>
      <point x="289.8571428571429" y="420.57142857142856" type="line"/>
      <point x="320.07142857142856" y="427.7142857142857" type="line"/>
      <point x="191.85714285714286" y="617.5" type="line"/>
      <point x="191.85714285714286" y="620.2142857142857" type="line"/>
      <point x="254.28571428571428" y="644.0" type="line"/>
      <point x="254.28571428571428" y="660.0" type="line"/>
      <point x="1.6428571428571423" y="660.0" type="line"/>
      <point x="1.6428571428571423" y="644.0" type="line"/>
      <point x="84.28571428571428" y="602.0714285714286" type="line"/>
      <point x="34.92857142857143" y="636.5" type="line"/>
      <point x="230.85714285714286" y="363.07142857142856" type="line"/>
      <point x="208.21428571428572" y="432.42857142857144" type="line"/>
      <point x="208.21428571428572" y="56.714285714285715" type="line"/>
      <point x="121.78571428571428" y="16.0" type="line"/>
    </contour>
    <contour>
      <point x="74.85714285714286" y="387.92857142857144" type="line"/>
      <point x="460.57142857142856" y="387.92857142857144" type="line"/>
      <point x="460.57142857142856" y="428.07142857142856" type="line"/>
      <point x="74.85714285714286" y="428.07142857142856" type="line"/>
    </contour>
    <contour>
      <point x="74.85714285714286" y="238.28571428571428" type="line"/>
      <point x="460.57142857142856" y="238.28571428571428" type="line"/>
      <point x="460.57142857142856" y="278.42857142857144" type="line"/>
      <point x="74.85714285714286" y="278.42857142857144" type="line"/>
    </contour>
  </outline>
</glyph>
<glyph name="section" format="2">
  <advance width="520.3571428571429"/>
  <unicode hex="00A7"/>
  <outline>
    <contour>
      <point x="487.14285714285717" y="295.64285714285717" type="curve" smooth="yes"/>
      <point x="487.14285714285717" y="485.92857142857144"/>
      <point x="191.0" y="401.57142857142856"/>
      <point x="191.0" y="548.7142857142857" type="curve" smooth="yes"/>
      <point x="191.0" y="590.5714285714286"/>
      <point x="225.71428571428572" y="620.0"/>
      <point x="271.2857142857143" y="620.0" type="curve" smooth="yes"/>
      <point x="314.92857142857144" y="620.0"/>
      <point x="342.2142857142857" y="587.5"/>
      <point x="362.7857142857143" y="564.9285714285714" type="curve" smooth="yes"/>
      <point x="379.8571428571429" y="546.8571428571429" type="line"/>
      <point x="386.0" y="545.7857142857142" type="line"/>
      <point x="425.6428571428571" y="583.0714285714286" type="line" smooth="yes"/>
      <point x="433.57142857142856" y="591.0"/>
      <point x="437.57142857142856" y="597.2857142857143"/>
      <point x="438.2857142857143" y="603.2857142857143" type="curve" smooth="yes"/>
      <point x="439.3571428571429" y="612.2857142857143"/>
      <point x="434.8571428571429" y="620.2857142857143"/>
      <point x="423.7142857142857" y="631.3571428571429" type="curve" smooth="yes"/>
      <point x="401.92857142857144" y="651.0714285714286"/>
      <point x="368.2142857142857" y="670.0"/>
      <point x="314.7142857142857" y="670.0" type="curve" smooth="yes"/>
      <point x="188.28571428571428" y="670.0"/>
      <point x="98.71428571428572" y="592.4285714285714"/>
      <point x="98.71428571428572" y="499.07142857142856" type="curve" smooth="yes"/>
      <point x="98.71428571428572" y="292.7142857142857"/>
      <point x="397.7142857142857" y="395.57142857142856"/>
      <point x="397.7142857142857" y="248.0" type="curve" smooth="yes"/>
      <point x="397.7142857142857" y="206.71428571428572"/>
      <point x="358.07142857142856" y="176.42857142857142"/>
      <point x="315.57142857142856" y="172.85714285714286" type="curve"/>
      <point x="315.57142857142856" y="135.92857142857142" type="line"/>
      <point x="418.57142857142856" y="152.5"/>
      <point x="487.14285714285717" y="206.92857142857142"/>
    </contour>
    <contour>
      <point x="206.92857142857144" y="-120.71428571428571" type="curve" smooth="yes"/>
      <point x="318.57142857142856" y="-120.71428571428571"/>
      <point x="425.2857142857143" y="-39.42857142857143"/>
      <point x="425.2857142857143" y="49.42857142857143" type="curve" smooth="yes"/>
      <point x="425.2857142857143" y="250.64285714285714"/>
      <point x="123.92857142857143" y="154.35714285714286"/>
      <point x="123.92857142857143" y="304.5" type="curve" smooth="yes"/>
      <point x="123.92857142857143" y="350.07142857142856"/>
      <point x="151.85714285714286" y="381.2142857142857"/>
      <point x="210.57142857142858" y="386.7857142857143" type="curve"/>
      <point x="210.57142857142858" y="419.14285714285717" type="line"/>
      <point x="104.85714285714286" y="404.85714285714283"/>
      <point x="31.285714285714285" y="348.57142857142856"/>
      <point x="31.285714285714285" y="261.2142857142857" type="curve" smooth="yes"/>
      <point x="31.285714285714285" y="62.14285714285714"/>
      <point x="333.0" y="149.64285714285714"/>
      <point x="333.0" y="3.4285714285714306" type="curve" smooth="yes"/>
      <point x="333.0" y="-39.142857142857146"/>
      <point x="299.85714285714283" y="-68.14285714285714"/>
      <point x="251.5" y="-68.14285714285714" type="curve" smooth="yes"/>
      <point x="203.92857142857144" y="-68.14285714285714"/>
      <point x="171.71428571428572" y="-33.07142857142857"/>
      <point x="149.85714285714286" y="-9.214285714285708" type="curve" smooth="yes"/>
      <point x="132.14285714285714" y="10.142857142857146" type="line"/>
      <point x="125.35714285714286" y="11.214285714285715" type="line"/>
      <point x="83.78571428571428" y="-28.0" type="line" smooth="yes"/>
      <point x="75.21428571428571" y="-35.285714285714285"/>
      <point x="71.85714285714286" y="-43.5"/>
      <point x="71.14285714285714" y="-48.857142857142854" type="curve" smooth="yes"/>
      <point x="70.07142857142857" y="-57.857142857142854"/>
      <point x="73.92857142857143" y="-66.5"/>
      <point x="86.35714285714286" y="-78.85714285714286" type="curve" smooth="yes"/>
      <point x="108.14285714285714" y="-99.21428571428571"/>
      <point x="151.5" y="-120.71428571428571"/>
    </contour>
  </outline>
</glyph>
<glyph name="copyright" format="2">
  <advance width="806.0"/>
  <unicode hex="00A9"/>
  <outline>
    <contour>
      <point x="403.0" y="-10.0" type="curve" smooth="yes"/>
      <point x="594.0" y="-10.0"/>
      <point x="736.0" y="134.0"/>
      <point x="736.0" y="330.0" type="curve" smooth="yes"/>
      <point x="736.0" y="526.0"/>
      <point x="594.0" y="670.0"/>
      <point x="403.0" y="670.0" type="curve" smooth="yes"/>
      <point x="212.0" y="670.0"/>
      <point x="70.0" y="526.0"/>
      <point x="70.0" y="330.0" type="curve" smooth="yes"/>
      <point x="70.0" y="134.0"/>
      <point x="212.0" y="-10.0"/>
    </contour>
    <contour>
      <point x="403.0" y="28.142857142857146" type="curve" smooth="yes"/>
      <point x="235.42857142857142" y="28.142857142857146"/>
      <point x="110.5" y="156.07142857142858"/>
      <point x="110.5" y="330.0" type="curve" smooth="yes"/>
      <point x="110.5" y="503.92857142857144"/>
      <point x="235.42857142857142" y="631.8571428571429"/>
      <point x="403.0" y="631.8571428571429" type="curve" smooth="yes"/>
      <point x="570.5714285714286" y="631.8571428571429"/>
      <point x="695.5" y="503.92857142857144"/>
      <point x="695.5" y="330.0" type="curve" smooth="yes"/>
      <point x="695.5" y="156.07142857142858"/>
      <point x="570.5714285714286" y="28.142857142857146"/>
    </contour>
    <contour>
      <point x="416.14285714285717" y="129.0" type="curve" smooth="yes"/>
      <point x="477.57142857142856" y="129.0"/>
      <point x="515.9285714285714" y="142.71428571428572"/>
      <point x="555.0" y="162.07142857142858" type="curve"/>
      <point x="563.0" y="266.0" type="line"/>
      <point x="534.0" y="266.0" type="line"/>
      <point x="482.14285714285717" y="176.0" type="line"/>
      <point x="518.0" y="210.0" type="line"/>
      <point x="488.57142857142856" y="189.21428571428572"/>
      <point x="462.2857142857143" y="175.0"/>
      <point x="420.14285714285717" y="175.0" type="curve" smooth="yes"/>
      <point x="350.0" y="175.0"/>
      <point x="297.1428571428571" y="237.0"/>
      <point x="297.1428571428571" y="341.0" type="curve" smooth="yes"/>
      <point x="297.1428571428571" y="430.0"/>
      <point x="351.2857142857143" y="495.0"/>
      <point x="427.0" y="495.0" type="curve" smooth="yes"/>
      <point x="457.0" y="495.0"/>
      <point x="475.0" y="483.0"/>
      <point x="511.0" y="458.0" type="curve"/>
      <point x="480.7142857142857" y="487.85714285714283" type="line"/>
      <point x="527.0" y="394.0" type="line"/>
      <point x="556.0" y="394.0" type="line"/>
      <point x="552.0" y="509.0" type="line"/>
      <point x="515.6428571428571" y="527.3571428571429"/>
      <point x="486.57142857142856" y="540.0"/>
      <point x="425.85714285714283" y="540.0" type="curve" smooth="yes"/>
      <point x="307.85714285714283" y="540.0"/>
      <point x="209.28571428571428" y="441.57142857142856"/>
      <point x="209.28571428571428" y="324.0" type="curve" smooth="yes"/>
      <point x="209.28571428571428" y="209.5"/>
      <point x="287.14285714285717" y="129.0"/>
    </contour>
  </outline>
</glyph>
<glyph name="ordfeminine" format="2">
  <advance width="408.2142857142857"/>
  <unicode hex="00AA"/>
  <outline>
    <contour>
      <point x="144.0" y="417.0" type="curve" smooth="yes"/>
      <point x="173.71428571428572" y="417.0"/>
      <point x="199.71428571428572" y="431.7142857142857"/>
      <point x="218.35714285714286" y="452.35714285714283" type="curve"/>
      <point x="228.0" y="452.35714285714283" type="line"/>
      <point x="228.0" y="470.0" type="line"/>
      <point x="212.78571428571428" y="462.7142857142857"/>
      <point x="203.0" y="459.7857142857143"/>
      <point x="190.42857142857144" y="459.7857142857143" type="curve" smooth="yes"/>
      <point x="169.92857142857144" y="459.7857142857143"/>
      <point x="156.21428571428572" y="471.5"/>
      <point x="156.21428571428572" y="492.07142857142856" type="curve" smooth="yes"/>
      <point x="156.21428571428572" y="520.0714285714286"/>
      <point x="170.92857142857144" y="535.0714285714286"/>
      <point x="235.0" y="546.0" type="curve"/>
      <point x="235.0" y="569.0" type="line"/>
      <point x="168.0" y="552.0" type="line" smooth="yes"/>
      <point x="101.0" y="535.0"/>
      <point x="82.0" y="515.0"/>
      <point x="82.0" y="477.0" type="curve" smooth="yes"/>
      <point x="82.0" y="439.0"/>
      <point x="110.0" y="417.0"/>
    </contour>
    <contour>
      <point x="279.92857142857144" y="417.0" type="curve" smooth="yes"/>
      <point x="312.8571428571429" y="417.0"/>
      <point x="330.5" y="430.7142857142857"/>
      <point x="339.2142857142857" y="444.7142857142857" type="curve"/>
      <point x="339.2142857142857" y="452.5" type="line"/>
      <point x="337.2142857142857" y="454.5" type="line"/>
      <point x="322.2142857142857" y="454.5" type="line" smooth="yes"/>
      <point x="309.2142857142857" y="454.5"/>
      <point x="300.2142857142857" y="458.5"/>
      <point x="295.2142857142857" y="463.5" type="curve"/>
      <point x="295.2142857142857" y="602.0" type="line" smooth="yes"/>
      <point x="295.2142857142857" y="648.4285714285714"/>
      <point x="255.92857142857144" y="669.3571428571429"/>
      <point x="198.92857142857144" y="669.3571428571429" type="curve" smooth="yes"/>
      <point x="171.5" y="669.3571428571429"/>
      <point x="149.07142857142858" y="661.7142857142857"/>
      <point x="124.0" y="646.0" type="curve" smooth="yes"/>
      <point x="103.0" y="633.0"/>
      <point x="91.0" y="618.0"/>
      <point x="91.0" y="602.0" type="curve" smooth="yes"/>
      <point x="91.0" y="590.0"/>
      <point x="94.0" y="586.0"/>
      <point x="105.0" y="586.0" type="curve" smooth="yes"/>
      <point x="147.21428571428572" y="586.0" type="line"/>
      <point x="149.21428571428572" y="588.0" type="line"/>
      <point x="149.21428571428572" y="613.8571428571429" type="line" smooth="yes"/>
      <point x="149.21428571428572" y="632.4285714285714"/>
      <point x="157.14285714285714" y="641.6428571428571"/>
      <point x="177.92857142857142" y="641.6428571428571" type="curve" smooth="yes"/>
      <point x="201.85714285714286" y="641.6428571428571"/>
      <point x="218.0" y="624.6428571428571"/>
      <point x="218.0" y="599.0714285714286" type="curve" smooth="yes"/>
      <point x="218.0" y="459.0" type="line"/>
      <point x="219.35714285714286" y="459.0" type="line"/>
      <point x="226.35714285714286" y="433.0"/>
      <point x="247.92857142857142" y="417.0"/>
    </contour>
    <contour>
      <point x="85.0" y="291.2857142857143" type="line"/>
      <point x="325.7142857142857" y="291.2857142857143" type="line"/>
      <point x="325.7142857142857" y="343.07142857142856" type="line"/>
      <point x="85.0" y="343.07142857142856" type="line"/>
    </contour>
  </outline>
</glyph>
<glyph name="logicalnot" format="2">
  <advance width="535.7142857142857"/>
  <unicode hex="00AC"/>
  <outline>
    <contour>
      <point x="423.57142857142856" y="62.0" type="line"/>
      <point x="477.85714285714283" y="62.0" type="line"/>
      <point x="477.85714285714283" y="298.42857142857144" type="line"/>
      <point x="57.85714285714286" y="298.42857142857144" type="line"/>
      <point x="57.85714285714286" y="245.57142857142856" type="line"/>
      <point x="423.57142857142856" y="245.57142857142856" type="line"/>
    </contour>
  </outline>
</glyph>
<glyph name="registered" format="2">
  <advance width="547.1428571428571"/>
  <unicode hex="00AE"/>
  <outline>
    <contour>
      <point x="273.57142857142856" y="231.57142857142858" type="curve" smooth="yes"/>
      <point x="397.7142857142857" y="231.57142857142858"/>
      <point x="488.7857142857143" y="326.0"/>
      <point x="488.7857142857143" y="450.7857142857143" type="curve" smooth="yes"/>
      <point x="488.7857142857143" y="575.5714285714286"/>
      <point x="397.7142857142857" y="670.0"/>
      <point x="273.57142857142856" y="670.0" type="curve" smooth="yes"/>
      <point x="149.42857142857142" y="670.0"/>
      <point x="58.357142857142854" y="575.5714285714286"/>
      <point x="58.357142857142854" y="450.7857142857143" type="curve" smooth="yes"/>
      <point x="58.357142857142854" y="326.0"/>
      <point x="149.42857142857142" y="231.57142857142858"/>
    </contour>
    <contour>
      <point x="273.57142857142856" y="263.35714285714283" type="curve" smooth="yes"/>
      <point x="166.85714285714286" y="263.35714285714283"/>
      <point x="93.85714285714286" y="344.07142857142856"/>
      <point x="93.85714285714286" y="450.7857142857143" type="curve" smooth="yes"/>
      <point x="93.85714285714286" y="557.5"/>
      <point x="166.85714285714286" y="638.2142857142857"/>
      <point x="273.57142857142856" y="638.2142857142857" type="curve" smooth="yes"/>
      <point x="380.2857142857143" y="638.2142857142857"/>
      <point x="453.2857142857143" y="557.5"/>
      <point x="453.2857142857143" y="450.7857142857143" type="curve" smooth="yes"/>
      <point x="453.2857142857143" y="344.07142857142856"/>
      <point x="380.2857142857143" y="263.35714285714283"/>
    </contour>
    <contour>
      <point x="161.64285714285714" y="325.42857142857144" type="line"/>
      <point x="271.7857142857143" y="325.42857142857144" type="line"/>
      <point x="271.7857142857143" y="332.42857142857144" type="line"/>
      <point x="241.78571428571428" y="348.42857142857144" type="line"/>
      <point x="241.78571428571428" y="580.4285714285714" type="line"/>
      <point x="161.64285714285714" y="580.4285714285714" type="line"/>
      <point x="161.64285714285714" y="574.4285714285714" type="line"/>
      <point x="192.64285714285714" y="558.4285714285714" type="line"/>
      <point x="192.64285714285714" y="348.42857142857144" type="line"/>
      <point x="161.64285714285714" y="332.42857142857144" type="line"/>
    </contour>
    <contour>
      <point x="362.7857142857143" y="517.4285714285714" type="curve" smooth="yes"/>
      <point x="362.7857142857143" y="556.4285714285714"/>
      <point x="329.7857142857143" y="580.4285714285714"/>
      <point x="275.7857142857143" y="580.4285714285714" type="curve" smooth="yes"/>
      <point x="209.64285714285714" y="580.4285714285714" type="line"/>
      <point x="209.64285714285714" y="557.4285714285714" type="line"/>
      <point x="256.64285714285717" y="557.4285714285714" type="line" smooth="yes"/>
      <point x="287.64285714285717" y="557.4285714285714"/>
      <point x="310.64285714285717" y="543.4285714285714"/>
      <point x="310.64285714285717" y="512.4285714285714" type="curve" smooth="yes"/>
      <point x="310.64285714285717" y="481.42857142857144"/>
      <point x="287.64285714285717" y="465.42857142857144"/>
      <point x="258.64285714285717" y="465.42857142857144" type="curve"/>
      <point x="212.64285714285714" y="465.42857142857144" type="line"/>
      <point x="212.64285714285714" y="442.42857142857144" type="line"/>
      <point x="279.7857142857143" y="442.42857142857144" type="line"/>
      <point x="279.7857142857143" y="445.42857142857144" type="line"/>
      <point x="327.7857142857143" y="450.42857142857144"/>
      <point x="362.7857142857143" y="480.42857142857144"/>
    </contour>
    <contour>
      <point x="317.64285714285717" y="325.42857142857144" type="line"/>
      <point x="389.5" y="325.42857142857144" type="line"/>
      <point x="389.5" y="332.42857142857144" type="line"/>
      <point x="363.5" y="345.42857142857144" type="line"/>
      <point x="306.5" y="457.42857142857144" type="line"/>
      <point x="255.14285714285714" y="457.42857142857144" type="line"/>
    </contour>
  </outline>
</glyph>
<glyph name="degree" format="2">
  <advance width="500.0"/>
  <unicode hex="00B0"/>
  <outline>
    <contour>
      <point x="250.0" y="410.0" type="curve" smooth="yes"/>
      <point x="325.0" y="410.0"/>
      <point x="380.0" y="470.0"/>
      <point x="380.0" y="540.0" type="curve" smooth="yes"/>
      <point x="380.0" y="610.0"/>
      <point x="325.0" y="670.0"/>
      <point x="250.0" y="670.0" type="curve" smooth="yes"/>
      <point x="175.0" y="670.0"/>
      <point x="120.0" y="610.0"/>
      <point x="120.0" y="540.0" type="curve" smooth="yes"/>
      <point x="120.0" y="470.0"/>
      <point x="175.0" y="410.0"/>
    </contour>
    <contour>
      <point x="250.0" y="451.5" type="curve" smooth="yes"/>
      <point x="203.14285714285714" y="451.5"/>
      <point x="165.92857142857144" y="485.3414634146429"/>
      <point x="165.92857142857144" y="540.0" type="curve" smooth="yes"/>
      <point x="165.92857142857144" y="594.6585365853571"/>
      <point x="203.14285714285714" y="628.5"/>
      <point x="250.0" y="628.5" type="curve" smooth="yes"/>
      <point x="296.85714285714283" y="628.5"/>
      <point x="334.07142857142856" y="594.6585365853571"/>
      <point x="334.07142857142856" y="540.0" type="curve" smooth="yes"/>
      <point x="334.07142857142856" y="485.3414634146429"/>
      <point x="296.85714285714283" y="451.5"/>
    </contour>
  </outline>
</glyph>
<glyph name="plusminus" format="2">
  <advance width="535.7142857142857"/>
  <unicode hex="00B1"/>
  <outline>
    <contour>
      <point x="57.85714285714286" y="285.57142857142856" type="line"/>
      <point x="477.85714285714283" y="285.57142857142856" type="line"/>
      <point x="477.85714285714283" y="338.42857142857144" type="line"/>
      <point x="57.85714285714286" y="338.42857142857144" type="line"/>
    </contour>
    <contour>
      <point x="240.07142857142858" y="152.0" type="line"/>
      <point x="295.64285714285717" y="152.0" type="line"/>
      <point x="295.64285714285717" y="482.0" type="line"/>
      <point x="240.07142857142858" y="482.0" type="line"/>
    </contour>
    <contour>
      <point x="57.85714285714286" y="60.57142857142857" type="line"/>
      <point x="477.85714285714283" y="60.57142857142857" type="line"/>
      <point x="477.85714285714283" y="113.42857142857143" type="line"/>
      <point x="57.85714285714286" y="113.42857142857143" type="line"/>
    </contour>
  </outline>
</glyph>
<glyph name="paragraph" format="2">
  <advance width="507.42857142857144"/>
  <unicode hex="00B6"/>
  <outline>
    <contour>
      <point x="264.92857142857144" y="-110.0" type="line"/>
      <point x="319.57142857142856" y="-110.0" type="line"/>
      <point x="319.57142857142856" y="660.0" type="line"/>
      <point x="207.0" y="660.0" type="line" smooth="yes"/>
      <point x="104.0" y="660.0"/>
      <point x="35.0" y="615.0"/>
      <point x="35.0" y="514.0" type="curve" smooth="yes"/>
      <point x="35.0" y="425.0"/>
      <point x="115.0" y="359.0"/>
      <point x="223.0" y="359.0" type="curve" smooth="yes"/>
      <point x="264.92857142857144" y="359.0" type="line"/>
    </contour>
    <contour>
      <point x="376.0" y="-110.0" type="line"/>
      <point x="430.64285714285717" y="-110.0" type="line"/>
      <point x="430.64285714285717" y="603.2857142857143" type="line"/>
      <point x="513.8571428571429" y="644.0" type="line"/>
      <point x="513.8571428571429" y="660.0" type="line"/>
      <point x="376.0" y="660.0" type="line"/>
    </contour>
  </outline>
</glyph>
<glyph name="periodcentered" format="2">
  <advance width="250.0"/>
  <unicode hex="00B7"/>
  <outline>
    <contour>
      <point x="125.0" y="202.5" type="curve" smooth="yes"/>
      <point x="162.28571428571428" y="202.5"/>
      <point x="193.85714285714286" y="234.07142857142858"/>
      <point x="193.85714285714286" y="271.35714285714283" type="curve" smooth="yes"/>
      <point x="193.85714285714286" y="308.64285714285717"/>
      <point x="162.28571428571428" y="340.2142857142857"/>
      <point x="125.0" y="340.2142857142857" type="curve" smooth="yes"/>
      <point x="87.71428571428571" y="340.2142857142857"/>
      <point x="56.14285714285714" y="308.64285714285717"/>
      <point x="56.14285714285714" y="271.35714285714283" type="curve" smooth="yes"/>
      <point x="56.14285714285714" y="234.07142857142858"/>
      <point x="87.71428571428571" y="202.5"/>
    </contour>
  </outline>
</glyph>
<glyph name="ordmasculine" format="2">
  <advance width="408.2142857142857"/>
  <unicode hex="00BA"/>
  <outline>
    <contour>
      <point x="203.92857142857142" y="416.64285714285717" type="curve" smooth="yes"/>
      <point x="280.42857142857144" y="416.64285714285717"/>
      <point x="333.2142857142857" y="473.0"/>
      <point x="333.2142857142857" y="543.0" type="curve" smooth="yes"/>
      <point x="333.2142857142857" y="612.0"/>
      <point x="280.7857142857143" y="669.3571428571429"/>
      <point x="204.28571428571428" y="669.3571428571429" type="curve" smooth="yes"/>
      <point x="126.78571428571429" y="669.3571428571429"/>
      <point x="75.0" y="612.0"/>
      <point x="75.0" y="543.0" type="curve" smooth="yes"/>
      <point x="75.0" y="473.0"/>
      <point x="126.42857142857143" y="416.64285714285717"/>
    </contour>
    <contour>
      <point x="209.57142857142858" y="442.7142857142857" type="curve" smooth="yes"/>
      <point x="174.57142857142858" y="442.7142857142857"/>
      <point x="155.57142857142858" y="490.42857142857144"/>
      <point x="155.57142857142858" y="554.0" type="curve" smooth="yes"/>
      <point x="155.57142857142858" y="603.0714285714286"/>
      <point x="170.0" y="643.2857142857143"/>
      <point x="199.28571428571428" y="643.2857142857143" type="curve" smooth="yes"/>
      <point x="233.92857142857142" y="643.2857142857143"/>
      <point x="252.64285714285714" y="594.2857142857143"/>
      <point x="252.64285714285714" y="532.0" type="curve" smooth="yes"/>
      <point x="252.64285714285714" y="481.35714285714283"/>
      <point x="238.5" y="442.7142857142857"/>
    </contour>
    <contour>
      <point x="85.0" y="291.2857142857143" type="line"/>
      <point x="325.7142857142857" y="291.2857142857143" type="line"/>
      <point x="325.7142857142857" y="343.07142857142856" type="line"/>
      <point x="85.0" y="343.07142857142856" type="line"/>
    </contour>
  </outline>
</glyph>
<glyph name="questiondown" format="2">
  <advance width="479.0"/>
  <unicode hex="00BF"/>
  <outline>
    <contour>
      <point x="232.64285714285714" y="-211.42857142857142" type="curve" smooth="yes"/>
      <point x="298.2142857142857" y="-211.42857142857142"/>
      <point x="336.64285714285717" y="-188.64285714285714"/>
      <point x="383.7142857142857" y="-154.21428571428572" type="curve" smooth="yes"/>
      <point x="423.64285714285717" y="-125.5"/>
      <point x="444.7857142857143" y="-89.71428571428571"/>
      <point x="444.7857142857143" y="-51.214285714285715" type="curve" smooth="yes"/>
      <point x="444.7857142857143" y="-16.928571428571427"/>
      <point x="433.5" y="-12.285714285714286"/>
      <point x="409.64285714285717" y="-12.285714285714286" type="curve" smooth="yes"/>
      <point x="349.35714285714283" y="-12.285714285714286" type="line"/>
      <point x="340.2857142857143" y="-23.357142857142858" type="line"/>
      <point x="340.2857142857143" y="-60.142857142857146" type="line" smooth="yes"/>
      <point x="340.2857142857143" y="-131.5"/>
      <point x="306.85714285714283" y="-167.85714285714286"/>
      <point x="254.42857142857144" y="-167.85714285714286" type="curve" smooth="yes"/>
      <point x="196.85714285714286" y="-167.85714285714286"/>
      <point x="153.0" y="-128.57142857142858"/>
      <point x="153.0" y="-45.285714285714285" type="curve" smooth="yes"/>
      <point x="153.0" y="23.57142857142857"/>
      <point x="207.78571428571428" y="70.0"/>
      <point x="311.42857142857144" y="94.28571428571428" type="curve"/>
      <point x="281.8571428571429" y="247.85714285714286" type="line"/>
      <point x="255.07142857142858" y="247.85714285714286" type="line"/>
      <point x="237.28571428571428" y="120.71428571428571" type="line"/>
      <point x="264.0" y="176.5" type="line"/>
      <point x="113.35714285714286" y="134.0"/>
      <point x="43.85714285714286" y="60.35714285714286"/>
      <point x="43.85714285714286" y="-34.42857142857143" type="curve" smooth="yes"/>
      <point x="43.85714285714286" y="-136.07142857142856"/>
      <point x="119.21428571428571" y="-211.42857142857142"/>
    </contour>
    <contour>
      <point x="269.35714285714283" y="325.85714285714283" type="curve" smooth="yes"/>
      <point x="306.64285714285717" y="325.85714285714283"/>
      <point x="338.2142857142857" y="357.42857142857144"/>
      <point x="338.2142857142857" y="394.7142857142857" type="curve" smooth="yes"/>
      <point x="338.2142857142857" y="431.35714285714283"/>
      <point x="306.64285714285717" y="463.57142857142856"/>
      <point x="269.35714285714283" y="463.57142857142856" type="curve" smooth="yes"/>
      <point x="232.71428571428572" y="463.57142857142856"/>
      <point x="200.5" y="431.35714285714283"/>
      <point x="200.5" y="394.7142857142857" type="curve" smooth="yes"/>
      <point x="200.5" y="357.42857142857144"/>
      <point x="232.71428571428572" y="325.85714285714283"/>
    </contour>
  </outline>
</glyph>
